{"glyphs":{"0":{"ha":914,"x_min":60,"x_max":863,"o":"m 525 1001 q 681 973 617 1001 q 785 890 744 944 q 844 756 825 835 q 863 578 863 678 q 856 457 863 522 q 831 326 849 392 q 781 199 813 260 q 699 90 749 138 q 578 15 649 43 q 413 -14 508 -14 q 242 21 310 -14 q 134 115 175 56 q 76 254 93 174 q 60 426 60 335 q 83 638 60 535 q 160 822 106 742 q 303 952 214 903 q 525 1001 393 1001 m 496 786 q 428 769 457 786 q 380 722 400 751 q 348 657 360 693 q 329 583 336 621 q 320 509 322 544 q 318 446 318 474 q 349 261 318 319 q 439 203 381 203 q 523 244 490 203 q 574 342 556 285 q 598 462 592 400 q 604 567 604 524 q 579 727 604 668 q 496 786 554 786 z "},"1":{"ha":535,"x_min":36,"x_max":467,"o":"m 163 939 q 212 969 186 953 q 240 986 238 986 l 324 986 q 433 953 400 986 q 467 869 467 921 q 465 812 467 854 q 458 710 463 769 q 449 577 454 650 q 440 431 444 504 q 430 286 435 357 q 421 159 425 215 q 414 65 417 103 q 410 21 411 28 q 404 5 408 10 q 388 0 400 0 l 311 0 q 197 33 228 0 q 167 139 167 67 q 171 228 167 168 q 181 369 175 289 q 195 546 188 450 q 211 742 203 642 q 178 718 196 725 q 144 711 161 711 q 98 725 118 711 q 64 758 78 739 q 43 801 50 778 q 36 842 36 824 q 40 854 36 849 q 56 869 43 860 q 93 895 68 879 q 163 939 118 911 z "},"2":{"ha":804,"x_min":35,"x_max":760,"o":"m 760 740 q 735 612 760 674 q 674 495 711 550 q 590 392 636 440 q 498 306 543 344 q 414 240 453 268 q 354 194 375 211 l 707 194 q 722 190 715 194 q 729 175 729 186 l 724 93 q 701 26 721 51 q 618 0 681 0 l 163 0 q 63 23 92 0 q 35 101 35 46 l 35 185 q 38 201 35 192 q 44 217 42 211 q 97 275 57 240 q 187 350 136 310 q 294 436 238 390 q 397 529 350 482 q 474 623 443 576 q 504 713 504 669 q 481 772 504 747 q 404 796 457 796 q 349 778 371 796 q 315 733 328 760 q 295 673 301 706 q 286 613 289 640 q 277 593 283 599 q 242 588 271 588 q 88 736 88 588 q 119 858 88 808 q 201 940 150 908 q 316 987 253 972 q 444 1001 379 1001 q 599 977 538 1001 q 696 915 660 953 q 746 830 732 876 q 760 740 760 783 z "},"3":{"ha":785,"x_min":14,"x_max":725,"o":"m 400 796 q 335 783 369 796 q 286 732 301 769 q 279 718 282 721 q 261 715 276 715 q 144 744 181 715 q 108 822 108 774 q 133 896 108 863 q 199 953 157 929 q 299 989 242 976 q 425 1001 357 1001 q 572 980 514 1001 q 665 924 631 958 q 712 846 699 890 q 725 756 725 801 q 697 633 725 686 q 597 535 668 579 q 691 460 660 504 q 722 349 722 415 q 699 228 722 292 q 622 110 675 164 q 484 22 569 57 q 275 -14 399 -14 q 154 -1 204 -14 q 73 35 104 13 q 28 88 42 57 q 14 153 14 118 q 59 251 14 219 q 182 283 104 283 q 203 281 201 283 q 208 267 206 278 q 226 233 214 246 q 255 214 239 221 q 288 205 271 207 q 318 203 304 203 q 391 218 363 203 q 435 254 419 233 q 458 299 451 275 q 464 339 464 322 q 435 405 464 383 q 375 428 407 426 l 176 436 q 154 456 154 436 l 158 494 q 183 561 163 538 q 265 588 204 585 l 390 593 q 463 624 436 596 q 490 706 490 653 q 400 796 490 796 z "},"4":{"ha":832,"x_min":28,"x_max":761,"o":"m 147 267 q 60 285 93 267 q 28 349 28 304 q 33 387 28 365 q 47 442 38 408 q 70 526 56 476 q 106 650 85 576 q 130 738 119 699 q 147 811 140 778 q 158 873 154 844 q 161 929 161 901 q 165 966 161 946 q 183 986 168 986 l 246 986 q 355 958 325 986 q 385 864 385 931 q 381 807 385 839 q 366 728 376 775 q 340 615 356 681 q 300 458 324 550 l 486 458 q 495 566 490 507 q 504 681 500 625 q 512 781 508 736 q 517 847 515 826 q 519 924 519 896 q 522 965 519 951 q 528 983 524 979 q 544 986 533 986 l 621 986 q 692 977 665 986 q 735 951 719 968 q 756 910 750 935 q 761 854 761 886 q 758 751 761 822 q 748 590 754 679 q 735 404 742 500 q 723 226 729 308 q 713 88 717 144 q 707 21 708 31 q 701 5 706 10 q 685 0 697 0 l 608 0 q 498 31 532 0 q 464 118 464 61 q 465 163 464 129 q 471 267 467 196 l 147 267 z "},"5":{"ha":779,"x_min":28,"x_max":728,"o":"m 333 -14 q 220 -3 275 -14 q 122 30 165 8 q 53 84 79 51 q 28 161 28 117 q 72 251 28 218 q 196 283 115 283 q 213 281 207 283 q 221 267 218 278 q 239 235 225 247 q 271 215 253 222 q 308 206 289 208 q 342 203 326 203 q 412 217 383 203 q 458 255 440 232 q 483 306 475 278 q 490 361 490 335 q 485 402 490 382 q 470 438 481 422 q 442 463 460 453 q 399 472 425 472 q 353 461 374 472 q 324 421 333 450 q 303 399 318 399 l 226 399 q 160 406 186 399 q 120 426 135 413 q 100 459 106 439 q 94 506 94 479 q 101 603 94 539 q 116 739 107 668 q 133 873 125 810 q 146 965 142 936 q 169 986 147 986 l 700 986 q 715 982 708 986 q 722 967 722 978 l 717 885 q 694 817 714 843 q 611 792 674 792 l 360 792 l 331 581 q 387 609 350 599 q 468 619 424 619 q 576 599 528 619 q 658 544 625 579 q 710 458 692 508 q 728 349 728 408 q 706 219 728 283 q 635 102 683 154 q 513 18 588 50 q 333 -14 438 -14 z "},"6":{"ha":856,"x_min":60,"x_max":803,"o":"m 501 786 q 415 760 449 786 q 360 695 381 733 q 332 615 340 657 q 324 540 324 572 q 329 514 324 521 q 347 538 333 518 q 388 578 361 557 q 453 617 414 600 q 550 633 493 633 q 642 620 597 633 q 723 576 688 607 q 781 494 758 544 q 803 368 803 443 q 776 219 803 289 q 698 98 750 150 q 568 16 646 46 q 389 -14 490 -14 q 222 19 286 -14 q 122 109 158 53 q 73 241 86 165 q 60 401 60 317 q 83 630 60 521 q 160 822 107 739 q 301 953 214 904 q 517 1001 389 1001 q 731 954 664 1001 q 797 835 797 907 q 753 738 797 769 q 628 706 710 706 q 610 708 617 706 q 604 722 604 711 q 583 767 604 749 q 501 786 563 786 m 451 467 q 390 450 415 467 q 351 409 365 433 q 330 356 336 385 q 324 306 324 328 q 345 231 324 258 q 407 203 367 203 q 472 221 446 203 q 515 266 499 239 q 538 322 531 293 q 544 375 544 351 q 524 441 544 415 q 451 467 503 467 z "},"7":{"ha":683,"x_min":57,"x_max":706,"o":"m 293 21 q 264 0 283 0 l 214 0 q 101 22 144 0 q 57 89 57 44 q 63 122 57 103 q 84 171 69 140 q 124 248 99 201 q 186 364 149 294 q 274 526 238 460 q 333 638 310 593 q 369 710 356 683 q 391 753 383 738 q 401 777 399 769 q 408 792 404 785 l 78 792 q 65 796 67 792 q 63 811 63 800 l 67 889 q 72 924 68 907 q 85 956 75 942 q 115 978 96 969 q 167 986 135 986 l 683 986 q 699 982 692 986 q 706 967 706 978 l 700 892 q 693 856 697 868 q 683 832 689 843 q 569 603 617 699 q 487 436 522 507 q 426 313 451 365 q 380 215 401 261 q 338 124 358 169 q 293 21 318 78 z "},"8":{"ha":838,"x_min":44,"x_max":778,"o":"m 778 358 q 756 236 778 301 q 685 115 733 171 q 559 23 636 60 q 372 -14 482 -14 q 232 6 293 -14 q 129 63 171 26 q 66 149 88 99 q 44 257 44 199 q 81 399 44 335 q 193 513 118 464 q 127 573 154 529 q 100 688 100 617 q 119 797 100 742 q 183 897 139 853 q 296 970 226 942 q 465 999 365 999 q 608 978 550 999 q 702 922 667 957 q 753 842 738 888 q 768 750 768 797 q 745 643 768 694 q 657 549 722 592 q 749 471 719 517 q 778 358 778 425 m 432 461 q 367 444 392 461 q 331 403 343 428 q 314 353 318 379 q 310 308 310 326 q 396 203 310 203 q 455 221 432 203 q 490 265 478 239 q 508 319 503 290 q 513 368 513 347 q 490 442 513 422 q 432 461 468 461 m 457 804 q 407 790 426 804 q 376 755 388 775 q 361 712 365 735 q 357 672 357 689 q 376 608 357 628 q 429 589 394 589 q 481 603 461 589 q 513 639 501 618 q 529 683 525 660 q 533 726 533 707 q 515 782 533 760 q 457 804 497 804 z "},"9":{"ha":844,"x_min":57,"x_max":794,"o":"m 318 201 q 427 229 383 201 q 497 297 471 257 q 533 382 522 338 q 544 461 544 426 q 539 488 544 481 q 519 461 533 481 q 478 421 504 442 q 413 384 453 400 q 317 368 372 368 q 226 381 271 368 q 145 426 181 394 q 88 508 110 457 q 65 633 65 558 q 90 776 65 710 q 164 893 115 843 q 286 972 213 943 q 456 1001 360 1001 q 626 967 560 1001 q 729 877 692 933 q 781 746 767 821 q 794 590 794 671 q 768 360 794 469 q 683 167 742 250 q 532 35 625 83 q 304 -14 439 -14 q 190 -1 238 -14 q 113 33 143 11 q 70 85 83 56 q 57 151 57 115 q 101 250 57 218 q 226 282 144 282 q 244 279 242 282 q 250 265 247 276 q 269 215 257 228 q 318 201 281 201 m 411 535 q 469 550 446 535 q 506 588 493 565 q 525 635 519 610 q 531 681 531 660 q 506 757 531 729 q 439 785 481 785 q 383 768 406 785 q 348 727 361 751 q 329 676 335 703 q 324 629 324 649 q 344 561 324 588 q 411 535 365 535 z "}," ":{"ha":299,"x_min":0,"x_max":0,"o":""},"u":{"ha":833,"x_min":61,"x_max":768,"o":"m 322 646 q 317 564 322 617 q 308 454 313 511 q 298 347 303 397 q 293 275 293 297 q 317 199 293 226 q 385 172 342 172 q 448 202 422 172 q 490 280 474 232 q 515 389 506 328 q 530 513 525 450 q 538 634 535 575 q 546 736 542 693 q 554 756 547 747 q 576 764 561 764 l 626 764 q 697 755 669 764 q 740 729 724 746 q 762 688 756 713 q 768 632 768 664 q 766 573 768 611 q 758 467 764 535 q 745 297 753 400 q 726 40 738 193 q 720 6 724 11 q 697 0 717 0 l 643 0 q 574 10 601 0 q 531 35 547 19 q 507 71 514 50 q 499 114 500 92 q 452 53 478 78 q 399 13 426 28 q 342 -8 371 -1 q 285 -14 313 -14 q 190 3 232 -14 q 120 50 149 21 q 76 119 92 79 q 61 206 61 160 q 63 265 61 224 q 69 357 65 306 q 76 466 72 408 q 84 575 81 524 q 91 665 88 626 q 96 721 94 704 q 107 755 99 746 q 135 764 115 764 l 179 764 q 250 756 222 764 q 294 732 278 747 q 316 695 310 717 q 322 646 322 674 z "},"b":{"ha":833,"x_min":63,"x_max":785,"o":"m 375 -14 q 206 17 268 -14 q 111 96 143 49 q 71 198 79 143 q 63 299 63 253 q 66 369 63 317 q 75 492 69 422 q 86 640 81 561 q 97 788 92 718 q 106 913 103 858 q 110 988 110 967 q 114 1023 110 1018 q 139 1028 118 1028 l 193 1028 q 263 1018 235 1028 q 307 992 290 1008 q 331 953 324 975 q 338 907 338 932 q 333 815 338 883 q 321 656 328 747 q 403 748 357 718 q 524 778 449 778 q 717 694 650 778 q 785 446 785 611 q 778 351 785 403 q 756 249 772 300 q 712 151 740 199 q 638 67 683 103 q 527 8 592 31 q 375 -14 463 -14 m 438 593 q 359 567 388 593 q 315 503 331 540 q 296 423 300 465 q 292 349 292 381 q 318 212 292 253 q 397 171 344 171 q 476 202 447 171 q 519 276 504 233 q 538 364 533 319 q 542 433 542 408 q 518 552 542 511 q 438 593 494 593 z "},"h":{"ha":844,"x_min":56,"x_max":778,"o":"m 518 172 q 527 268 522 218 q 535 364 532 318 q 542 446 539 410 q 544 499 544 482 q 527 563 544 535 q 460 592 510 592 q 352 529 393 592 q 304 363 311 467 q 297 281 301 333 q 289 176 293 229 q 281 80 285 122 q 278 28 278 38 q 272 6 278 11 q 247 0 265 0 l 197 0 q 127 9 154 0 q 84 35 100 18 q 62 76 68 51 q 56 132 56 100 q 60 217 56 163 q 74 369 65 272 q 93 615 82 465 q 117 988 104 765 q 124 1024 118 1018 q 146 1028 128 1028 l 200 1028 q 269 1018 242 1028 q 314 992 297 1008 q 338 953 331 975 q 344 908 344 932 q 340 815 344 883 q 328 656 335 747 q 420 751 369 725 q 549 778 471 778 q 650 765 607 778 q 722 723 693 753 q 764 645 750 693 q 778 526 778 597 q 774 450 778 504 q 763 326 769 396 q 751 181 757 257 q 740 43 744 106 q 738 19 739 28 q 733 7 736 11 q 722 1 729 3 q 703 0 715 0 l 658 0 q 586 8 614 0 q 543 32 558 17 q 522 70 528 47 q 515 122 515 93 q 516 149 515 136 q 518 172 517 161 z "},"o":{"ha":831,"x_min":40,"x_max":783,"o":"m 368 -14 q 209 13 272 -14 q 108 88 146 40 q 56 198 71 135 q 40 333 40 261 q 60 497 40 417 q 129 639 81 576 q 258 740 178 701 q 457 778 338 778 q 708 692 632 778 q 783 453 783 607 q 777 358 783 410 q 753 254 771 306 q 706 154 736 203 q 631 68 676 106 q 520 8 585 31 q 368 -14 456 -14 m 433 593 q 349 566 381 593 q 302 501 318 539 q 281 420 286 463 q 276 349 276 378 q 306 214 276 257 q 389 171 335 171 q 469 201 438 171 q 517 275 500 232 q 541 365 535 318 q 547 444 547 413 q 522 553 547 514 q 433 593 496 593 z "},"r":{"ha":665,"x_min":58,"x_max":665,"o":"m 506 432 q 487 433 497 432 q 467 435 476 433 q 450 441 457 438 q 443 450 443 444 q 444 483 443 468 q 446 515 446 499 q 438 565 446 546 q 404 585 429 585 q 340 534 365 585 q 307 382 314 483 q 299 281 304 338 q 290 173 294 225 q 283 81 286 121 q 281 28 281 40 q 271 7 281 14 q 250 0 261 0 l 200 0 q 130 9 157 0 q 87 35 103 18 q 65 76 71 51 q 58 132 58 100 q 60 191 58 153 q 68 297 63 229 q 81 467 74 364 q 100 724 89 571 q 129 764 103 764 l 183 764 q 249 756 222 764 q 292 733 275 747 q 316 699 308 718 q 326 658 324 679 q 366 713 343 690 q 414 751 389 736 q 465 772 439 765 q 514 778 492 778 q 567 768 540 778 q 617 739 594 758 q 652 689 639 719 q 665 617 665 658 q 654 546 665 579 q 622 487 643 513 q 572 447 601 461 q 506 432 542 432 z "},"ı":{"ha":389,"x_min":57,"x_max":324,"o":"m 199 0 q 128 9 156 0 q 85 35 101 18 q 63 76 69 51 q 57 132 57 100 q 59 191 57 153 q 67 297 61 229 q 80 467 72 364 q 99 724 88 571 q 105 759 101 754 q 128 764 108 764 l 182 764 q 252 756 225 764 q 295 731 279 747 q 317 690 311 714 q 324 638 324 667 q 321 575 324 617 q 313 462 318 533 q 300 284 308 390 q 279 28 292 178 q 272 6 278 11 q 249 0 267 0 l 199 0 z "},"l":{"ha":419,"x_min":57,"x_max":379,"o":"m 218 -12 q 94 33 132 -12 q 57 185 57 79 q 59 226 57 201 q 65 291 61 251 q 74 389 68 331 q 85 531 79 447 q 99 726 92 614 q 115 988 107 839 q 122 1024 117 1018 q 144 1028 126 1028 l 199 1028 q 268 1018 240 1028 q 313 992 296 1008 q 336 953 329 975 q 343 908 343 932 q 340 828 343 881 q 331 711 336 776 q 319 575 325 646 q 308 440 314 504 q 299 324 303 375 q 296 246 296 272 q 309 194 296 210 q 338 173 322 179 q 366 165 353 167 q 379 156 379 163 q 372 95 379 125 q 347 41 365 65 q 298 2 329 17 q 218 -12 267 -12 z "},"t":{"ha":554,"x_min":36,"x_max":540,"o":"m 356 576 q 347 472 351 524 q 338 375 342 421 q 331 293 333 329 q 329 238 329 257 q 338 190 329 201 q 365 178 346 178 q 392 183 381 178 q 413 196 403 189 q 430 208 422 203 q 447 214 438 214 q 465 203 457 214 q 474 151 474 192 q 432 31 474 75 q 289 -14 390 -14 q 141 33 189 -14 q 93 175 93 79 q 95 224 93 196 q 101 299 97 253 q 112 411 106 344 q 125 576 118 478 l 51 576 q 38 581 40 576 q 36 596 36 586 l 40 667 q 45 702 42 685 q 59 733 49 719 q 89 756 69 747 q 140 764 108 764 q 163 824 150 789 q 188 891 175 858 q 212 946 200 924 q 233 968 224 968 l 274 968 q 354 932 332 968 q 376 846 376 896 q 372 764 376 818 l 518 764 q 540 744 540 764 l 535 669 q 512 602 532 628 q 429 576 492 576 l 356 576 z "},"g":{"ha":843,"x_min":46,"x_max":778,"o":"m 511 164 q 426 72 476 101 q 301 42 376 42 q 197 60 244 42 q 117 117 150 78 q 65 215 83 156 q 46 356 46 274 q 60 497 46 422 q 110 633 74 571 q 211 737 147 696 q 375 778 275 778 q 447 769 417 778 q 498 744 476 760 q 533 708 519 729 q 553 664 546 688 q 553 674 553 663 q 556 701 554 686 q 558 731 557 717 q 558 750 558 746 q 576 764 560 764 l 640 764 q 745 734 713 764 q 778 621 778 704 q 776 570 778 610 q 772 475 775 531 q 763 352 768 419 q 750 217 757 285 q 735 86 743 149 q 717 -24 726 24 q 683 -115 707 -71 q 617 -194 660 -160 q 506 -250 574 -229 q 342 -271 439 -271 q 213 -257 268 -271 q 122 -220 158 -243 q 67 -168 86 -197 q 49 -110 49 -139 q 60 -64 49 -83 q 89 -32 71 -44 q 128 -13 107 -19 q 169 -7 150 -7 q 204 -21 193 -7 q 229 -52 215 -35 q 268 -83 243 -69 q 346 -97 293 -97 q 474 -30 438 -97 q 511 164 511 38 m 394 226 q 473 250 444 226 q 517 307 501 274 q 536 376 532 340 q 540 439 540 413 q 515 558 540 522 q 438 593 489 593 q 357 565 386 593 q 313 499 328 538 q 294 423 299 461 q 290 364 290 385 q 314 260 290 294 q 394 226 338 226 z "},"q":{"ha":846,"x_min":44,"x_max":783,"o":"m 383 778 q 494 744 451 778 q 550 658 538 710 q 551 683 550 665 q 554 718 551 700 q 563 750 557 736 q 576 764 568 764 l 639 764 q 747 733 710 764 q 783 644 783 703 q 782 610 783 632 q 776 548 781 588 q 767 447 772 508 q 756 292 763 385 q 740 73 749 200 q 721 -224 731 -54 q 692 -264 719 -264 l 638 -264 q 568 -254 596 -264 q 524 -228 540 -244 q 500 -190 507 -211 q 493 -143 493 -168 q 498 -51 493 -119 q 510 108 503 17 q 426 19 478 51 q 294 -14 374 -14 q 192 5 238 -14 q 113 65 146 24 q 63 170 81 106 q 44 326 44 235 q 133 664 44 550 q 383 778 221 778 m 433 593 q 356 567 385 593 q 312 502 326 540 q 293 422 297 464 q 289 350 289 381 q 315 213 289 254 q 393 171 340 171 q 472 203 443 171 q 516 277 501 235 q 535 363 531 319 q 539 432 539 407 q 515 552 539 511 q 433 593 492 593 z "},"y":{"ha":847,"x_min":44,"x_max":782,"o":"m 322 636 q 318 560 322 604 q 309 473 314 517 q 300 391 304 429 q 296 332 296 353 q 322 253 296 279 q 385 228 347 228 q 489 296 450 228 q 538 476 528 364 l 560 736 q 570 758 561 751 q 590 764 579 764 l 640 764 q 695 759 669 764 q 740 741 721 754 q 771 706 760 728 q 782 649 782 683 q 780 597 782 635 q 773 487 778 558 q 760 306 768 415 q 740 40 751 197 q 699 -112 733 -51 q 614 -208 665 -172 q 499 -257 563 -243 q 368 -271 435 -271 q 238 -258 297 -271 q 136 -224 179 -246 q 69 -172 93 -201 q 44 -110 44 -143 q 56 -64 44 -83 q 88 -32 68 -44 q 133 -13 107 -19 q 186 -7 158 -7 q 206 -21 200 -7 q 226 -52 213 -35 q 268 -83 239 -69 q 356 -97 297 -97 q 439 -72 407 -97 q 488 -8 471 -47 q 511 76 506 31 q 517 164 517 122 q 467 101 494 125 q 411 63 440 76 q 353 46 382 50 q 297 42 324 42 q 203 56 246 42 q 131 101 161 69 q 83 182 100 132 q 67 303 67 232 q 69 373 67 329 q 76 472 72 417 q 85 590 81 526 q 96 721 90 654 q 135 764 99 764 l 179 764 q 251 756 224 764 q 295 731 279 747 q 317 691 311 715 q 322 636 322 667 z "},"ȷ":{"ha":388,"x_min":-207,"x_max":325,"o":"m 99 743 q 104 761 99 756 q 129 764 107 764 l 179 764 q 241 755 214 764 q 287 733 268 746 q 315 703 306 719 q 325 669 325 686 q 323 624 325 661 q 317 533 321 588 q 308 412 313 478 q 298 278 303 346 q 288 149 293 211 q 281 40 283 86 q 249 -119 274 -58 q 190 -213 225 -179 q 113 -259 156 -247 q 24 -271 69 -271 q -58 -263 -17 -271 q -132 -240 -99 -256 q -186 -201 -165 -225 q -207 -146 -207 -178 q -187 -93 -207 -112 q -140 -64 -167 -74 q -87 -51 -112 -54 q -49 -49 -61 -49 q -41 -56 -44 -49 q -33 -73 -37 -64 q -19 -90 -28 -82 q 4 -97 -11 -97 q 30 -84 21 -97 q 44 -40 39 -71 q 54 41 50 -10 q 63 168 58 92 l 99 743 z "},"d":{"ha":844,"x_min":42,"x_max":800,"o":"m 311 -14 q 208 6 257 -14 q 122 67 158 25 q 63 172 85 108 q 42 326 42 236 q 47 416 42 367 q 67 515 53 465 q 106 613 81 565 q 169 697 131 660 q 260 756 207 733 q 386 778 314 778 q 498 753 456 778 q 551 669 540 729 q 557 764 554 724 q 562 839 560 804 q 567 908 564 874 q 572 988 569 943 q 579 1024 574 1018 q 586 1027 582 1026 q 601 1028 590 1028 l 656 1028 q 725 1018 697 1028 q 769 992 753 1008 q 793 953 786 975 q 800 908 800 932 q 797 874 800 908 q 790 781 794 839 q 781 650 786 724 q 769 498 775 576 q 758 342 764 419 q 747 201 753 265 q 738 90 742 136 q 733 28 735 43 q 726 6 731 11 q 703 0 722 0 l 653 0 q 598 5 624 0 q 553 22 572 10 q 524 53 535 33 q 514 106 514 74 q 438 19 489 53 q 311 -14 388 -14 m 432 593 q 327 531 361 593 q 293 365 293 469 q 298 294 293 329 q 315 232 303 260 q 349 188 328 204 q 404 171 371 171 q 504 229 464 171 q 544 413 544 288 q 540 480 544 447 q 524 538 536 513 q 489 578 511 563 q 432 593 467 593 z "},"p":{"ha":850,"x_min":40,"x_max":800,"o":"m 538 778 q 734 697 668 778 q 800 443 800 617 q 775 250 800 335 q 706 106 750 165 q 601 17 661 47 q 472 -14 542 -14 q 357 18 399 -14 q 292 108 315 50 q 285 32 288 58 q 281 -10 282 6 q 278 -39 279 -26 q 276 -72 278 -51 q 271 -129 274 -93 q 263 -229 268 -165 q 256 -251 261 -246 q 232 -257 250 -257 l 182 -257 q 112 -248 139 -257 q 69 -222 85 -239 q 47 -181 53 -206 q 40 -125 40 -157 q 44 -50 40 -111 q 55 97 49 11 q 69 281 61 182 q 83 469 76 379 q 95 628 90 558 q 103 724 100 697 q 110 760 104 754 q 132 764 114 764 l 186 764 q 295 733 261 764 q 329 658 329 701 q 412 750 361 722 q 538 778 463 778 m 436 593 q 332 532 365 593 q 299 365 299 471 q 303 294 299 329 q 321 232 308 260 q 355 188 333 204 q 410 171 376 171 q 510 229 469 171 q 550 413 550 288 q 545 480 550 447 q 528 538 540 513 q 493 578 515 563 q 436 593 471 593 z "},"f":{"ha":626,"x_min":36,"x_max":724,"o":"m 344 481 q 338 390 342 439 q 329 292 333 342 q 322 196 325 243 q 315 113 318 149 q 310 53 313 76 q 308 28 308 29 q 301 6 307 11 q 278 0 296 0 l 228 0 q 123 35 153 0 q 93 142 93 71 q 95 183 93 150 q 101 263 97 217 q 108 367 104 310 q 117 481 113 424 l 51 481 q 36 496 36 481 q 38 528 36 507 q 40 571 39 550 q 45 605 42 588 q 58 635 49 622 q 85 658 67 649 q 132 668 103 667 l 138 724 q 172 875 146 814 q 239 973 197 936 q 338 1026 281 1010 q 467 1042 396 1042 q 585 1029 536 1042 q 665 994 635 1017 q 710 942 696 972 q 724 876 724 911 q 678 774 724 804 q 557 743 633 743 q 528 747 536 743 q 521 763 521 750 q 513 835 521 808 q 467 861 504 861 q 419 844 439 861 q 388 801 400 828 q 369 739 375 774 q 358 668 363 704 l 518 668 q 540 649 540 668 l 535 574 q 512 506 532 532 q 429 481 492 481 l 344 481 z "},"˙":{"ha":263,"x_min":0,"x_max":263,"o":"m 0 929 q 40 1017 0 985 q 149 1049 81 1049 q 235 1024 208 1049 q 263 960 263 1000 q 224 874 263 908 q 113 840 186 840 q 0 929 0 840 z "},"i":{"ha":390,"x_min":58,"x_max":364,"o":"m 200 0 q 130 9 157 0 q 87 35 103 18 q 65 76 71 51 q 58 132 58 100 q 60 191 58 153 q 68 297 63 229 q 81 467 74 364 q 100 724 89 571 q 107 760 101 754 q 129 764 111 764 l 183 764 q 253 756 226 764 q 297 731 281 747 q 319 690 313 714 q 325 638 325 667 q 322 575 325 617 q 315 462 319 533 q 301 284 310 390 q 281 28 293 178 q 274 6 279 11 q 250 0 268 0 l 200 0 m 101 928 q 142 1015 101 983 q 250 1047 182 1047 q 337 1023 310 1047 q 364 958 364 999 q 326 873 364 907 q 214 839 288 839 q 101 928 101 839 z "},"j":{"ha":388,"x_min":-207,"x_max":347,"o":"m 99 743 q 103 760 99 756 q 129 764 107 764 l 179 764 q 241 755 214 764 q 287 733 268 746 q 315 703 306 719 q 325 669 325 686 q 323 624 325 661 q 317 533 321 588 q 308 412 313 478 q 298 278 303 346 q 288 149 293 211 q 281 40 283 86 q 249 -119 274 -58 q 190 -213 225 -179 q 113 -259 156 -247 q 24 -271 69 -271 q -58 -263 -17 -271 q -132 -240 -99 -256 q -186 -201 -165 -225 q -207 -146 -207 -178 q -187 -93 -207 -112 q -140 -64 -167 -74 q -87 -51 -112 -54 q -49 -49 -61 -49 q -41 -56 -44 -49 q -33 -73 -37 -64 q -19 -90 -28 -82 q 4 -97 -11 -97 q 30 -84 21 -97 q 44 -40 39 -71 q 54 41 50 -10 q 63 168 58 92 l 99 743 m 85 928 q 125 1015 85 983 q 233 1047 165 1047 q 320 1023 293 1047 q 347 958 347 999 q 309 873 347 907 q 197 839 271 839 q 85 928 85 839 z "},"k":{"ha":749,"x_min":56,"x_max":717,"o":"m 717 113 q 710 85 717 106 q 688 42 703 64 q 649 3 672 19 q 594 -14 626 -14 q 520 11 557 -14 q 447 79 483 36 q 374 181 411 122 q 300 310 338 240 q 289 165 294 236 q 278 28 283 94 q 271 6 276 11 q 247 0 265 0 l 197 0 q 126 9 154 0 q 83 35 99 18 q 62 77 68 51 q 56 136 56 103 q 57 171 56 153 q 61 222 58 189 q 69 310 64 256 q 81 453 74 364 q 97 672 88 542 q 117 988 106 801 q 124 1024 118 1018 q 146 1028 128 1028 l 200 1028 q 271 1018 243 1028 q 315 992 299 1008 q 338 953 332 975 q 344 907 344 931 q 342 860 344 893 q 338 781 340 828 q 330 676 335 735 q 321 554 325 618 l 543 757 q 566 772 556 768 q 582 776 576 776 q 615 757 597 776 q 649 712 633 738 q 676 659 665 686 q 686 615 686 632 q 622 531 686 575 q 426 431 557 486 q 538 311 485 365 q 630 215 590 257 q 693 147 669 174 q 717 113 717 121 z "},"c":{"ha":706,"x_min":40,"x_max":685,"o":"m 407 171 q 477 182 447 171 q 529 207 507 193 q 567 232 551 221 q 594 243 582 243 q 626 201 626 243 q 622 174 626 192 q 611 138 618 157 q 597 103 604 119 q 582 78 589 86 q 558 56 575 71 q 511 25 540 40 q 443 -2 482 10 q 357 -14 404 -14 q 248 2 304 -14 q 146 58 192 18 q 70 165 100 97 q 40 333 40 232 q 45 416 40 369 q 65 512 50 463 q 106 609 81 561 q 175 694 132 657 q 278 755 218 732 q 422 778 339 778 q 540 762 490 778 q 621 719 589 746 q 669 656 653 692 q 685 578 685 619 q 638 467 685 503 q 504 432 590 432 q 476 435 483 432 q 468 451 468 439 q 467 511 468 485 q 459 556 465 538 q 440 583 453 574 q 404 593 428 593 q 335 565 361 593 q 297 498 310 538 q 280 417 283 458 q 276 347 276 375 q 308 210 276 249 q 407 171 339 171 z "},"n":{"ha":860,"x_min":57,"x_max":793,"o":"m 531 122 q 535 202 531 153 q 545 306 540 251 q 555 413 550 361 q 560 499 560 464 q 542 563 560 535 q 475 592 525 592 q 394 568 426 592 q 341 482 363 544 q 306 310 319 419 q 279 28 292 200 q 272 6 278 11 q 249 0 267 0 l 199 0 q 128 9 156 0 q 85 35 101 18 q 63 76 69 51 q 57 132 57 100 q 59 191 57 153 q 67 297 61 229 q 80 467 72 364 q 99 724 88 571 q 106 760 100 754 q 128 764 110 764 l 182 764 q 251 754 224 764 q 294 728 278 744 q 318 691 311 713 q 326 647 325 669 q 425 749 369 721 q 564 778 481 778 q 665 765 622 778 q 737 723 708 753 q 779 645 765 693 q 793 526 793 597 q 790 463 793 504 q 783 372 788 421 q 774 269 779 322 q 765 169 769 215 q 758 89 761 124 q 756 43 756 54 q 749 6 756 13 q 718 0 742 0 l 674 0 q 601 8 629 0 q 558 32 574 17 q 537 70 543 47 q 531 122 531 93 z "},"e":{"ha":739,"x_min":39,"x_max":713,"o":"m 378 -14 q 256 1 317 -14 q 148 54 196 17 q 69 154 100 92 q 39 311 39 217 q 44 394 39 346 q 66 494 50 443 q 110 597 82 546 q 185 688 139 647 q 296 753 231 728 q 451 778 361 778 q 574 761 524 778 q 654 716 624 744 q 699 650 685 688 q 713 569 713 613 q 687 461 713 506 q 620 387 661 417 q 529 340 579 357 q 431 315 479 324 q 341 303 382 306 q 278 301 300 301 q 285 249 278 275 q 308 204 293 224 q 349 172 324 185 q 410 160 374 160 q 466 172 446 160 q 499 198 486 183 q 520 224 511 213 q 544 236 529 236 q 569 233 551 236 q 604 218 586 229 q 636 188 622 207 q 650 138 650 168 q 625 68 650 97 q 560 21 600 39 q 472 -6 521 3 q 378 -14 424 -14 m 404 593 q 352 576 374 593 q 316 532 331 558 q 294 474 301 506 q 282 413 286 442 q 422 442 368 414 q 475 521 475 469 q 458 571 475 549 q 404 593 440 593 z "},"s":{"ha":653,"x_min":14,"x_max":610,"o":"m 381 778 q 554 731 499 778 q 610 613 610 685 q 572 519 610 551 q 461 488 533 488 q 435 492 442 488 q 428 507 428 496 q 426 535 428 519 q 416 566 424 551 q 392 590 408 581 q 347 600 376 600 q 285 581 308 600 q 261 535 261 563 q 285 488 261 506 q 347 456 310 471 q 426 424 383 440 q 506 382 469 408 q 567 316 543 356 q 592 214 592 276 q 521 50 592 114 q 308 -14 450 -14 q 219 -8 269 -14 q 122 12 168 -1 q 45 47 76 25 q 14 103 14 69 q 19 133 14 115 q 34 168 24 151 q 59 197 44 185 q 94 208 74 208 q 125 200 111 208 q 158 183 139 192 q 204 165 176 174 q 278 157 232 157 q 340 165 313 157 q 367 203 367 174 q 344 245 367 229 q 288 275 322 261 q 215 305 254 289 q 141 347 175 321 q 85 415 107 374 q 63 521 63 456 q 91 641 63 592 q 165 721 119 690 q 267 765 210 751 q 381 778 324 778 z "},"v":{"ha":778,"x_min":13,"x_max":763,"o":"m 375 176 q 406 292 392 235 q 435 413 421 349 q 467 555 450 478 q 508 731 485 632 q 521 756 513 750 q 557 763 529 763 q 613 761 578 763 q 681 751 647 760 q 738 726 714 743 q 763 681 763 710 q 746 604 763 657 q 703 484 729 551 q 644 343 676 417 q 581 204 611 269 q 524 90 550 139 q 485 21 497 40 q 465 3 474 6 q 438 0 457 0 l 314 0 q 266 10 285 0 q 235 38 247 21 q 214 76 222 54 q 199 121 206 97 q 128 359 158 260 q 78 525 99 458 q 44 631 57 592 q 25 692 32 671 q 15 722 18 714 q 13 732 13 729 q 26 753 14 742 q 58 764 39 764 q 167 759 122 764 q 242 742 213 754 q 288 707 272 729 q 311 649 304 685 q 317 610 313 639 q 326 540 321 581 q 338 449 331 499 q 351 351 344 400 q 363 256 357 301 q 375 176 369 210 z "},"w":{"ha":1165,"x_min":22,"x_max":1150,"o":"m 801 149 q 833 326 819 250 q 855 457 846 401 q 870 553 864 513 q 881 624 876 593 q 890 680 886 656 q 897 731 893 704 q 912 754 900 746 q 957 763 924 763 q 1008 760 975 763 q 1072 750 1040 758 q 1127 724 1104 742 q 1150 676 1150 707 q 1138 610 1150 654 q 1106 510 1125 567 q 1061 388 1086 453 q 1010 260 1036 324 q 961 140 985 197 q 921 42 938 83 q 899 8 910 17 q 863 0 889 0 l 781 0 q 717 10 742 0 q 676 36 692 19 q 653 74 661 53 q 640 121 644 96 q 611 311 626 192 q 583 593 596 431 q 567 511 576 563 q 548 400 558 460 q 526 278 538 340 q 506 162 515 215 q 488 70 496 108 q 474 21 479 32 q 456 3 467 7 q 426 0 446 0 l 329 0 q 267 10 293 0 q 223 38 242 21 q 192 76 204 54 q 175 121 181 97 q 60 569 99 418 q 22 732 22 721 q 35 754 22 744 q 67 764 47 764 q 169 759 126 764 q 241 742 213 754 q 285 707 269 729 q 304 649 300 685 q 310 569 306 629 q 319 434 314 510 q 328 281 324 358 q 338 149 333 203 q 365 286 354 235 q 382 372 375 338 q 394 433 389 407 q 406 496 399 460 q 422 586 413 532 q 447 731 431 640 q 521 764 453 764 q 601 761 564 764 q 668 748 639 758 q 718 717 697 738 q 747 663 739 697 q 752 643 750 653 q 757 615 754 633 q 763 565 760 597 q 772 479 767 533 q 783 344 776 425 q 801 149 790 264 z "},"x":{"ha":771,"x_min":15,"x_max":732,"o":"m 428 513 q 485 597 457 550 q 537 683 513 643 q 581 749 561 722 q 613 776 600 776 q 641 761 622 776 q 678 722 660 746 q 711 669 697 699 q 725 610 725 639 q 665 495 725 550 q 510 374 606 440 q 611 222 569 285 q 680 119 653 160 q 719 56 707 78 q 732 25 732 33 q 721 8 732 15 q 690 0 710 0 l 596 0 q 478 35 524 0 q 400 136 432 69 l 344 247 q 258 139 292 188 q 201 56 224 90 q 165 3 179 22 q 138 -15 151 -15 q 108 -6 128 -15 q 67 23 88 4 q 31 69 46 42 q 15 132 15 96 q 29 191 15 163 q 73 248 43 219 q 149 308 103 276 q 260 379 194 340 q 176 522 214 461 q 110 626 138 583 q 68 694 83 668 q 53 735 53 721 q 72 756 53 749 q 140 764 90 764 q 231 755 194 764 q 292 729 267 746 q 333 689 317 713 q 364 636 349 665 l 428 513 z "},"H":{"ha":936,"x_min":71,"x_max":871,"o":"m 715 0 q 604 31 638 0 q 571 118 571 61 q 576 226 571 149 q 589 401 582 304 l 342 401 l 314 21 q 308 5 313 10 q 292 0 304 0 l 215 0 q 104 31 138 0 q 71 118 71 61 q 75 213 71 146 q 86 367 79 281 q 100 549 93 453 q 114 729 107 644 q 125 878 121 814 q 129 965 129 942 q 151 986 129 986 l 228 986 q 342 950 313 986 q 371 843 371 914 q 367 765 371 832 q 356 603 363 697 l 604 603 q 613 722 608 664 q 622 829 618 781 q 627 913 625 878 q 629 965 629 949 q 651 986 629 986 l 728 986 q 842 950 813 986 q 871 843 871 914 q 869 799 871 836 q 863 704 867 761 q 853 577 858 647 q 844 433 849 507 q 834 290 839 360 q 825 163 829 219 q 818 67 821 106 q 814 21 815 29 q 808 5 813 10 q 792 0 804 0 l 715 0 z "},"a":{"ha":782,"x_min":15,"x_max":754,"o":"m 15 171 q 128 367 15 296 q 460 443 240 438 q 462 469 461 458 q 463 494 463 479 q 446 565 463 539 q 376 592 429 592 q 329 583 347 592 q 300 560 311 575 q 282 525 289 546 q 269 479 275 504 q 257 463 267 467 q 226 460 247 460 q 85 567 85 460 q 105 649 85 610 q 165 716 125 688 q 264 761 204 744 q 403 778 324 778 q 626 714 557 778 q 696 533 696 650 q 692 478 696 518 q 684 395 689 439 q 676 313 679 351 q 672 258 672 274 q 685 209 672 224 q 713 189 697 194 q 742 181 729 183 q 754 167 754 178 q 746 104 754 136 q 719 46 738 72 q 667 3 700 19 q 588 -14 635 -14 q 488 18 521 -14 q 443 107 454 50 q 356 22 410 58 q 217 -14 303 -14 q 138 -4 175 -14 q 74 28 101 6 q 31 85 47 50 q 15 171 15 121 m 447 329 q 376 324 411 329 q 315 306 342 318 q 271 275 288 294 q 254 228 254 256 q 274 183 254 196 q 318 171 294 171 q 363 181 340 171 q 402 210 385 190 q 432 260 419 231 q 447 329 444 289 z "},"m":{"ha":1253,"x_min":57,"x_max":1186,"o":"m 297 250 q 288 128 293 186 q 279 28 282 71 q 272 6 278 11 q 249 0 267 0 l 199 0 q 128 9 156 0 q 85 35 101 18 q 63 76 69 51 q 57 132 57 100 q 59 191 57 153 q 67 297 61 229 q 80 467 72 364 q 99 724 88 571 q 106 760 100 754 q 128 764 110 764 l 182 764 q 250 754 224 764 q 293 729 276 744 q 317 693 310 714 q 325 650 324 672 q 417 751 365 725 q 538 778 468 778 q 610 771 575 778 q 672 747 644 764 q 719 703 700 731 q 747 635 739 676 q 842 747 790 715 q 971 778 893 778 q 1053 769 1014 778 q 1122 738 1093 760 q 1169 677 1151 715 q 1186 582 1186 639 q 1182 476 1186 539 q 1172 341 1178 414 q 1160 191 1167 268 q 1149 43 1153 114 q 1146 19 1147 28 q 1141 7 1144 11 q 1131 1 1138 3 q 1111 0 1124 0 l 1067 0 q 994 8 1022 0 q 951 32 967 17 q 930 70 936 47 q 924 122 924 93 q 926 174 924 140 q 931 246 928 207 q 938 326 935 285 q 945 403 942 368 q 951 465 949 439 q 953 500 953 492 q 938 564 953 536 q 882 592 924 592 q 819 568 846 592 q 775 503 793 544 q 746 404 757 461 q 731 281 735 347 q 724 182 728 238 q 714 43 719 126 q 711 19 713 28 q 706 7 710 11 q 696 1 703 3 q 676 0 689 0 l 632 0 q 560 8 588 0 q 517 32 532 17 q 495 70 501 47 q 489 122 489 93 q 494 203 489 150 q 503 315 499 257 q 513 424 508 372 q 518 500 518 476 q 503 564 518 536 q 447 592 489 592 q 383 564 410 592 q 340 490 357 536 q 312 381 322 443 q 297 250 301 318 z "},"z":{"ha":713,"x_min":3,"x_max":688,"o":"m 18 0 q 3 15 3 0 l 7 90 q 33 163 8 128 q 101 249 57 197 q 211 378 146 300 q 363 583 276 457 l 101 583 q 88 588 90 583 q 86 603 86 593 l 90 667 q 95 702 92 685 q 109 733 99 719 q 139 756 119 747 q 190 764 158 764 l 665 764 q 681 760 674 764 q 688 744 688 756 l 682 669 q 654 596 681 635 q 618 551 650 589 q 540 456 586 514 q 437 327 493 399 q 326 181 381 256 l 624 181 q 639 176 632 181 q 646 161 646 172 l 640 93 q 617 26 638 51 q 535 0 597 0 l 18 0 z "},"I":{"ha":436,"x_min":71,"x_max":371,"o":"m 215 0 q 104 31 138 0 q 71 118 71 61 q 75 213 71 146 q 86 367 79 281 q 100 549 93 453 q 114 729 107 644 q 125 878 121 814 q 129 965 129 942 q 151 986 129 986 l 228 986 q 342 950 313 986 q 371 843 371 914 q 369 799 371 836 q 363 704 367 761 q 353 577 358 647 q 344 433 349 507 q 334 290 339 360 q 325 163 329 219 q 318 67 321 106 q 314 21 315 29 q 308 5 313 10 q 292 0 304 0 l 215 0 z "},"E":{"ha":696,"x_min":71,"x_max":663,"o":"m 215 0 q 104 31 138 0 q 71 118 71 61 q 75 213 71 146 q 86 367 79 281 q 100 549 93 453 q 114 729 107 644 q 125 878 121 814 q 129 965 129 942 q 151 986 129 986 l 640 986 q 656 982 649 986 q 663 967 663 978 l 657 885 q 634 817 654 843 q 551 792 614 792 l 360 792 l 346 596 l 543 596 q 558 592 551 596 q 565 576 565 588 l 560 494 q 537 427 557 453 q 454 401 517 401 l 333 401 l 318 194 l 624 194 q 639 190 632 194 q 646 175 646 185 l 640 93 q 617 26 638 51 q 535 0 597 0 l 215 0 z "},"L":{"ha":622,"x_min":71,"x_max":590,"o":"m 215 0 q 104 31 138 0 q 71 118 71 61 q 75 213 71 146 q 86 367 79 281 q 100 549 93 453 q 114 729 107 644 q 125 878 121 814 q 129 965 129 942 q 151 986 129 986 l 228 986 q 335 956 306 986 q 365 868 365 926 q 365 856 365 861 q 364 843 364 850 l 318 194 l 568 194 q 583 190 576 194 q 590 175 590 185 l 585 93 q 562 26 582 51 q 479 0 542 0 l 215 0 z "},"B":{"ha":840,"x_min":71,"x_max":786,"o":"m 344 -14 q 210 -3 263 -14 q 126 27 157 7 q 83 78 94 47 q 71 150 71 108 q 72 185 71 163 q 76 250 74 208 q 84 358 79 292 q 97 524 89 424 q 113 719 107 647 q 121 831 118 792 q 124 887 124 871 q 125 914 125 903 q 126 950 125 936 q 128 972 126 964 q 135 983 131 979 q 150 986 140 986 q 290 994 232 992 q 390 997 347 997 q 572 980 496 997 q 694 931 647 963 q 764 851 742 899 q 786 744 786 804 q 779 676 786 711 q 756 608 772 640 q 710 552 739 576 q 639 517 682 528 q 753 434 719 492 q 786 297 786 376 q 765 177 786 233 q 693 78 744 121 q 557 11 642 36 q 344 -14 472 -14 m 424 417 q 386 415 408 417 q 340 408 364 413 l 325 182 q 415 167 375 167 q 485 179 458 167 q 526 210 511 192 q 545 252 540 229 q 550 294 550 275 q 522 381 550 346 q 424 417 493 417 m 365 799 q 360 714 363 763 q 354 608 358 665 q 433 597 399 597 q 500 607 475 597 q 540 632 525 617 q 559 665 554 647 q 564 700 564 683 q 535 774 564 743 q 438 806 507 806 q 403 803 422 806 q 365 799 385 801 z "},"D":{"ha":925,"x_min":71,"x_max":876,"o":"m 128 965 q 137 981 129 976 q 151 986 144 986 q 328 992 246 986 q 458 999 411 999 q 656 975 576 999 q 785 901 736 951 q 856 772 835 851 q 876 582 876 693 q 853 362 876 469 q 774 171 831 254 q 620 37 717 88 q 376 -14 524 -14 q 252 -11 308 -14 q 156 6 196 -8 q 93 47 115 19 q 71 124 71 75 q 73 178 71 142 q 78 264 75 214 q 87 374 82 314 q 97 501 92 435 q 115 721 108 639 q 123 849 121 803 q 126 919 125 896 q 128 965 126 943 m 386 206 q 510 239 464 206 q 582 324 557 272 q 615 436 607 375 q 624 551 624 497 q 616 653 624 610 q 590 726 608 697 q 538 770 571 756 q 454 785 504 785 q 415 783 439 785 q 358 779 392 782 q 351 658 356 728 q 342 510 347 588 q 332 355 338 433 q 321 210 326 276 q 358 206 342 207 q 386 206 375 206 z "},"F":{"ha":644,"x_min":71,"x_max":663,"o":"m 333 401 l 307 21 q 305 5 306 10 q 292 0 304 0 l 215 0 q 104 31 138 0 q 71 118 71 61 q 75 213 71 146 q 86 367 79 281 q 100 549 93 453 q 114 729 107 644 q 125 878 121 814 q 129 965 129 942 q 151 986 129 986 l 640 986 q 656 982 649 986 q 663 967 663 978 l 657 885 q 634 817 654 843 q 551 792 614 792 l 360 792 l 346 596 l 543 596 q 558 592 551 596 q 565 576 565 588 l 560 494 q 537 427 557 453 q 454 401 517 401 l 333 401 z "},"K":{"ha":865,"x_min":71,"x_max":832,"o":"m 831 90 q 817 62 831 79 q 781 28 804 44 q 728 -1 758 11 q 665 -14 699 -14 q 575 19 614 -14 q 505 108 536 51 q 447 244 474 165 q 393 414 421 322 l 340 379 l 314 21 q 308 5 313 10 q 292 0 304 0 l 215 0 q 103 31 136 0 q 71 124 71 63 q 73 183 71 143 q 79 276 75 222 q 88 393 83 329 q 99 524 93 457 q 115 735 108 657 q 124 858 121 813 q 128 924 126 903 q 129 965 129 946 q 151 986 129 986 l 228 986 q 299 977 272 986 q 342 951 326 968 q 363 910 357 935 q 368 854 368 886 q 365 751 368 822 q 354 590 361 679 q 467 735 401 649 q 628 947 533 821 q 640 962 632 953 q 656 979 647 971 q 676 994 665 988 q 696 1000 686 1000 q 738 981 714 1000 q 782 935 761 963 q 817 880 803 908 q 832 832 832 851 q 760 712 832 792 q 553 528 688 632 q 607 441 576 488 q 668 347 638 394 q 728 253 699 299 q 780 173 757 208 q 817 115 803 138 q 831 90 831 93 z "},"M":{"ha":1261,"x_min":71,"x_max":1193,"o":"m 951 740 q 923 653 940 707 q 885 536 906 600 q 842 401 864 472 q 797 261 819 329 q 751 131 774 193 q 711 24 729 69 q 688 6 706 13 q 633 0 671 0 q 585 3 610 0 q 538 14 560 6 q 501 36 517 22 q 476 71 485 50 q 437 228 456 142 q 400 406 418 315 q 365 583 382 496 q 329 740 347 669 q 328 674 329 721 q 325 564 326 626 q 322 429 324 501 q 318 288 319 357 q 315 160 317 219 q 314 64 314 101 q 309 11 314 22 q 292 0 304 0 l 215 0 q 103 31 136 0 q 71 124 71 63 q 73 180 71 140 q 79 274 75 219 q 88 392 83 328 q 99 524 93 457 q 110 674 106 614 q 118 775 115 735 q 123 840 121 815 q 126 885 125 865 q 127 922 126 904 q 128 965 128 939 q 136 981 128 976 q 151 986 144 986 l 346 986 q 435 969 400 986 q 492 915 469 951 q 528 822 514 879 q 553 685 542 764 q 580 502 565 606 q 618 269 594 399 q 656 413 640 356 q 681 508 671 469 q 699 571 692 546 q 711 617 706 596 q 724 664 717 639 q 740 726 731 689 q 765 820 750 764 q 801 963 779 876 q 811 978 804 971 q 836 986 818 986 l 1053 986 q 1124 977 1097 986 q 1167 951 1151 968 q 1188 910 1182 935 q 1193 854 1193 886 q 1190 751 1193 822 q 1180 590 1186 679 q 1167 404 1174 500 q 1155 226 1161 308 q 1144 88 1149 144 q 1139 21 1140 31 q 1133 5 1138 10 q 1117 0 1129 0 l 1040 0 q 928 31 961 0 q 896 113 896 63 q 899 168 896 128 q 908 263 903 208 q 921 381 914 317 q 933 510 928 446 q 944 634 939 574 q 951 740 949 694 z "},"N":{"ha":956,"x_min":71,"x_max":889,"o":"m 693 0 q 608 17 636 0 q 568 58 581 33 q 433 343 496 207 q 304 618 369 479 q 308 319 306 468 q 314 21 311 171 q 292 0 314 0 l 215 0 q 103 31 136 0 q 71 124 71 63 q 73 180 71 140 q 79 274 75 219 q 88 392 83 328 q 99 524 93 457 q 113 699 107 629 q 122 816 118 768 q 126 898 125 864 q 129 965 128 932 q 151 986 129 986 l 263 986 q 338 976 308 986 q 385 947 367 965 q 415 906 404 929 q 436 858 426 883 q 495 710 469 772 q 540 600 521 647 q 574 518 560 553 q 601 454 589 483 q 626 398 614 425 q 653 339 639 371 q 652 508 653 421 q 651 677 651 594 q 649 836 650 760 q 649 974 649 913 q 672 986 649 986 l 749 986 q 822 977 794 986 q 864 951 849 968 q 884 908 879 933 q 889 851 889 883 q 885 745 889 817 q 875 585 881 674 q 863 401 869 496 q 849 225 856 306 q 838 88 843 144 q 832 22 833 32 q 824 6 832 11 q 807 0 817 0 l 693 0 z "},"P":{"ha":817,"x_min":71,"x_max":801,"o":"m 215 0 q 103 31 136 0 q 71 124 71 63 q 73 181 71 142 q 79 275 75 221 q 88 393 83 329 q 99 524 93 457 q 110 665 106 606 q 118 766 115 724 q 123 837 121 808 q 126 887 125 865 q 127 926 126 908 q 128 965 128 944 q 135 981 128 976 q 149 986 142 986 q 228 988 185 986 q 314 993 271 990 q 397 998 357 996 q 468 1000 438 1000 q 621 978 557 1000 q 724 916 685 957 q 783 817 764 875 q 801 683 801 758 q 780 526 801 601 q 713 392 758 450 q 594 299 667 333 q 422 264 522 264 q 321 276 363 264 l 301 21 q 296 5 300 10 q 279 0 292 0 l 215 0 m 440 792 q 400 790 422 792 q 353 785 378 788 q 346 643 350 726 q 335 468 342 560 q 376 460 356 463 q 413 458 396 458 q 491 481 461 458 q 538 538 521 504 q 560 607 554 571 q 565 669 565 643 q 538 760 565 729 q 440 792 511 792 z "},"R":{"ha":857,"x_min":71,"x_max":803,"o":"m 215 0 q 103 31 136 0 q 71 124 71 63 q 73 180 71 140 q 79 274 75 219 q 88 392 83 328 q 99 524 93 457 q 115 751 110 664 q 122 889 119 839 q 131 969 126 951 q 149 986 135 986 q 237 988 192 986 q 324 993 282 990 q 402 998 365 996 q 468 1000 439 1000 q 621 978 557 1000 q 724 915 685 956 q 783 818 764 875 q 801 690 801 761 q 758 497 801 582 q 621 368 715 413 l 738 201 q 786 128 769 154 q 803 90 803 103 q 791 63 803 81 q 756 28 779 46 q 701 -1 733 11 q 628 -14 668 -14 q 551 15 583 -14 q 492 92 518 44 q 448 203 467 140 q 413 333 429 265 q 331 343 363 336 q 322 226 326 282 q 315 127 318 171 q 310 55 313 83 q 307 21 307 26 q 301 5 306 10 q 285 0 297 0 l 215 0 m 440 792 q 403 790 424 792 q 358 785 382 788 q 352 669 356 736 q 343 525 349 601 q 428 514 392 514 q 498 531 471 514 q 540 572 525 547 q 560 624 556 596 q 565 674 565 651 q 538 761 565 731 q 440 792 510 792 z "},"U":{"ha":915,"x_min":79,"x_max":861,"o":"m 838 453 q 825 360 833 411 q 799 258 817 310 q 753 157 782 206 q 678 70 724 108 q 567 9 632 32 q 414 -14 503 -14 q 260 12 324 -14 q 156 83 196 38 q 97 188 115 128 q 79 315 79 247 q 82 398 79 346 q 90 511 85 450 q 100 638 94 572 q 110 764 106 704 q 119 872 115 824 q 125 944 124 919 q 132 978 126 971 q 149 986 138 986 l 225 986 q 339 950 310 986 q 368 843 368 914 q 366 806 368 839 q 360 726 364 774 q 353 624 357 679 q 347 518 350 568 q 341 431 343 468 q 339 381 339 393 q 341 326 339 357 q 352 268 343 296 q 381 222 361 240 q 439 203 401 203 q 516 235 486 203 q 562 311 546 267 q 584 401 578 356 q 593 476 590 447 q 605 622 599 547 q 616 763 611 697 q 624 876 621 828 q 626 943 626 925 q 631 978 626 971 q 649 986 635 986 l 725 986 q 799 978 772 986 q 840 956 826 969 q 858 924 854 942 q 861 886 861 906 q 859 818 861 868 q 854 704 857 768 q 847 572 851 640 q 838 453 843 504 z "},"C":{"ha":857,"x_min":54,"x_max":842,"o":"m 488 203 q 584 219 544 203 q 651 257 624 236 q 701 294 679 278 q 744 311 722 311 q 772 269 772 311 q 767 216 772 247 q 751 146 761 185 q 724 94 746 122 q 665 42 703 67 q 573 2 628 18 q 447 -14 518 -14 q 306 7 376 -14 q 179 78 235 28 q 89 213 124 128 q 54 425 54 297 q 60 531 54 471 q 85 656 67 592 q 135 781 103 719 q 219 892 168 843 q 345 970 271 940 q 522 1000 419 1000 q 665 981 604 1000 q 765 927 725 961 q 823 847 804 893 q 842 750 842 801 q 790 620 842 661 q 642 579 738 579 q 603 584 611 579 q 596 604 596 589 q 593 686 594 651 q 583 744 592 721 q 558 777 575 767 q 510 788 540 788 q 434 769 465 788 q 381 720 403 750 q 347 653 360 690 q 326 576 333 615 q 316 501 318 538 q 314 439 314 465 q 356 257 314 311 q 488 203 399 203 z "},"O":{"ha":988,"x_min":56,"x_max":942,"o":"m 563 1001 q 736 973 664 1001 q 854 890 808 944 q 921 756 900 835 q 942 578 942 678 q 934 457 942 522 q 906 326 926 392 q 851 199 886 260 q 762 90 817 138 q 631 15 707 43 q 450 -14 554 -14 q 259 21 335 -14 q 138 115 183 56 q 74 254 93 174 q 56 426 56 335 q 81 638 56 535 q 165 822 106 742 q 321 952 224 903 q 563 1001 418 1001 m 533 786 q 449 769 485 786 q 390 722 414 751 q 351 657 365 693 q 328 583 336 621 q 317 509 319 544 q 314 446 314 474 q 356 261 314 319 q 476 203 399 203 q 581 244 540 203 q 644 342 621 285 q 675 462 667 400 q 683 567 683 524 q 649 727 683 668 q 533 786 614 786 z "},"T":{"ha":756,"x_min":42,"x_max":782,"o":"m 521 792 l 468 21 q 453 0 467 0 l 376 0 q 265 31 299 0 q 232 118 232 61 q 234 181 232 139 q 240 278 236 222 q 249 401 244 335 q 260 534 254 467 q 270 668 265 601 q 279 792 275 735 l 57 792 q 42 811 42 792 l 46 889 q 52 924 47 907 q 68 956 57 942 q 97 978 79 969 q 139 986 114 986 l 760 986 q 775 982 768 986 q 782 967 782 978 l 776 885 q 753 817 774 843 q 671 792 733 792 l 521 792 z "},"Q":{"ha":947,"x_min":56,"x_max":900,"o":"m 757 -164 q 744 -192 757 -175 q 709 -227 732 -210 q 655 -257 686 -244 q 586 -269 624 -269 q 507 -249 540 -269 q 448 -194 474 -229 q 403 -112 422 -160 q 365 -10 383 -64 q 217 38 276 0 q 122 133 157 75 q 71 266 86 192 q 56 425 56 340 q 80 637 56 533 q 160 822 104 740 q 308 952 217 903 q 535 1001 400 1001 q 703 973 633 1001 q 816 891 772 944 q 880 759 860 838 q 900 581 900 681 q 888 422 900 508 q 840 253 875 335 q 745 106 806 172 q 588 8 685 40 q 638 -39 608 -12 q 693 -90 667 -65 q 738 -134 719 -114 q 757 -164 757 -154 m 506 786 q 406 749 443 786 q 348 657 368 711 q 321 544 328 603 q 314 442 314 485 q 351 262 314 321 q 454 203 388 203 q 549 244 513 203 q 607 342 586 285 q 635 463 628 400 q 642 572 642 526 q 611 729 642 672 q 506 786 581 786 z "},"J":{"ha":665,"x_min":-10,"x_max":610,"o":"m 229 203 q 278 225 260 203 q 310 285 297 247 q 330 372 322 322 q 344 476 338 421 q 350 535 347 501 q 356 623 353 569 q 365 756 360 676 q 376 953 369 836 q 381 979 378 972 q 399 986 383 986 l 475 986 q 549 978 522 986 q 590 957 576 969 q 607 930 604 944 q 610 901 610 915 q 608 838 610 888 q 604 722 607 788 q 597 583 601 656 q 586 453 592 511 q 560 291 578 374 q 504 140 543 208 q 401 29 465 72 q 233 -14 336 -14 q 131 0 176 -14 q 55 38 86 14 q 7 95 24 63 q -10 164 -10 128 q 3 224 -10 197 q 39 269 17 251 q 90 297 61 288 q 149 307 118 307 q 160 291 157 307 q 170 255 164 275 q 189 219 176 235 q 229 203 201 203 z "},"G":{"ha":889,"x_min":57,"x_max":844,"o":"m 688 0 q 584 30 615 0 q 550 104 553 60 q 485 22 535 57 q 343 -14 436 -14 q 238 8 289 -14 q 146 79 186 29 q 81 213 106 129 q 57 419 57 296 q 63 528 57 467 q 85 655 68 590 q 135 781 103 719 q 222 892 168 843 q 353 970 275 940 q 539 1000 431 1000 q 666 985 610 1000 q 762 942 722 969 q 823 874 801 914 q 844 783 844 833 q 792 662 844 703 q 643 621 739 621 q 606 626 613 621 q 599 646 600 631 q 595 696 596 671 q 588 742 594 721 q 567 775 582 763 q 518 788 551 788 q 410 749 450 788 q 349 654 369 710 q 322 540 328 599 q 317 440 317 481 q 325 328 317 374 q 349 255 333 283 q 388 215 365 226 q 439 203 410 203 q 528 225 492 203 q 571 306 564 247 l 579 383 q 590 449 583 424 q 624 475 597 475 l 700 475 q 756 467 735 475 q 790 442 778 460 q 806 397 801 425 q 810 329 810 369 q 808 256 810 301 q 802 163 806 210 q 794 76 799 115 q 788 21 790 36 q 781 4 785 8 q 764 0 776 0 l 688 0 z "},"S":{"ha":751,"x_min":43,"x_max":710,"o":"m 453 1000 q 647 943 583 1000 q 710 794 710 886 q 667 676 710 717 q 543 635 624 635 q 511 640 518 635 q 504 660 504 644 q 502 696 504 674 q 492 739 500 718 q 465 774 483 760 q 415 789 447 789 q 336 762 371 789 q 301 692 301 735 q 330 631 301 654 q 401 587 358 607 q 495 546 444 567 q 589 491 546 525 q 660 406 632 457 q 689 278 689 356 q 669 163 689 217 q 609 70 649 110 q 509 8 569 31 q 368 -14 449 -14 q 240 1 299 -14 q 137 40 181 17 q 68 90 93 63 q 43 139 43 117 q 53 271 43 231 q 92 311 64 311 q 133 294 111 311 q 182 257 154 278 q 247 219 210 236 q 332 203 283 203 q 370 206 351 203 q 403 218 389 210 q 427 240 418 226 q 436 274 436 254 q 410 329 436 308 q 343 367 383 350 q 256 403 303 385 q 169 455 210 422 q 103 539 129 488 q 76 671 76 590 q 110 824 76 761 q 198 926 144 886 q 319 983 251 965 q 453 1000 386 1000 z "},"V":{"ha":865,"x_min":35,"x_max":861,"o":"m 426 207 q 476 378 456 304 q 518 529 497 451 q 563 704 539 607 q 622 946 586 801 q 638 980 629 972 q 679 988 647 988 q 723 985 693 988 q 783 973 753 983 q 838 942 814 963 q 861 885 861 922 q 842 783 861 851 q 794 626 824 714 q 730 444 765 539 q 660 264 694 349 q 597 115 625 179 q 554 26 568 51 q 500 0 539 0 l 354 0 q 297 13 319 0 q 258 49 274 26 q 233 99 243 71 q 217 157 224 128 q 135 499 169 354 q 79 742 101 644 q 46 893 57 840 q 35 958 35 946 q 57 981 35 974 q 132 989 79 989 q 223 978 188 989 q 280 947 258 967 q 312 899 301 926 q 326 840 322 872 q 335 784 331 817 q 349 685 339 751 q 378 505 360 618 q 426 207 396 392 z "},"A":{"ha":860,"x_min":8,"x_max":832,"o":"m 508 986 q 566 973 543 986 q 604 938 589 960 q 629 889 619 917 q 646 832 639 861 q 738 461 701 607 q 794 226 774 315 q 824 93 815 136 q 832 33 832 50 q 823 7 832 14 q 794 0 814 0 l 724 0 q 628 15 664 0 q 574 57 593 29 q 547 124 556 85 q 533 214 539 164 l 292 214 l 246 22 q 214 0 239 0 l 140 0 q 94 5 118 0 q 52 21 71 10 q 21 49 33 32 q 8 92 8 67 q 28 192 8 122 q 77 349 47 261 q 144 534 107 438 q 215 717 181 631 q 278 868 250 803 q 322 960 307 933 q 342 983 333 979 q 376 986 351 986 l 508 986 m 342 415 l 501 415 l 443 782 l 342 415 z "},"W":{"ha":1314,"x_min":44,"x_max":1300,"o":"m 928 207 q 953 335 942 281 q 972 438 964 390 q 988 531 981 485 q 1005 635 996 578 q 1026 767 1014 693 q 1054 946 1038 842 q 1068 980 1058 972 q 1117 988 1078 988 q 1163 985 1132 988 q 1224 973 1193 983 q 1277 941 1254 963 q 1300 881 1300 919 q 1292 812 1300 858 q 1269 705 1283 765 q 1235 574 1254 644 q 1197 431 1217 503 q 1158 290 1178 358 q 1120 167 1138 222 q 1089 75 1103 113 q 1069 26 1075 38 q 1046 6 1061 11 q 1015 0 1031 0 l 883 0 q 823 14 847 0 q 783 50 799 28 q 758 100 767 72 q 746 157 749 128 l 676 781 q 658 643 668 719 q 635 488 647 567 q 613 332 624 408 q 590 192 601 256 q 569 85 579 129 q 553 26 560 40 q 531 6 546 11 q 499 0 515 0 l 367 0 q 309 13 332 0 q 271 49 286 26 q 246 99 256 71 q 229 157 236 128 q 137 529 172 383 q 81 763 101 675 q 52 892 60 851 q 44 951 44 933 q 59 982 44 975 q 121 989 74 989 q 219 981 179 989 q 283 955 258 972 q 322 909 308 938 q 339 840 335 881 q 340 824 339 835 q 344 790 342 814 q 351 726 346 767 q 363 617 356 685 q 383 448 371 549 q 411 207 394 347 q 435 344 426 292 q 451 435 444 396 q 464 512 458 475 q 477 603 469 549 q 495 742 485 658 q 522 958 506 825 q 534 974 524 968 q 560 982 544 979 q 594 985 575 985 q 629 986 613 986 q 724 980 685 986 q 788 958 763 974 q 829 917 814 943 q 854 854 844 892 q 864 805 858 836 q 877 706 869 774 q 897 519 885 638 q 928 207 908 400 z "},"Z":{"ha":769,"x_min":10,"x_max":750,"o":"m 25 0 q 10 15 10 0 l 14 90 q 18 122 15 103 q 31 153 21 140 q 88 246 54 196 q 168 368 121 296 q 278 542 215 440 q 425 792 342 644 l 108 792 q 95 796 97 792 q 93 811 93 800 l 97 889 q 102 924 99 907 q 116 956 106 942 q 146 978 126 969 q 197 986 165 986 l 728 986 q 743 982 736 986 q 750 967 750 978 l 744 892 q 728 832 742 856 q 688 766 724 825 q 596 617 651 707 q 472 415 540 526 q 333 194 403 304 l 686 194 q 701 190 694 194 q 708 175 708 186 l 703 93 q 680 26 700 51 q 597 0 660 0 l 25 0 z "},"Y":{"ha":846,"x_min":26,"x_max":853,"o":"m 411 0 q 297 33 328 0 q 267 133 267 65 q 269 210 267 157 q 282 374 272 263 q 263 410 271 394 q 246 442 254 425 q 228 481 238 458 q 203 536 218 503 q 149 656 179 588 q 92 787 119 724 q 45 899 64 850 q 26 960 26 947 q 119 989 26 989 q 213 977 178 989 q 271 945 249 965 q 304 898 293 925 q 325 840 315 871 q 343 781 338 800 q 352 749 349 761 q 360 724 356 736 q 372 688 364 713 q 393 618 379 663 q 432 496 407 574 q 497 633 472 581 q 539 731 521 686 q 573 824 557 776 q 614 946 589 872 q 631 980 622 972 q 660 988 640 988 q 698 985 667 988 q 763 975 729 983 q 825 949 797 967 q 853 900 853 931 q 837 833 853 876 q 795 737 821 790 q 735 624 769 683 q 665 507 701 564 q 594 402 629 450 q 529 324 558 354 q 526 244 528 290 q 520 153 524 199 q 514 72 517 108 q 510 21 511 35 q 504 5 508 10 q 488 0 500 0 l 411 0 z "},"X":{"ha":889,"x_min":19,"x_max":875,"o":"m 839 29 q 816 4 839 10 q 751 -1 793 -1 q 661 4 699 -1 q 598 21 624 10 q 556 48 572 32 q 529 86 539 64 l 413 329 q 317 178 364 254 q 214 18 269 103 q 194 0 211 14 q 157 -14 176 -14 q 113 8 138 -14 q 68 59 89 29 q 33 123 47 89 q 19 182 19 157 q 50 252 19 211 q 126 337 81 293 q 226 422 172 381 q 326 496 279 464 q 219 676 269 593 q 133 821 169 758 q 76 921 97 883 q 56 965 56 958 q 79 979 56 972 q 147 986 103 986 q 242 979 201 986 q 313 956 283 972 q 365 911 343 939 q 406 843 388 883 l 482 669 q 533 740 511 707 q 579 810 556 774 q 631 888 603 846 q 696 983 658 929 q 731 1000 708 1000 q 781 977 756 1000 q 828 923 807 954 q 862 859 849 892 q 875 807 875 826 q 842 740 875 781 q 763 657 810 700 q 663 573 715 614 q 569 506 610 532 q 613 428 586 472 q 669 337 639 385 q 729 241 699 289 q 784 151 760 193 q 824 77 808 110 q 839 29 839 44 z "},".":{"ha":349,"x_min":31,"x_max":275,"o":"m 167 247 q 250 219 225 247 q 275 139 275 190 q 269 91 275 118 q 249 41 264 64 q 208 2 235 18 q 139 -14 182 -14 q 53 19 75 -14 q 31 100 31 51 q 38 154 31 128 q 60 201 44 181 q 101 235 75 222 q 167 247 128 247 z "}," ":{"ha":299,"x_min":0,"x_max":0,"o":""},":":{"ha":388,"x_min":46,"x_max":325,"o":"m 182 247 q 265 219 240 247 q 290 139 290 190 q 285 91 290 118 q 265 41 279 64 q 224 2 250 18 q 154 -14 197 -14 q 68 19 90 -14 q 46 100 46 51 q 53 154 46 128 q 75 201 60 181 q 117 235 90 222 q 182 247 143 247 m 217 658 q 300 630 275 658 q 325 550 325 601 q 319 502 325 529 q 299 452 314 475 q 258 413 285 429 q 189 397 232 397 q 103 430 125 397 q 81 511 81 463 q 88 565 81 539 q 110 613 94 592 q 151 646 125 633 q 217 658 178 658 z "},";":{"ha":393,"x_min":44,"x_max":324,"o":"m 215 658 q 299 630 274 658 q 324 550 324 601 q 318 502 324 529 q 298 452 313 475 q 257 413 283 429 q 188 397 231 397 q 101 430 124 397 q 79 511 79 463 q 86 565 79 539 q 108 613 93 592 q 150 646 124 633 q 215 658 176 658 m 150 -14 q 70 14 93 -14 q 47 82 47 42 q 85 207 47 167 q 194 247 124 247 q 245 236 225 247 q 277 205 265 225 q 294 158 289 185 q 299 99 299 131 q 284 -32 299 32 q 244 -146 269 -96 q 185 -226 219 -196 q 110 -257 150 -257 q 76 -249 89 -257 q 56 -229 63 -242 q 47 -201 49 -217 q 44 -172 44 -186 q 60 -150 44 -164 q 96 -117 76 -136 q 132 -72 115 -97 q 150 -14 149 -46 z "},",":{"ha":360,"x_min":26,"x_max":281,"o":"m 132 -14 q 52 14 75 -14 q 29 82 29 42 q 67 207 29 167 q 176 247 106 247 q 227 236 207 247 q 259 205 247 225 q 276 158 271 185 q 281 99 281 131 q 266 -32 281 32 q 226 -146 251 -96 q 167 -226 201 -196 q 92 -257 132 -257 q 58 -249 71 -257 q 38 -229 44 -242 q 28 -201 31 -217 q 26 -172 26 -186 q 42 -150 26 -164 q 78 -117 58 -136 q 114 -72 97 -97 q 132 -14 131 -46 z "},"æ":{"ha":1149,"x_min":15,"x_max":1122,"o":"m 15 171 q 128 367 15 296 q 461 443 242 438 q 462 478 461 465 q 463 500 463 492 q 444 568 463 544 q 381 592 426 592 q 315 576 333 592 q 285 540 296 560 q 265 503 275 519 q 225 488 254 488 q 85 590 85 488 q 107 667 85 632 q 169 726 129 701 q 263 765 208 751 q 385 778 318 778 q 519 756 464 778 q 606 678 575 733 q 711 748 647 718 q 871 778 775 778 q 985 761 938 778 q 1064 716 1033 744 q 1108 649 1094 688 q 1122 568 1122 611 q 1096 459 1122 504 q 1027 384 1069 414 q 934 338 985 354 q 835 313 883 321 q 747 303 788 306 q 688 301 707 301 q 698 249 690 275 q 721 204 706 224 q 760 172 736 185 q 819 160 783 160 q 876 172 856 160 q 908 198 896 183 q 930 224 921 213 q 954 236 939 236 q 978 233 961 236 q 1014 218 996 229 q 1046 188 1032 207 q 1060 138 1060 168 q 1035 68 1060 97 q 970 21 1010 39 q 882 -6 931 3 q 788 -14 833 -14 q 636 11 711 -14 q 511 99 561 36 q 460 55 490 75 q 392 19 429 35 q 312 -5 354 4 q 225 -14 269 -14 q 74 29 132 -14 q 15 171 15 72 m 814 593 q 762 576 783 593 q 726 532 740 558 q 703 474 711 506 q 692 413 696 442 q 831 442 778 414 q 885 521 885 469 q 867 571 885 549 q 814 593 850 593 m 447 329 q 376 324 411 329 q 315 306 342 318 q 271 275 288 294 q 254 228 254 256 q 275 183 254 196 q 324 171 296 171 q 361 176 340 171 q 401 197 382 181 q 433 245 419 214 q 447 329 446 276 z "},"œ":{"ha":1240,"x_min":40,"x_max":1214,"o":"m 368 -14 q 209 13 272 -14 q 108 87 146 40 q 56 197 71 133 q 40 332 40 260 q 61 497 40 417 q 130 639 82 576 q 255 740 178 701 q 446 778 332 778 q 529 772 493 778 q 592 753 565 765 q 641 724 619 742 q 683 682 663 706 q 797 751 728 724 q 961 778 865 778 q 1077 761 1029 778 q 1156 716 1125 744 q 1200 649 1186 688 q 1214 568 1214 611 q 1188 459 1214 504 q 1119 384 1161 414 q 1026 338 1076 354 q 927 313 975 321 q 839 303 879 306 q 779 301 799 301 q 790 249 782 275 q 813 204 797 224 q 851 172 828 185 q 911 160 875 160 q 967 172 947 160 q 1000 198 988 183 q 1022 224 1013 213 q 1046 236 1031 236 q 1070 233 1053 236 q 1106 218 1088 229 q 1138 188 1124 207 q 1151 138 1151 168 q 1126 68 1151 97 q 1062 21 1101 39 q 974 -6 1022 3 q 878 -14 925 -14 q 747 14 811 -14 q 640 93 682 42 q 529 16 603 46 q 368 -14 456 -14 m 433 593 q 349 566 381 593 q 302 501 318 539 q 281 420 286 463 q 276 349 276 378 q 306 214 276 257 q 389 171 335 171 q 469 201 438 171 q 517 275 500 232 q 541 365 535 318 q 547 444 547 413 q 522 553 547 514 q 433 593 496 593 m 906 593 q 853 576 875 593 q 817 532 832 558 q 795 474 803 506 q 783 413 788 442 q 923 442 869 414 q 976 521 976 469 q 959 571 976 549 q 906 593 942 593 z "},"§":{"ha":717,"x_min":21,"x_max":681,"o":"m 453 1000 q 624 953 568 1000 q 681 835 681 907 q 642 742 681 774 q 532 710 604 710 q 504 714 510 710 q 499 729 499 718 q 497 758 499 742 q 487 788 494 774 q 463 813 479 803 q 419 822 447 822 q 350 801 381 822 q 319 744 319 781 q 345 693 319 711 q 408 661 371 675 q 491 633 446 647 q 574 597 536 619 q 637 535 611 574 q 663 435 663 497 q 628 313 663 368 q 517 231 593 258 q 574 172 550 207 q 599 74 599 136 q 581 -17 599 24 q 528 -89 564 -58 q 438 -136 492 -119 q 310 -153 383 -153 q 199 -143 251 -153 q 106 -118 146 -133 q 44 -86 67 -103 q 21 -54 21 -69 q 31 42 21 14 q 67 69 40 69 q 102 61 83 69 q 146 44 121 53 q 206 26 171 35 q 288 18 240 18 q 348 27 322 18 q 374 68 374 36 q 350 114 374 97 q 292 143 326 131 q 215 169 257 156 q 139 208 174 183 q 81 272 104 232 q 57 375 57 311 q 91 503 57 451 q 179 588 125 556 q 137 647 153 611 q 121 736 121 683 q 151 858 121 807 q 228 940 181 908 q 335 985 275 971 q 453 1000 394 1000 m 290 526 q 254 487 271 515 q 238 426 238 458 q 255 368 238 392 q 298 328 272 344 q 353 300 324 311 q 408 279 383 289 q 449 319 429 290 q 468 379 468 347 q 450 437 468 413 q 405 478 432 461 q 347 507 378 496 q 290 526 315 518 z "},"=":{"ha":754,"x_min":64,"x_max":688,"o":"m 129 492 q 114 507 114 492 l 118 582 q 123 617 119 600 q 137 649 126 635 q 167 671 147 663 q 218 679 186 679 l 665 679 q 688 660 688 679 l 682 585 q 659 517 679 543 q 576 492 639 492 l 129 492 m 79 131 q 64 146 64 131 l 68 221 q 73 256 69 239 q 87 288 76 274 q 117 310 97 301 q 168 318 136 318 l 615 318 q 638 299 638 318 l 632 224 q 609 156 629 182 q 526 131 589 131 l 79 131 z "},"!":{"ha":410,"x_min":40,"x_max":382,"o":"m 176 247 q 260 219 235 247 q 285 139 285 190 q 279 90 285 117 q 259 41 274 64 q 217 2 244 18 q 147 -14 190 -14 q 63 19 85 -14 q 40 100 40 51 q 47 154 40 128 q 69 201 54 181 q 111 235 85 222 q 176 247 138 247 m 207 344 q 150 353 172 344 q 115 378 128 361 q 98 422 103 396 q 93 481 93 447 q 94 508 93 493 q 97 544 94 522 q 101 600 99 567 q 107 685 103 633 q 117 811 111 738 q 129 988 122 885 q 136 1024 131 1018 q 158 1028 140 1028 l 240 1028 q 349 998 317 1028 q 382 928 382 968 q 377 862 382 903 q 364 771 372 821 q 345 666 356 721 q 324 558 335 611 q 304 456 314 504 q 288 372 294 407 q 278 350 285 356 q 257 344 272 344 l 207 344 z "},"¡":{"ha":397,"x_min":13,"x_max":354,"o":"m 218 524 q 135 552 160 524 q 110 632 110 581 q 115 681 110 654 q 135 730 121 707 q 177 769 150 753 q 247 785 204 785 q 332 752 310 785 q 354 671 354 719 q 347 617 354 643 q 325 569 340 590 q 283 536 310 549 q 218 524 257 524 m 188 426 q 278 392 256 426 q 301 290 301 358 q 301 263 301 278 q 299 226 300 249 q 294 171 297 204 q 288 85 292 138 q 278 -41 283 33 q 265 -217 272 -115 q 263 -241 264 -232 q 260 -253 263 -250 q 236 -257 256 -257 l 154 -257 q 45 -227 78 -257 q 13 -157 13 -197 q 17 -91 13 -132 q 31 0 22 -50 q 49 105 39 50 q 70 213 60 160 q 90 315 81 267 q 107 399 100 363 q 116 421 110 415 q 138 426 122 426 l 188 426 z "},"?":{"ha":733,"x_min":61,"x_max":719,"o":"m 326 247 q 410 219 385 247 q 435 139 435 190 q 429 90 435 117 q 409 41 424 64 q 367 2 394 18 q 297 -14 340 -14 q 213 19 235 -14 q 190 100 190 51 q 197 154 190 128 q 219 201 204 181 q 261 235 235 222 q 326 247 288 247 m 431 372 q 414 349 421 353 q 396 344 407 344 l 346 344 q 268 367 292 344 q 244 424 244 390 q 262 485 244 456 q 306 543 279 515 q 362 598 332 571 q 418 652 392 625 q 462 708 444 679 q 479 768 479 736 q 458 830 479 801 q 388 858 436 858 q 327 843 350 858 q 290 804 304 828 q 269 752 276 781 q 257 696 263 724 q 248 676 254 681 q 217 671 242 671 q 97 701 132 671 q 61 793 61 731 q 92 906 61 858 q 174 983 124 953 q 290 1028 225 1014 q 421 1043 354 1043 q 556 1023 500 1043 q 649 969 613 1003 q 702 890 685 935 q 719 796 719 844 q 683 665 719 722 q 599 560 647 608 q 502 467 550 511 q 431 372 454 422 z "},"¿":{"ha":729,"x_min":4,"x_max":663,"o":"m 397 524 q 314 552 339 524 q 289 632 289 581 q 294 681 289 654 q 315 730 300 707 q 356 769 329 753 q 426 785 383 785 q 511 752 489 785 q 533 671 533 719 q 526 617 533 643 q 504 569 519 590 q 463 536 489 549 q 397 524 436 524 m 293 399 q 309 422 303 418 q 328 426 315 426 l 378 426 q 456 403 432 426 q 479 347 479 381 q 462 285 479 315 q 418 228 444 256 q 362 173 392 200 q 306 119 332 146 q 262 63 279 92 q 244 3 244 33 q 266 -59 244 -31 q 336 -87 288 -87 q 397 -72 374 -87 q 433 -33 419 -57 q 454 19 447 -10 q 467 75 461 47 q 476 95 469 90 q 507 100 482 100 q 627 70 592 100 q 663 -22 663 40 q 631 -140 663 -92 q 549 -217 600 -187 q 434 -259 499 -246 q 303 -272 369 -272 q 77 -208 150 -272 q 4 -25 4 -143 q 40 106 4 49 q 125 211 76 163 q 222 304 174 260 q 293 399 269 349 z "},"-":{"ha":642,"x_min":67,"x_max":571,"o":"m 82 290 q 67 306 67 290 l 71 381 q 76 416 72 399 q 90 447 79 433 q 119 469 100 461 q 171 478 139 478 l 549 478 q 564 473 557 478 q 571 458 571 468 l 565 383 q 542 316 563 342 q 460 290 522 290 l 82 290 z "},"–":{"ha":856,"x_min":65,"x_max":783,"o":"m 81 290 q 65 306 65 290 l 69 381 q 74 416 71 399 q 88 447 78 433 q 118 469 99 461 q 169 478 138 478 l 761 478 q 776 473 769 478 q 783 458 783 468 l 778 383 q 755 316 775 342 q 672 290 735 290 l 81 290 z "},"—":{"ha":1247,"x_min":65,"x_max":1175,"o":"m 81 290 q 65 306 65 290 l 69 381 q 74 416 71 399 q 88 447 78 433 q 118 469 99 461 q 169 478 138 478 l 1153 478 q 1168 473 1161 478 q 1175 458 1175 468 l 1169 383 q 1147 316 1167 342 q 1064 290 1126 290 l 81 290 z "},"_":{"ha":731,"x_min":33,"x_max":621,"o":"m 49 -208 q 33 -193 33 -208 l 38 -118 q 42 -83 39 -100 q 56 -51 46 -65 q 86 -29 67 -37 q 138 -21 106 -21 l 599 -21 q 614 -26 607 -21 q 621 -40 621 -31 l 615 -115 q 592 -183 613 -157 q 510 -208 572 -208 l 49 -208 z "},"[":{"ha":556,"x_min":46,"x_max":567,"o":"m 158 -257 q 72 -225 97 -257 q 46 -139 46 -193 q 49 -83 46 -125 q 55 17 51 -42 q 63 146 58 76 q 74 285 68 215 q 83 417 79 354 q 92 524 88 479 q 103 674 97 596 q 113 820 108 753 q 121 938 118 888 q 124 1007 124 989 q 146 1028 124 1028 l 544 1028 q 560 1024 553 1028 q 567 1008 567 1019 l 561 926 q 538 859 558 885 q 456 833 518 833 l 328 833 q 321 731 325 794 q 312 590 317 668 q 301 426 307 513 q 289 252 294 339 q 277 84 283 165 q 267 -62 271 3 l 463 -62 q 478 -67 471 -62 q 485 -82 485 -71 l 479 -164 q 456 -231 476 -206 q 374 -257 436 -257 l 158 -257 z "},"(":{"ha":569,"x_min":42,"x_max":594,"o":"m 450 807 q 377 768 410 807 q 322 657 344 729 q 286 481 299 585 q 274 249 274 378 q 294 27 274 96 q 364 -42 314 -42 q 406 -33 386 -42 q 436 -25 425 -25 q 453 -38 447 -25 q 460 -87 460 -51 q 453 -153 460 -122 q 431 -207 447 -183 q 388 -244 415 -231 q 315 -258 360 -258 q 199 -229 250 -258 q 114 -137 149 -200 q 60 24 79 -75 q 42 263 42 122 q 72 583 42 442 q 158 822 103 724 q 292 971 214 919 q 464 1022 369 1022 q 568 1001 542 1022 q 594 940 594 981 q 590 909 594 933 q 577 858 585 885 q 560 810 569 831 q 542 789 551 789 q 503 798 529 789 q 450 807 478 807 z "},"]":{"ha":556,"x_min":-18,"x_max":503,"o":"m 386 1028 q 476 997 449 1028 q 503 910 503 967 q 500 854 503 896 q 494 753 497 813 q 485 625 490 694 q 475 486 481 556 q 465 354 469 417 q 457 247 460 292 q 446 96 451 174 q 435 -49 440 18 q 428 -167 431 -117 q 425 -236 425 -218 q 403 -257 425 -257 l 4 -257 q -18 -237 -18 -257 l -12 -156 q 10 -88 -10 -114 q 93 -62 31 -62 l 221 -62 l 281 833 l 86 833 q 64 853 64 833 l 69 935 q 92 1002 72 976 q 175 1028 113 1028 l 386 1028 z "},")":{"ha":582,"x_min":-33,"x_max":533,"o":"m 111 -43 q 184 -4 151 -43 q 240 107 217 35 q 275 283 263 179 q 288 515 288 386 q 267 737 288 668 q 197 806 247 806 q 156 797 175 806 q 125 789 136 789 q 108 802 114 789 q 101 851 101 815 q 108 916 101 885 q 130 971 114 947 q 174 1008 146 994 q 246 1022 201 1022 q 363 993 310 1022 q 454 901 417 964 q 513 740 492 839 q 533 501 533 642 q 501 181 533 322 q 410 -58 468 40 q 272 -207 351 -156 q 97 -258 192 -258 q -7 -237 19 -258 q -33 -176 -33 -217 q -28 -145 -33 -169 q -16 -94 -24 -121 q 1 -46 -8 -67 q 19 -25 10 -25 q 58 -34 32 -25 q 111 -43 83 -43 z "},"µ":{"ha":833,"x_min":46,"x_max":779,"o":"m 333 646 q 328 564 333 617 q 319 454 324 511 q 309 347 314 397 q 304 276 304 297 q 328 200 304 228 q 392 172 353 172 q 485 232 450 172 q 529 394 521 292 l 557 736 q 564 758 558 753 q 588 764 569 764 l 638 764 q 708 755 681 764 q 751 729 735 746 q 773 688 767 713 q 779 632 779 664 q 777 573 779 611 q 769 467 775 535 q 756 297 764 400 q 738 40 749 193 q 731 6 735 11 q 707 0 726 0 l 654 0 q 544 33 575 0 q 510 110 513 65 q 439 19 479 51 q 350 -14 399 -14 q 304 -6 325 -14 q 268 18 283 3 l 268 -229 q 262 -251 268 -246 q 238 -257 256 -257 l 188 -257 q 117 -249 144 -257 q 74 -224 90 -240 q 52 -183 58 -207 q 46 -126 46 -158 q 55 11 46 -82 q 72 247 64 104 q 76 295 74 260 q 81 377 78 331 q 88 476 83 424 q 95 578 92 529 q 101 665 99 626 q 107 721 104 703 q 117 758 110 751 q 146 764 125 764 l 190 764 q 261 756 233 764 q 305 732 289 747 q 327 695 321 717 q 333 646 333 674 z "},"μ":{"ha":839,"x_min":40,"x_max":774,"o":"m 328 646 q 323 564 328 617 q 313 454 318 511 q 303 347 308 397 q 299 276 299 297 q 323 200 299 228 q 386 172 347 172 q 480 232 444 172 q 524 394 515 292 l 551 736 q 558 758 553 753 q 582 764 564 764 l 632 764 q 702 755 675 764 q 745 729 729 746 q 767 688 761 713 q 774 632 774 664 q 772 573 774 611 q 764 467 769 535 q 751 297 758 400 q 732 40 743 193 q 725 6 729 11 q 701 0 721 0 l 649 0 q 538 33 569 0 q 504 110 507 65 q 433 19 474 51 q 344 -14 393 -14 q 299 -6 319 -14 q 263 18 278 3 l 263 -229 q 256 -251 263 -246 q 232 -257 250 -257 l 182 -257 q 112 -249 139 -257 q 69 -224 85 -240 q 47 -183 53 -207 q 40 -126 40 -158 q 49 11 40 -82 q 67 247 58 104 q 70 295 68 260 q 75 377 72 331 q 82 476 78 424 q 90 578 86 529 q 96 665 93 626 q 101 721 99 703 q 112 758 104 751 q 140 764 119 764 l 185 764 q 256 756 228 764 q 299 732 283 747 q 322 695 315 717 q 328 646 328 674 z "},"ĸ":{"ha":747,"x_min":54,"x_max":715,"o":"m 715 113 q 708 85 715 106 q 686 42 701 64 q 648 3 671 19 q 593 -14 625 -14 q 519 11 556 -14 q 446 80 482 36 q 373 183 410 124 q 299 311 336 242 q 286 172 292 244 q 276 28 281 100 q 269 6 275 11 q 246 0 264 0 l 196 0 q 125 9 153 0 q 82 35 97 18 q 60 77 67 51 q 54 136 54 103 q 59 217 54 161 q 71 351 64 274 q 85 524 78 429 q 99 724 93 619 q 104 759 100 754 q 128 764 108 764 l 182 764 q 253 754 225 764 q 297 728 281 744 q 320 689 314 711 q 326 643 326 667 q 325 608 326 629 q 321 557 324 586 q 343 576 331 565 q 380 610 356 588 q 442 667 404 632 q 542 757 481 701 q 565 772 554 768 q 581 776 575 776 q 614 757 596 776 q 648 712 632 738 q 674 659 664 686 q 685 615 685 632 q 620 531 685 575 q 425 431 556 486 q 536 311 483 365 q 628 215 589 257 q 692 147 668 174 q 715 113 715 121 z "},"Ŋ":{"ha":957,"x_min":71,"x_max":889,"o":"m 557 -97 q 589 -72 579 -97 q 606 21 599 -46 q 451 326 532 174 q 304 618 369 479 q 308 319 306 468 q 314 21 311 171 q 292 0 314 0 l 215 0 q 103 31 136 0 q 71 124 71 63 q 73 180 71 140 q 79 274 75 219 q 88 392 83 328 q 99 524 93 457 q 113 699 107 629 q 122 816 118 768 q 126 898 125 864 q 129 965 128 932 q 151 986 129 986 l 263 986 q 338 976 308 986 q 385 947 367 965 q 415 906 404 929 q 436 858 426 883 q 520 649 488 729 q 576 514 553 568 q 616 422 599 460 q 653 339 633 383 q 652 508 653 421 q 651 677 651 594 q 649 836 650 760 q 649 974 649 913 q 651 981 649 976 q 672 986 654 986 l 749 986 q 822 977 794 986 q 864 951 849 968 q 884 908 879 933 q 889 851 889 883 q 885 746 889 815 q 876 591 882 676 q 864 415 871 506 q 850 242 857 324 q 838 100 843 161 q 831 15 833 39 q 798 -128 822 -72 q 739 -216 774 -185 q 663 -259 704 -247 q 576 -271 621 -271 q 495 -263 536 -271 q 421 -240 454 -256 q 367 -201 388 -225 q 346 -146 346 -178 q 366 -93 346 -112 q 413 -64 386 -74 q 466 -51 440 -54 q 504 -49 492 -49 q 512 -56 508 -49 q 520 -73 515 -64 q 533 -90 525 -82 q 557 -97 542 -97 z "},"ŋ":{"ha":864,"x_min":58,"x_max":794,"o":"m 478 -97 q 543 48 528 -97 q 558 493 558 193 q 556 532 558 514 q 546 563 554 550 q 522 584 538 576 q 481 592 507 592 q 358 524 401 592 q 306 344 315 457 l 281 28 q 250 0 278 0 l 200 0 q 130 9 157 0 q 87 35 103 18 q 65 76 71 51 q 58 132 58 100 q 60 191 58 153 q 68 297 63 229 q 81 467 74 364 q 100 724 89 571 q 108 756 103 749 q 129 764 114 764 l 183 764 q 252 754 225 764 q 296 728 279 744 q 319 691 313 713 q 328 647 326 669 q 428 751 372 724 q 567 778 483 778 q 669 765 626 778 q 740 722 713 751 q 781 642 768 692 q 794 518 794 592 q 783 310 794 444 q 756 -10 772 176 q 726 -133 749 -83 q 670 -214 704 -183 q 592 -258 636 -244 q 497 -271 549 -271 q 417 -263 457 -271 q 344 -240 376 -256 q 290 -201 311 -225 q 269 -146 269 -178 q 290 -93 269 -112 q 337 -64 310 -74 q 390 -51 364 -54 q 428 -49 415 -49 q 435 -56 432 -49 q 444 -73 439 -64 q 457 -90 449 -82 q 478 -97 465 -97 z "},"þ":{"ha":849,"x_min":39,"x_max":799,"o":"m 39 -137 q 42 -56 39 -115 q 52 81 46 3 q 66 251 58 160 q 81 429 74 342 q 99 671 92 571 q 111 836 107 771 q 117 937 115 901 q 118 988 118 972 q 122 1023 118 1018 q 147 1028 126 1028 l 201 1028 q 271 1018 243 1028 q 315 992 299 1008 q 339 953 332 975 q 346 907 346 932 q 341 815 346 883 q 329 656 336 747 q 411 748 365 718 q 532 778 457 778 q 728 695 658 778 q 799 438 799 613 q 774 250 799 333 q 704 108 749 167 q 599 18 660 50 q 469 -14 539 -14 q 356 18 397 -14 q 290 108 314 50 q 282 32 285 58 q 278 -10 279 6 q 275 -39 276 -26 q 272 -72 274 -51 q 268 -129 271 -93 q 261 -229 265 -165 q 254 -251 260 -246 q 231 -257 249 -257 l 181 -257 q 70 -226 101 -257 q 39 -137 39 -196 m 549 413 q 524 544 549 496 q 438 593 500 593 q 364 568 392 593 q 322 507 336 543 q 302 431 307 471 q 297 360 297 390 q 302 292 297 326 q 319 231 307 258 q 353 188 332 204 q 408 171 375 171 q 508 229 468 171 q 549 413 549 288 z "},"Þ":{"ha":831,"x_min":71,"x_max":801,"o":"m 215 0 q 103 31 136 0 q 71 124 71 63 q 73 180 71 140 q 79 274 75 219 q 88 392 83 328 q 99 524 93 457 q 116 744 110 664 q 125 870 122 824 q 129 944 128 917 q 131 1007 131 972 q 139 1023 131 1018 q 154 1028 147 1028 l 231 1028 q 299 1019 274 1028 q 338 994 325 1010 q 355 957 351 979 q 358 908 358 935 q 358 890 358 900 q 357 869 358 881 q 418 874 389 872 q 475 876 447 876 q 624 854 563 876 q 726 791 686 832 q 783 691 765 750 q 801 558 801 632 q 780 402 801 478 q 713 268 758 326 q 594 175 667 210 q 422 140 522 140 q 361 144 388 140 q 311 156 335 149 q 306 72 308 103 q 300 24 303 40 q 292 4 297 8 q 276 0 286 0 l 215 0 m 440 668 q 347 660 399 668 l 326 346 q 413 335 375 335 q 491 358 461 335 q 538 414 521 381 q 560 483 554 447 q 565 546 565 519 q 538 637 565 606 q 440 668 511 668 z "},"ə":{"ha":740,"x_min":19,"x_max":693,"o":"m 19 196 q 26 261 19 229 q 42 320 32 293 q 63 368 51 347 q 85 400 74 389 q 182 421 128 413 q 289 435 236 429 q 387 443 342 440 q 456 447 432 446 q 448 501 454 474 q 426 552 442 529 q 386 590 411 575 q 322 604 361 604 q 271 592 289 604 q 242 566 253 581 q 222 540 231 551 q 201 528 214 528 q 177 531 194 528 q 142 546 160 535 q 110 576 124 557 q 96 626 96 594 q 119 696 96 667 q 181 743 143 725 q 264 769 218 761 q 354 778 310 778 q 475 763 414 778 q 584 710 536 747 q 663 610 632 672 q 693 451 693 547 q 688 368 693 417 q 666 268 682 319 q 621 166 650 217 q 546 76 592 115 q 435 11 500 36 q 279 -14 369 -14 q 158 3 207 -14 q 78 47 108 19 q 33 113 47 75 q 19 196 19 151 m 313 171 q 366 185 343 171 q 404 224 389 200 q 430 278 419 249 q 446 336 440 307 q 391 332 419 335 q 336 326 363 329 q 288 319 310 322 q 253 313 265 315 q 241 283 244 301 q 238 250 238 264 q 257 192 238 214 q 313 171 276 171 z "},"Ə":{"ha":940,"x_min":28,"x_max":893,"o":"m 28 282 q 43 404 28 340 q 76 518 58 468 q 223 544 140 533 q 385 562 306 554 q 533 574 465 569 q 635 579 600 578 q 594 735 633 683 q 469 788 554 788 q 386 769 415 788 q 340 728 357 750 q 310 687 322 706 q 275 668 297 668 q 245 672 267 668 q 200 690 224 676 q 158 729 176 704 q 140 796 140 754 q 171 886 140 847 q 253 951 201 925 q 371 989 304 976 q 508 1001 438 1001 q 650 985 581 1001 q 774 922 719 968 q 860 790 828 875 q 893 568 893 706 q 869 356 893 460 q 786 169 844 251 q 633 37 728 88 q 396 -14 538 -14 q 234 8 303 -14 q 119 70 165 31 q 51 164 74 110 q 28 282 28 218 m 424 203 q 501 222 468 203 q 558 272 535 242 q 595 342 581 303 q 618 421 610 381 q 530 415 576 418 q 440 407 483 411 q 360 398 397 403 q 303 390 324 393 q 288 351 292 375 q 283 314 283 328 q 296 265 283 286 q 328 231 308 244 q 373 210 347 217 q 424 203 399 203 z "},"{":{"ha":624,"x_min":3,"x_max":633,"o":"m 354 197 q 353 158 354 176 q 353 122 353 139 q 357 42 353 76 q 373 -16 361 7 q 407 -51 385 -39 q 467 -62 429 -62 l 531 -62 q 546 -67 539 -62 q 553 -82 553 -71 l 547 -164 q 543 -202 546 -185 q 531 -231 540 -219 q 504 -250 522 -243 q 456 -257 486 -257 l 356 -257 q 242 -233 285 -257 q 176 -172 199 -210 q 147 -88 154 -135 q 140 4 140 -42 q 142 67 140 38 q 143 126 143 97 q 139 190 143 160 q 122 242 135 219 q 86 277 110 264 q 25 290 63 290 q 3 310 3 290 l 13 465 q 22 481 14 476 q 38 485 29 485 q 108 507 81 485 q 150 571 135 529 q 174 672 165 613 q 190 804 182 731 q 275 970 201 913 q 468 1028 349 1028 l 592 1028 q 624 1015 615 1028 q 633 982 633 1003 l 629 926 q 618 876 626 894 q 596 849 610 858 q 564 838 582 840 q 524 833 546 835 q 453 815 479 829 q 413 776 428 801 q 392 714 399 751 q 381 626 386 676 q 344 497 372 556 q 249 401 315 438 q 299 369 279 390 q 332 320 319 347 q 349 261 344 293 q 354 197 354 229 z "},"}":{"ha":624,"x_min":-17,"x_max":614,"o":"m 263 574 q 263 613 263 594 q 264 649 264 632 q 260 729 264 694 q 244 787 256 764 q 210 822 232 810 q 150 833 188 833 l 86 833 q 71 838 78 833 q 64 853 64 842 l 69 935 q 92 1002 72 976 q 175 1028 113 1028 l 261 1028 q 375 1004 332 1028 q 440 943 418 981 q 469 859 463 906 q 476 767 476 813 q 475 703 476 733 q 474 644 474 674 q 478 581 474 611 q 494 529 482 551 q 531 494 507 507 q 592 481 554 481 q 614 461 614 481 l 604 306 q 595 290 603 294 q 579 286 588 286 q 508 263 535 286 q 467 199 482 240 q 443 98 451 157 q 426 -33 435 39 q 342 -199 415 -142 q 149 -257 268 -257 l 25 -257 q -8 -244 1 -257 q -17 -211 -17 -232 l -12 -156 q -3 -106 -11 -124 q 19 -78 6 -87 q 51 -67 33 -69 q 93 -62 69 -64 q 163 -44 138 -58 q 203 -6 189 -31 q 224 57 218 19 q 236 144 231 94 q 273 274 244 215 q 368 369 301 333 q 317 402 338 381 q 285 451 297 424 q 267 510 272 478 q 263 574 263 542 z "},"|":{"ha":382,"x_min":46,"x_max":326,"o":"m 188 -257 q 117 -248 144 -257 q 74 -222 90 -239 q 52 -181 58 -206 q 46 -125 46 -157 q 49 -54 46 -111 q 59 88 53 3 q 74 278 65 172 q 90 499 82 385 q 108 728 99 614 q 124 946 117 843 q 130 981 126 975 q 153 986 133 986 l 185 986 q 255 978 228 986 q 298 953 282 969 q 320 913 314 936 q 326 860 326 889 q 323 788 326 846 q 313 642 319 729 q 299 444 307 554 q 281 218 290 335 q 263 -14 272 101 q 246 -229 254 -129 q 239 -251 244 -246 q 215 -257 233 -257 l 188 -257 z "},"¦":{"ha":381,"x_min":44,"x_max":325,"o":"m 236 438 q 183 442 208 438 q 138 460 157 447 q 106 496 118 474 q 94 554 94 518 q 98 628 94 575 q 106 743 101 682 q 115 861 111 804 q 122 946 119 918 q 128 981 125 975 q 151 986 132 986 l 183 986 q 296 953 267 986 q 325 860 325 919 q 322 774 325 833 q 313 651 318 715 q 304 534 308 588 q 299 465 300 481 q 285 444 297 450 q 264 438 274 438 l 236 438 m 186 -257 q 133 -252 158 -257 q 88 -234 107 -247 q 56 -199 68 -221 q 44 -140 44 -176 q 48 -66 44 -119 q 56 49 51 -12 q 65 167 61 110 q 72 251 69 224 q 78 286 75 281 q 101 292 82 292 l 133 292 q 244 260 214 292 q 275 182 275 229 q 273 137 275 169 q 269 62 271 104 q 263 -28 267 19 q 257 -116 260 -75 q 251 -188 254 -157 q 249 -229 249 -219 q 235 -251 247 -244 q 214 -257 224 -257 l 186 -257 z "},"¬":{"ha":851,"x_min":50,"x_max":768,"o":"m 704 69 q 603 89 631 69 q 575 163 575 108 q 577 217 575 182 q 582 290 579 251 l 65 290 q 50 306 50 290 l 54 381 q 59 416 56 399 q 73 447 63 433 q 103 469 83 461 q 154 478 122 478 l 746 478 q 761 473 754 478 q 768 458 768 468 l 744 97 q 737 74 743 78 q 704 69 731 69 z "},"­":{"ha":642,"x_min":67,"x_max":571,"o":"m 82 290 q 67 306 67 290 l 71 381 q 76 416 72 399 q 90 447 79 433 q 119 469 100 461 q 171 478 139 478 l 549 478 q 564 473 557 478 q 571 458 571 468 l 565 383 q 542 316 563 342 q 460 290 522 290 l 82 290 z "},"¶":{"ha":817,"x_min":56,"x_max":756,"o":"m 739 989 q 751 986 747 989 q 756 972 756 983 q 751 910 756 961 q 742 790 747 858 q 730 649 736 722 q 719 519 724 575 l 683 28 q 676 6 682 11 q 650 0 669 0 q 573 34 593 0 q 553 129 553 68 q 556 198 553 144 q 565 325 560 251 q 577 483 571 399 q 590 647 583 568 q 601 788 596 725 q 607 879 606 850 l 554 879 q 551 831 554 868 q 544 744 549 794 q 534 634 539 693 q 525 519 529 575 l 489 28 q 481 6 488 11 q 456 0 475 0 q 378 34 399 0 q 358 129 358 68 q 365 257 358 176 q 378 425 372 338 q 346 421 363 422 q 314 419 329 419 q 195 440 244 419 q 115 495 146 460 q 69 579 83 531 q 56 686 56 628 q 135 915 56 829 q 367 1000 215 1000 q 558 994 463 1000 q 739 989 653 989 z "},"•":{"ha":510,"x_min":85,"x_max":419,"o":"m 263 568 q 380 526 340 568 q 419 419 419 483 q 412 361 419 394 q 384 298 404 328 q 329 247 364 268 q 239 226 294 226 q 167 240 197 226 q 119 274 138 253 q 93 324 101 296 q 85 382 85 351 q 95 449 85 415 q 127 508 106 482 q 182 551 149 535 q 263 568 215 568 z "},"ƒ":{"ha":760,"x_min":-128,"x_max":769,"o":"m 389 481 q 380 350 385 418 q 370 219 375 282 q 361 103 365 156 q 354 21 357 51 q 322 -126 346 -69 q 265 -215 299 -182 q 190 -259 232 -247 q 101 -271 149 -271 q 20 -263 61 -271 q -53 -240 -21 -256 q -107 -201 -86 -225 q -128 -146 -128 -178 q -108 -93 -128 -112 q -60 -64 -87 -74 q -7 -51 -33 -54 q 31 -49 19 -49 q 38 -56 33 -49 q 47 -73 42 -64 q 61 -90 53 -82 q 81 -97 69 -97 q 117 -60 106 -97 q 135 49 129 -24 q 146 231 142 122 q 161 481 150 339 l 97 481 q 82 499 82 481 q 83 523 82 506 q 86 571 83 540 q 91 604 88 588 q 103 635 94 621 q 130 658 113 649 q 176 668 147 667 l 183 724 q 217 874 193 813 q 283 975 242 936 q 380 1031 324 1014 q 511 1047 436 1047 q 631 1034 582 1047 q 711 997 681 1021 q 756 942 742 974 q 769 874 769 910 q 725 774 769 804 q 603 743 681 743 q 574 747 582 743 q 567 763 567 750 q 558 835 565 808 q 515 861 551 861 q 467 845 486 861 q 435 802 447 829 q 415 740 422 775 q 404 668 408 706 l 564 668 q 586 649 586 668 l 581 574 q 558 506 578 532 q 475 481 538 481 l 389 481 z "},"†":{"ha":674,"x_min":40,"x_max":656,"o":"m 442 485 q 428 309 435 401 q 414 124 421 217 q 399 -60 407 31 q 386 -229 392 -150 q 379 -251 385 -246 q 356 -257 374 -257 l 328 -257 q 258 -248 285 -257 q 215 -222 231 -239 q 192 -181 199 -206 q 186 -125 186 -157 q 190 -56 186 -111 q 199 81 193 -1 q 213 268 206 164 q 229 485 221 372 l 56 485 q 40 500 40 485 l 44 575 q 49 610 46 593 q 63 642 53 628 q 93 664 74 656 q 144 672 113 672 l 244 672 q 254 813 250 743 q 264 946 258 882 q 270 981 267 976 q 293 986 274 986 l 325 986 q 395 978 368 986 q 438 953 422 969 q 460 913 454 936 q 467 860 467 889 q 464 797 467 847 q 456 672 461 747 l 633 672 q 649 667 642 672 q 656 653 656 663 l 650 578 q 627 510 647 536 q 544 485 607 485 l 442 485 z "},"‡":{"ha":696,"x_min":21,"x_max":669,"o":"m 426 101 q 413 -70 419 14 q 400 -229 406 -154 q 393 -251 399 -246 q 369 -257 388 -257 l 342 -257 q 272 -248 299 -257 q 228 -222 244 -239 q 206 -181 213 -206 q 200 -125 200 -157 q 203 -49 200 -110 q 214 101 207 11 l 36 101 q 21 117 21 101 l 25 192 q 30 227 26 210 q 44 258 33 244 q 74 281 54 272 q 125 289 93 289 l 228 289 q 236 385 232 336 q 243 485 240 433 l 69 485 q 54 500 54 485 l 58 575 q 63 610 60 593 q 77 642 67 628 q 107 664 88 656 q 158 672 126 672 l 258 672 q 268 813 264 743 q 278 946 272 882 q 284 981 281 976 q 307 986 288 986 l 339 986 q 409 978 382 986 q 452 953 436 969 q 474 913 468 936 q 481 860 481 889 q 478 797 481 847 q 469 672 475 747 l 647 672 q 669 653 669 672 l 664 578 q 641 510 661 536 q 558 485 621 485 l 456 485 l 440 289 l 614 289 q 636 269 636 289 l 631 194 q 608 127 628 153 q 525 101 588 101 l 426 101 z "},"ð":{"ha":838,"x_min":22,"x_max":821,"o":"m 736 810 q 776 683 761 753 q 790 526 790 614 q 783 406 790 468 q 756 283 775 343 q 706 169 738 224 q 628 74 675 115 q 517 10 582 33 q 368 -14 453 -14 q 219 10 283 -14 q 110 78 154 35 q 44 183 67 122 q 22 315 22 243 q 51 462 22 401 q 124 560 79 522 q 223 616 168 599 q 331 633 278 633 q 418 619 382 633 q 477 588 454 606 q 512 555 500 571 q 525 536 524 539 q 535 559 531 543 q 539 607 539 575 q 535 663 539 633 q 519 724 531 693 q 439 690 469 703 q 392 671 408 678 q 369 662 375 664 q 361 660 363 660 q 349 672 356 660 q 336 702 342 685 q 327 738 331 719 q 324 767 324 756 q 337 808 324 786 q 383 843 350 831 q 397 848 390 846 q 410 853 403 850 q 350 873 383 865 q 276 881 317 881 q 267 908 271 892 q 264 939 264 924 q 305 1017 264 990 q 410 1043 346 1043 q 530 1019 468 1043 q 644 943 592 996 q 776 997 774 997 q 794 984 786 997 q 808 953 803 971 q 817 919 814 936 q 821 892 821 901 q 803 849 821 868 q 736 810 785 829 m 392 467 q 309 429 333 467 q 285 342 285 392 q 291 290 285 315 q 311 246 297 265 q 345 215 325 226 q 394 203 365 203 q 473 240 446 203 q 500 336 500 276 q 495 383 500 360 q 478 424 490 406 q 444 455 465 443 q 392 467 424 467 z "},"ċ":{"ha":706,"x_min":40,"x_max":685,"o":"m 407 171 q 477 182 447 171 q 529 207 507 193 q 567 232 551 221 q 594 243 582 243 q 626 201 626 243 q 622 174 626 192 q 611 138 618 157 q 597 103 604 119 q 582 78 589 86 q 558 56 575 71 q 511 25 540 40 q 443 -2 482 10 q 357 -14 404 -14 q 248 2 304 -14 q 146 58 192 18 q 70 165 100 97 q 40 333 40 232 q 45 416 40 369 q 65 512 50 463 q 106 609 81 561 q 175 694 132 657 q 278 755 218 732 q 422 778 339 778 q 540 762 490 778 q 621 719 589 746 q 669 656 653 692 q 685 578 685 619 q 638 467 685 503 q 504 432 590 432 q 476 435 483 432 q 468 451 468 439 q 467 511 468 485 q 459 556 465 538 q 440 583 453 574 q 404 593 428 593 q 335 565 361 593 q 297 498 310 538 q 280 417 283 458 q 276 347 276 375 q 308 210 276 249 q 407 171 339 171 m 321 929 q 361 1017 321 985 q 469 1049 401 1049 q 556 1024 529 1049 q 583 960 583 1000 q 545 874 583 908 q 433 840 507 840 q 321 929 321 840 z "},"ṅ":{"ha":860,"x_min":57,"x_max":793,"o":"m 531 122 q 535 202 531 153 q 545 306 540 251 q 555 413 550 361 q 560 499 560 464 q 542 563 560 535 q 475 592 525 592 q 394 568 426 592 q 341 482 363 544 q 306 310 319 419 q 279 28 292 200 q 272 6 278 11 q 249 0 267 0 l 199 0 q 128 9 156 0 q 85 35 101 18 q 63 76 69 51 q 57 132 57 100 q 59 191 57 153 q 67 297 61 229 q 80 467 72 364 q 99 724 88 571 q 106 760 100 754 q 128 764 110 764 l 182 764 q 251 754 224 764 q 294 728 278 744 q 318 691 311 713 q 326 647 325 669 q 425 749 369 721 q 564 778 481 778 q 665 765 622 778 q 737 723 708 753 q 779 645 765 693 q 793 526 793 597 q 790 463 793 504 q 783 372 788 421 q 774 269 779 322 q 765 169 769 215 q 758 89 761 124 q 756 43 756 54 q 749 6 756 13 q 718 0 742 0 l 674 0 q 601 8 629 0 q 558 32 574 17 q 537 70 543 47 q 531 122 531 93 m 360 929 q 400 1017 360 985 q 508 1049 440 1049 q 595 1024 568 1049 q 622 960 622 1000 q 584 874 622 908 q 472 840 546 840 q 360 929 360 840 z "},"ė":{"ha":739,"x_min":39,"x_max":713,"o":"m 378 -14 q 256 1 317 -14 q 148 54 196 17 q 69 154 100 92 q 39 311 39 217 q 44 394 39 346 q 66 494 50 443 q 110 597 82 546 q 185 688 139 647 q 296 753 231 728 q 451 778 361 778 q 574 761 524 778 q 654 716 624 744 q 699 650 685 688 q 713 569 713 613 q 687 461 713 506 q 620 387 661 417 q 529 340 579 357 q 431 315 479 324 q 341 303 382 306 q 278 301 300 301 q 285 249 278 275 q 308 204 293 224 q 349 172 324 185 q 410 160 374 160 q 466 172 446 160 q 499 198 486 183 q 520 224 511 213 q 544 236 529 236 q 569 233 551 236 q 604 218 586 229 q 636 188 622 207 q 650 138 650 168 q 625 68 650 97 q 560 21 600 39 q 472 -6 521 3 q 378 -14 424 -14 m 404 593 q 352 576 374 593 q 316 532 331 558 q 294 474 301 506 q 282 413 286 442 q 422 442 368 414 q 475 521 475 469 q 458 571 475 549 q 404 593 440 593 m 350 929 q 390 1017 350 985 q 499 1049 431 1049 q 585 1024 558 1049 q 613 960 613 1000 q 574 874 613 908 q 463 840 536 840 q 350 929 350 840 z "},"ż":{"ha":713,"x_min":3,"x_max":688,"o":"m 18 0 q 3 15 3 0 l 7 90 q 33 163 8 128 q 101 249 57 197 q 211 378 146 300 q 363 583 276 457 l 101 583 q 88 588 90 583 q 86 603 86 593 l 90 667 q 95 702 92 685 q 109 733 99 719 q 139 756 119 747 q 190 764 158 764 l 665 764 q 681 760 674 764 q 688 744 688 756 l 682 669 q 654 596 681 635 q 618 551 650 589 q 540 456 586 514 q 437 327 493 399 q 326 181 381 256 l 624 181 q 639 176 632 181 q 646 161 646 172 l 640 93 q 617 26 638 51 q 535 0 597 0 l 18 0 m 286 929 q 326 1017 286 985 q 435 1049 367 1049 q 522 1024 494 1049 q 549 960 549 1000 q 510 874 549 908 q 399 840 472 840 q 286 929 286 840 z "},"ġ":{"ha":843,"x_min":46,"x_max":778,"o":"m 511 164 q 426 72 476 101 q 301 42 376 42 q 197 60 244 42 q 117 117 150 78 q 65 215 83 156 q 46 356 46 274 q 60 497 46 422 q 110 633 74 571 q 211 737 147 696 q 375 778 275 778 q 447 769 417 778 q 498 744 476 760 q 533 708 519 729 q 553 664 546 688 q 553 674 553 663 q 556 701 554 686 q 558 731 557 717 q 558 750 558 746 q 576 764 560 764 l 640 764 q 745 734 713 764 q 778 621 778 704 q 776 570 778 610 q 772 475 775 531 q 763 352 768 419 q 750 217 757 285 q 735 86 743 149 q 717 -24 726 24 q 683 -115 707 -71 q 617 -194 660 -160 q 506 -250 574 -229 q 342 -271 439 -271 q 213 -257 268 -271 q 122 -220 158 -243 q 67 -168 86 -197 q 49 -110 49 -139 q 60 -64 49 -83 q 89 -32 71 -44 q 128 -13 107 -19 q 169 -7 150 -7 q 204 -21 193 -7 q 229 -52 215 -35 q 268 -83 243 -69 q 346 -97 293 -97 q 474 -30 438 -97 q 511 164 511 38 m 394 226 q 473 250 444 226 q 517 307 501 274 q 536 376 532 340 q 540 439 540 413 q 515 558 540 522 q 438 593 489 593 q 357 565 386 593 q 313 499 328 538 q 294 423 299 461 q 290 364 290 385 q 314 260 290 294 q 394 226 338 226 m 367 929 q 407 1017 367 985 q 515 1049 447 1049 q 602 1024 575 1049 q 629 960 629 1000 q 591 874 629 908 q 479 840 553 840 q 367 929 367 840 z "},"":{"ha":183,"x_min":14,"x_max":169,"o":"m 69 -182 q 26 -167 38 -182 q 14 -128 14 -151 q 35 -74 14 -92 q 96 -56 57 -56 q 155 -78 140 -56 q 169 -133 169 -101 q 162 -187 169 -161 q 141 -234 154 -214 q 108 -266 128 -254 q 67 -278 89 -278 q 32 -264 39 -278 q 25 -233 25 -250 q 32 -226 25 -232 q 47 -214 39 -221 q 63 -199 56 -207 q 69 -182 69 -190 z "},"˛":{"ha":281,"x_min":14,"x_max":267,"o":"m 267 26 q 210 -40 231 -8 q 189 -101 189 -72 q 200 -140 189 -125 q 225 -166 211 -156 q 250 -184 239 -176 q 261 -200 261 -192 q 251 -219 261 -207 q 222 -243 240 -232 q 179 -262 204 -254 q 124 -271 154 -271 q 40 -242 67 -271 q 14 -174 14 -214 q 56 -70 14 -124 q 199 42 99 -17 l 267 26 z "},"¸":{"ha":319,"x_min":14,"x_max":306,"o":"m 172 -56 q 270 -76 235 -56 q 306 -146 306 -96 q 258 -241 306 -204 q 136 -278 211 -278 q 99 -276 121 -278 q 59 -266 78 -274 q 27 -245 40 -258 q 14 -210 14 -232 q 22 -172 14 -192 q 40 -151 29 -151 q 52 -157 46 -151 q 67 -170 58 -162 q 90 -183 76 -178 q 121 -189 103 -189 q 154 -182 140 -189 q 168 -160 168 -175 q 152 -133 168 -143 q 116 -117 136 -124 q 80 -106 96 -111 q 64 -97 64 -101 q 68 -67 64 -86 q 78 -26 72 -47 q 91 13 85 -6 q 103 40 97 31 l 185 33 l 172 -56 z "},"‹":{"ha":499,"x_min":46,"x_max":449,"o":"m 158 382 q 236 344 206 358 q 291 318 267 329 q 340 297 315 307 q 403 269 365 286 q 417 249 417 264 q 413 198 417 229 q 401 137 410 167 q 377 85 392 107 q 342 64 363 64 q 276 89 318 64 q 191 148 235 114 q 110 217 147 182 q 57 272 72 253 q 48 287 50 281 q 46 300 46 293 q 49 354 46 314 q 56 447 53 394 q 62 475 57 465 q 82 497 67 485 q 158 552 108 518 q 263 619 208 586 q 364 676 317 651 q 432 700 411 700 q 449 681 449 700 q 444 594 449 631 q 429 533 439 558 q 405 492 419 508 q 372 463 390 475 q 328 440 354 451 q 272 417 301 428 q 213 397 243 407 q 158 382 183 388 z "},"›":{"ha":500,"x_min":43,"x_max":446,"o":"m 335 382 q 256 415 286 403 q 201 438 225 428 q 151 457 176 447 q 88 481 126 467 q 76 488 79 483 q 74 503 74 492 q 78 554 74 521 q 91 620 82 588 q 115 676 100 653 q 150 700 129 700 q 215 675 174 700 q 301 616 257 650 q 382 547 344 582 q 435 492 419 511 q 446 464 446 476 q 442 411 446 454 q 436 317 439 368 q 430 288 435 297 q 410 267 425 278 q 333 212 383 246 q 229 144 283 178 q 128 88 175 111 q 60 64 81 64 q 43 83 43 64 q 48 164 43 131 q 63 220 53 197 q 86 259 72 243 q 119 288 100 275 q 165 314 138 300 q 221 340 192 328 q 280 364 250 353 q 335 382 310 375 z "},"«":{"ha":915,"x_min":46,"x_max":865,"o":"m 158 382 q 236 344 206 358 q 291 318 267 329 q 340 297 315 307 q 403 269 365 286 q 417 249 417 264 q 413 198 417 229 q 401 137 410 167 q 377 85 392 107 q 342 64 363 64 q 276 89 318 64 q 191 148 235 114 q 110 217 147 182 q 57 272 72 253 q 48 287 50 281 q 46 300 46 293 q 49 354 46 314 q 56 447 53 394 q 62 475 57 465 q 82 497 67 485 q 158 552 108 518 q 263 619 208 586 q 364 676 317 651 q 432 700 411 700 q 449 681 449 700 q 444 594 449 631 q 429 533 439 558 q 405 492 419 508 q 372 463 390 475 q 328 440 354 451 q 272 417 301 428 q 213 397 243 407 q 158 382 183 388 m 575 382 q 653 344 622 358 q 708 318 683 329 q 757 297 732 307 q 819 269 782 286 q 833 249 833 264 q 830 198 833 229 q 817 137 826 167 q 794 85 808 107 q 758 64 779 64 q 693 89 735 64 q 608 148 651 114 q 526 217 564 182 q 474 272 489 253 q 465 287 467 281 q 463 300 463 293 q 466 354 463 314 q 472 447 469 394 q 478 475 474 465 q 499 497 483 485 q 575 552 525 518 q 679 619 625 586 q 781 676 733 651 q 849 700 828 700 q 865 681 865 700 q 860 594 865 631 q 846 533 856 558 q 822 492 836 508 q 789 463 807 475 q 744 440 771 451 q 689 417 718 428 q 630 397 660 407 q 575 382 600 388 z "},"»":{"ha":926,"x_min":43,"x_max":872,"o":"m 335 382 q 256 415 286 403 q 201 438 225 428 q 151 457 176 447 q 88 481 126 467 q 76 488 79 483 q 74 503 74 492 q 78 554 74 521 q 91 620 82 588 q 115 676 100 653 q 150 700 129 700 q 215 675 174 700 q 301 616 257 650 q 382 547 344 582 q 435 492 419 511 q 446 464 446 476 q 442 411 446 454 q 436 317 439 368 q 430 288 435 297 q 410 267 425 278 q 333 212 383 246 q 229 144 283 178 q 128 88 175 111 q 60 64 81 64 q 43 83 43 64 q 48 164 43 131 q 63 220 53 197 q 86 259 72 243 q 119 288 100 275 q 165 314 138 300 q 221 340 192 328 q 280 364 250 353 q 335 382 310 375 m 761 382 q 682 415 713 403 q 627 438 651 428 q 578 457 603 447 q 514 481 553 467 q 503 488 506 483 q 500 503 500 492 q 504 554 500 521 q 517 620 508 588 q 541 676 526 653 q 576 700 556 700 q 642 675 600 700 q 727 616 683 650 q 808 547 771 582 q 861 492 846 511 q 872 464 872 476 q 869 411 872 454 q 863 317 865 368 q 856 288 861 297 q 836 267 851 278 q 760 212 810 246 q 656 144 710 178 q 554 88 601 111 q 486 64 507 64 q 469 83 469 64 q 474 164 469 131 q 489 220 479 197 q 513 259 499 243 q 546 288 526 275 q 591 314 564 300 q 647 340 618 328 q 706 364 676 353 q 761 382 736 375 z "},"*":{"ha":644,"x_min":74,"x_max":626,"o":"m 408 724 q 472 651 444 679 q 500 596 500 624 q 488 560 500 579 q 458 523 476 540 q 416 494 439 506 q 371 482 393 482 q 335 497 346 482 q 320 540 324 513 q 317 603 317 567 q 315 682 317 640 q 282 628 296 653 q 254 585 268 603 q 226 556 240 567 q 190 546 211 546 q 149 555 169 546 q 111 577 128 564 q 84 607 94 590 q 74 639 74 624 q 89 672 74 657 q 129 700 104 688 q 186 725 154 713 q 251 753 218 738 q 175 769 206 764 q 125 783 144 775 q 97 806 106 792 q 89 846 89 819 q 97 898 89 875 q 119 937 106 921 q 147 961 132 953 q 174 969 161 969 q 203 958 189 969 q 234 930 218 947 q 268 889 250 913 q 307 840 286 865 q 300 889 303 858 q 297 936 297 919 q 415 1042 297 1042 q 479 1026 464 1042 q 494 990 494 1010 q 469 922 494 958 q 403 824 443 885 q 490 863 456 844 q 544 882 524 882 q 574 872 558 882 q 600 847 589 863 q 619 809 611 831 q 626 764 626 788 q 603 707 626 719 q 558 694 581 694 q 494 704 531 694 q 408 724 458 714 z "},"#":{"ha":958,"x_min":29,"x_max":936,"o":"m 653 0 q 582 9 608 0 q 541 35 556 18 q 522 76 526 51 q 517 132 517 100 l 529 250 l 364 250 l 336 28 q 306 0 332 0 q 235 9 261 0 q 194 35 208 18 q 174 76 179 51 q 169 132 169 100 l 182 250 l 44 250 q 29 265 29 250 q 35 317 29 292 q 53 362 40 343 q 86 392 65 381 q 138 404 107 404 l 201 404 q 222 568 210 476 l 89 568 q 74 583 74 568 q 97 683 74 644 q 182 722 121 722 l 240 722 q 254 831 247 775 q 268 946 261 888 q 304 986 272 986 q 413 956 385 986 q 440 871 440 925 q 435 828 440 868 q 422 722 431 789 l 588 722 q 601 831 594 775 q 615 946 608 888 q 651 986 619 986 q 760 956 732 986 q 788 871 788 925 q 783 828 788 868 q 769 722 778 789 l 914 722 q 929 717 922 722 q 936 703 936 713 l 932 661 q 906 594 928 619 q 821 568 883 568 l 751 568 l 731 404 l 869 404 q 885 399 878 404 q 892 385 892 394 l 888 343 q 861 276 883 301 q 776 250 839 250 l 711 250 l 683 28 q 653 0 679 0 m 383 404 l 549 404 q 569 568 557 476 l 404 568 l 383 404 z "},"Ĳ":{"ha":1064,"x_min":71,"x_max":1008,"o":"m 215 0 q 104 31 138 0 q 71 118 71 61 q 75 213 71 146 q 86 367 79 281 q 100 549 93 453 q 114 729 107 644 q 125 878 121 814 q 129 965 129 942 q 151 986 129 986 l 228 986 q 342 950 313 986 q 371 843 371 914 q 369 799 371 836 q 363 704 367 761 q 353 577 358 647 q 344 433 349 507 q 334 290 339 360 q 325 163 329 219 q 318 67 321 106 q 314 21 315 29 q 308 5 313 10 q 292 0 304 0 l 215 0 m 628 203 q 677 225 658 203 q 708 285 696 247 q 728 372 721 322 q 743 476 736 421 q 749 535 746 501 q 755 623 751 569 q 763 756 758 676 q 775 953 768 836 q 779 979 776 972 q 797 986 782 986 l 874 986 q 948 978 921 986 q 989 957 975 969 q 1006 930 1003 944 q 1008 901 1008 915 q 1007 838 1008 888 q 1003 722 1006 788 q 995 583 1000 656 q 985 453 990 511 q 959 291 976 374 q 903 140 942 208 q 799 29 864 72 q 632 -14 735 -14 q 530 0 575 -14 q 453 38 485 14 q 406 95 422 63 q 389 164 389 128 q 402 224 389 197 q 438 269 415 251 q 488 297 460 288 q 547 307 517 307 q 559 291 556 307 q 569 255 563 275 q 588 219 575 235 q 628 203 600 203 z "},"ĳ":{"ha":788,"x_min":58,"x_max":747,"o":"m 200 0 q 130 9 157 0 q 87 35 103 18 q 65 76 71 51 q 58 132 58 100 q 60 191 58 153 q 68 297 63 229 q 81 467 74 364 q 100 724 89 571 q 106 759 103 754 q 129 764 110 764 l 183 764 q 253 756 226 764 q 297 731 281 747 q 319 690 313 714 q 325 638 325 667 q 322 575 325 617 q 315 462 319 533 q 301 284 310 390 q 281 28 293 178 q 274 6 279 11 q 250 0 268 0 l 200 0 m 101 928 q 142 1015 101 983 q 250 1047 182 1047 q 337 1023 310 1047 q 364 958 364 999 q 326 873 364 907 q 214 839 288 839 q 101 928 101 839 m 499 743 q 504 761 499 756 q 529 764 507 764 l 579 764 q 641 755 614 764 q 687 733 668 746 q 715 703 706 719 q 725 669 725 686 q 723 624 725 661 q 717 533 721 588 q 708 412 713 478 q 698 278 703 346 q 688 149 693 211 q 681 40 683 86 q 649 -119 674 -58 q 590 -213 625 -179 q 513 -259 556 -247 q 424 -271 469 -271 q 342 -263 383 -271 q 268 -240 301 -256 q 214 -201 235 -225 q 193 -146 193 -178 q 213 -93 193 -112 q 260 -64 233 -74 q 313 -51 288 -54 q 351 -49 339 -49 q 359 -56 356 -49 q 367 -73 363 -64 q 381 -90 372 -82 q 404 -97 389 -97 q 430 -84 421 -97 q 444 -40 439 -71 q 454 41 450 -10 q 463 168 458 92 l 499 743 m 485 928 q 525 1015 485 983 q 633 1047 565 1047 q 720 1023 693 1047 q 747 958 747 999 q 709 873 747 907 q 597 839 671 839 q 485 928 485 839 z "},"Ǳ":{"ha":1632,"x_min":71,"x_max":1613,"o":"m 128 965 q 137 981 129 976 q 151 986 144 986 q 328 992 246 986 q 458 999 411 999 q 656 975 576 999 q 785 901 736 951 q 856 772 835 851 q 876 582 876 693 q 853 362 876 469 q 774 171 831 254 q 620 37 717 88 q 376 -14 524 -14 q 252 -11 308 -14 q 156 6 196 -8 q 93 47 115 19 q 71 124 71 75 q 73 178 71 142 q 78 264 75 214 q 87 374 82 314 q 97 501 92 435 q 115 721 108 639 q 123 849 121 803 q 126 919 125 896 q 128 965 126 943 m 386 206 q 510 239 464 206 q 582 324 557 272 q 615 436 607 375 q 624 551 624 497 q 616 653 624 610 q 590 726 608 697 q 538 770 571 756 q 454 785 504 785 q 415 783 439 785 q 358 779 392 782 q 351 658 356 728 q 342 510 347 588 q 332 355 338 433 q 321 210 326 276 q 358 206 342 207 q 386 206 375 206 m 888 0 q 872 15 872 0 l 876 90 q 881 122 878 103 q 893 153 883 140 q 950 246 917 196 q 1031 368 983 296 q 1141 542 1078 440 q 1288 792 1204 644 l 971 792 q 958 796 960 792 q 956 811 956 800 l 960 889 q 965 924 961 907 q 978 956 968 942 q 1008 978 989 969 q 1060 986 1028 986 l 1590 986 q 1606 982 1599 986 q 1613 967 1613 978 l 1607 892 q 1590 832 1604 856 q 1550 766 1586 825 q 1458 617 1514 707 q 1334 415 1403 526 q 1196 194 1265 304 l 1549 194 q 1564 190 1557 194 q 1571 175 1571 186 l 1565 93 q 1542 26 1563 51 q 1460 0 1522 0 l 888 0 z "},"ǲ":{"ha":1610,"x_min":71,"x_max":1585,"o":"m 128 965 q 137 981 129 976 q 151 986 144 986 q 328 992 246 986 q 458 999 411 999 q 656 975 576 999 q 785 901 736 951 q 856 772 835 851 q 876 582 876 693 q 853 362 876 469 q 774 171 831 254 q 620 37 717 88 q 376 -14 524 -14 q 252 -11 308 -14 q 156 6 196 -8 q 93 47 115 19 q 71 124 71 75 q 73 178 71 142 q 78 264 75 214 q 87 374 82 314 q 97 501 92 435 q 115 721 108 639 q 123 849 121 803 q 126 919 125 896 q 128 965 126 943 m 386 206 q 510 239 464 206 q 582 324 557 272 q 615 436 607 375 q 624 551 624 497 q 616 653 624 610 q 590 726 608 697 q 538 770 571 756 q 454 785 504 785 q 415 783 439 785 q 358 779 392 782 q 351 658 356 728 q 342 510 347 588 q 332 355 338 433 q 321 210 326 276 q 358 206 342 207 q 386 206 375 206 m 915 0 q 900 15 900 0 l 904 90 q 930 163 906 128 q 999 249 954 197 q 1108 378 1043 300 q 1260 583 1174 457 l 999 583 q 985 588 988 583 q 983 603 983 593 l 988 667 q 992 702 989 685 q 1006 733 996 719 q 1036 756 1017 747 q 1088 764 1056 764 l 1563 764 q 1578 760 1571 764 q 1585 744 1585 756 l 1579 669 q 1551 596 1578 635 q 1515 551 1547 589 q 1437 456 1483 514 q 1334 327 1390 399 q 1224 181 1278 256 l 1521 181 q 1536 176 1529 181 q 1543 161 1543 172 l 1538 93 q 1515 26 1535 51 q 1432 0 1494 0 l 915 0 z "},"ǳ":{"ha":1554,"x_min":42,"x_max":1529,"o":"m 311 -14 q 208 6 257 -14 q 122 67 158 25 q 63 172 85 108 q 42 326 42 236 q 47 416 42 367 q 67 515 53 465 q 106 613 81 565 q 169 697 131 660 q 260 756 207 733 q 386 778 314 778 q 498 753 456 778 q 551 669 540 729 q 557 764 554 724 q 562 839 560 804 q 567 908 564 874 q 572 988 569 943 q 579 1024 574 1018 q 586 1027 582 1026 q 601 1028 590 1028 l 656 1028 q 725 1018 697 1028 q 769 992 753 1008 q 793 953 786 975 q 800 908 800 932 q 797 874 800 908 q 790 781 794 839 q 781 650 786 724 q 769 498 775 576 q 758 342 764 419 q 747 201 753 265 q 738 90 742 136 q 733 28 735 43 q 726 6 731 11 q 703 0 722 0 l 653 0 q 598 5 624 0 q 553 22 572 10 q 524 53 535 33 q 514 106 514 74 q 438 19 489 53 q 311 -14 388 -14 m 432 593 q 327 531 361 593 q 293 365 293 469 q 298 294 293 329 q 315 232 303 260 q 349 188 328 204 q 404 171 371 171 q 504 229 464 171 q 544 413 544 288 q 540 480 544 447 q 524 538 536 513 q 489 578 511 563 q 432 593 467 593 m 860 0 q 844 15 844 0 l 849 90 q 874 163 850 128 q 943 249 899 197 q 1053 378 988 300 q 1204 583 1118 457 l 943 583 q 930 588 932 583 q 928 603 928 593 l 932 667 q 937 702 933 685 q 951 733 940 719 q 981 756 961 747 q 1032 764 1000 764 l 1507 764 q 1522 760 1515 764 q 1529 744 1529 756 l 1524 669 q 1496 596 1522 635 q 1460 551 1492 589 q 1381 456 1428 514 q 1278 327 1335 399 q 1168 181 1222 256 l 1465 181 q 1481 176 1474 181 q 1488 161 1488 172 l 1482 93 q 1459 26 1479 51 q 1376 0 1439 0 l 860 0 z "},"Ǉ":{"ha":1292,"x_min":71,"x_max":1236,"o":"m 215 0 q 104 31 138 0 q 71 118 71 61 q 75 213 71 146 q 86 367 79 281 q 100 549 93 453 q 114 729 107 644 q 125 878 121 814 q 129 965 129 942 q 151 986 129 986 l 228 986 q 335 956 306 986 q 365 868 365 926 q 365 856 365 861 q 364 843 364 850 l 318 194 l 568 194 q 583 190 576 194 q 590 175 590 185 l 585 93 q 562 26 582 51 q 479 0 542 0 l 215 0 m 856 203 q 905 225 886 203 q 936 285 924 247 q 956 372 949 322 q 971 476 964 421 q 976 535 974 501 q 983 623 979 569 q 991 756 986 676 q 1003 953 996 836 q 1007 979 1004 972 q 1025 986 1010 986 l 1101 986 q 1176 978 1149 986 q 1217 957 1203 969 q 1233 930 1231 944 q 1236 901 1236 915 q 1235 838 1236 888 q 1231 722 1233 788 q 1223 583 1228 656 q 1213 453 1218 511 q 1187 291 1204 374 q 1131 140 1169 208 q 1027 29 1092 72 q 860 -14 963 -14 q 758 0 803 -14 q 681 38 713 14 q 633 95 650 63 q 617 164 617 128 q 630 224 617 197 q 665 269 643 251 q 716 297 688 288 q 775 307 744 307 q 787 291 783 307 q 797 255 790 275 q 815 219 803 235 q 856 203 828 203 z "},"ǈ":{"ha":990,"x_min":71,"x_max":950,"o":"m 215 0 q 104 31 138 0 q 71 118 71 61 q 75 213 71 146 q 86 367 79 281 q 100 549 93 453 q 114 729 107 644 q 125 878 121 814 q 129 965 129 942 q 151 986 129 986 l 228 986 q 335 956 306 986 q 365 868 365 926 q 365 856 365 861 q 364 843 364 850 l 318 194 l 568 194 q 583 190 576 194 q 590 175 590 185 l 585 93 q 562 26 582 51 q 479 0 542 0 l 215 0 m 701 743 q 707 761 701 756 q 732 764 710 764 l 782 764 q 844 755 817 764 q 890 733 871 746 q 918 703 908 719 q 928 669 928 686 q 926 624 928 661 q 919 533 924 588 q 910 412 915 478 q 901 278 906 346 q 891 149 896 211 q 883 40 886 86 q 852 -119 876 -58 q 793 -213 828 -179 q 715 -259 758 -247 q 626 -271 672 -271 q 545 -263 586 -271 q 471 -240 504 -256 q 417 -201 438 -225 q 396 -146 396 -178 q 416 -93 396 -112 q 463 -64 436 -74 q 516 -51 490 -54 q 554 -49 542 -49 q 562 -56 558 -49 q 570 -73 565 -64 q 583 -90 575 -82 q 607 -97 592 -97 q 633 -84 624 -97 q 647 -40 642 -71 q 657 41 653 -10 q 665 168 661 92 l 701 743 m 688 928 q 728 1015 688 983 q 836 1047 768 1047 q 923 1023 896 1047 q 950 958 950 999 q 912 873 950 907 q 800 839 874 839 q 688 928 688 839 z "},"ǉ":{"ha":815,"x_min":57,"x_max":775,"o":"m 218 -12 q 94 33 132 -12 q 57 185 57 79 q 59 226 57 201 q 65 291 61 251 q 74 389 68 331 q 85 531 79 447 q 99 726 92 614 q 115 988 107 839 q 122 1024 117 1018 q 144 1028 126 1028 l 199 1028 q 268 1018 240 1028 q 313 992 296 1008 q 336 953 329 975 q 343 908 343 932 q 340 828 343 881 q 331 711 336 776 q 319 575 325 646 q 308 440 314 504 q 299 324 303 375 q 296 246 296 272 q 309 194 296 210 q 338 173 322 179 q 366 165 353 167 q 379 156 379 163 q 372 95 379 125 q 347 41 365 65 q 298 2 329 17 q 218 -12 267 -12 m 526 743 q 532 761 526 756 q 557 764 535 764 l 607 764 q 669 755 642 764 q 715 733 696 746 q 743 703 733 719 q 753 669 753 686 q 751 624 753 661 q 744 533 749 588 q 735 412 740 478 q 726 278 731 346 q 716 149 721 211 q 708 40 711 86 q 677 -119 701 -58 q 618 -213 653 -179 q 540 -259 583 -247 q 451 -271 497 -271 q 370 -263 411 -271 q 296 -240 329 -256 q 242 -201 263 -225 q 221 -146 221 -178 q 241 -93 221 -112 q 288 -64 261 -74 q 341 -51 315 -54 q 379 -49 367 -49 q 387 -56 383 -49 q 395 -73 390 -64 q 408 -90 400 -82 q 432 -97 417 -97 q 458 -84 449 -97 q 472 -40 467 -71 q 482 41 478 -10 q 490 168 486 92 l 526 743 m 513 928 q 553 1015 513 983 q 661 1047 593 1047 q 748 1023 721 1047 q 775 958 775 999 q 737 873 775 907 q 625 839 699 839 q 513 928 513 839 z "},"Ǌ":{"ha":1614,"x_min":71,"x_max":1557,"o":"m 693 0 q 608 17 636 0 q 568 58 581 33 q 433 343 496 207 q 304 618 369 479 q 308 319 306 468 q 314 21 311 171 q 292 0 314 0 l 215 0 q 103 31 136 0 q 71 124 71 63 q 73 180 71 140 q 79 274 75 219 q 88 392 83 328 q 99 524 93 457 q 113 699 107 629 q 122 816 118 768 q 126 898 125 864 q 129 965 128 932 q 151 986 129 986 l 263 986 q 338 976 308 986 q 385 947 367 965 q 415 906 404 929 q 436 858 426 883 q 495 710 469 772 q 540 600 521 647 q 574 518 560 553 q 601 454 589 483 q 626 398 614 425 q 653 339 639 371 q 652 508 653 421 q 651 677 651 594 q 649 836 650 760 q 649 974 649 913 q 672 986 649 986 l 749 986 q 822 977 794 986 q 864 951 849 968 q 884 908 879 933 q 889 851 889 883 q 885 745 889 817 q 875 585 881 674 q 863 401 869 496 q 849 225 856 306 q 838 88 843 144 q 832 22 833 32 q 824 6 832 11 q 807 0 817 0 l 693 0 m 1176 203 q 1226 225 1207 203 q 1257 285 1244 247 q 1277 372 1269 322 q 1292 476 1285 421 q 1297 535 1294 501 q 1303 623 1300 569 q 1312 756 1307 676 q 1324 953 1317 836 q 1328 979 1325 972 q 1346 986 1331 986 l 1422 986 q 1497 978 1469 986 q 1538 957 1524 969 q 1554 930 1551 944 q 1557 901 1557 915 q 1556 838 1557 888 q 1551 722 1554 788 q 1544 583 1549 656 q 1533 453 1539 511 q 1508 291 1525 374 q 1451 140 1490 208 q 1348 29 1413 72 q 1181 -14 1283 -14 q 1078 0 1124 -14 q 1002 38 1033 14 q 954 95 971 63 q 938 164 938 128 q 951 224 938 197 q 986 269 964 251 q 1037 297 1008 288 q 1096 307 1065 307 q 1108 291 1104 307 q 1117 255 1111 275 q 1136 219 1124 235 q 1176 203 1149 203 z "},"ǋ":{"ha":1353,"x_min":71,"x_max":1313,"o":"m 693 0 q 608 17 636 0 q 568 58 581 33 q 433 343 496 207 q 304 618 369 479 q 308 319 306 468 q 314 21 311 171 q 292 0 314 0 l 215 0 q 103 31 136 0 q 71 124 71 63 q 73 180 71 140 q 79 274 75 219 q 88 392 83 328 q 99 524 93 457 q 113 699 107 629 q 122 816 118 768 q 126 898 125 864 q 129 965 128 932 q 151 986 129 986 l 263 986 q 338 976 308 986 q 385 947 367 965 q 415 906 404 929 q 436 858 426 883 q 495 710 469 772 q 540 600 521 647 q 574 518 560 553 q 601 454 589 483 q 626 398 614 425 q 653 339 639 371 q 652 508 653 421 q 651 677 651 594 q 649 836 650 760 q 649 974 649 913 q 672 986 649 986 l 749 986 q 822 977 794 986 q 864 951 849 968 q 884 908 879 933 q 889 851 889 883 q 885 745 889 817 q 875 585 881 674 q 863 401 869 496 q 849 225 856 306 q 838 88 843 144 q 832 22 833 32 q 824 6 832 11 q 807 0 817 0 l 693 0 m 1064 743 q 1069 761 1064 756 q 1094 764 1072 764 l 1144 764 q 1206 755 1179 764 q 1252 733 1233 746 q 1281 703 1271 719 q 1290 669 1290 686 q 1288 624 1290 661 q 1282 533 1286 588 q 1273 412 1278 478 q 1263 278 1268 346 q 1253 149 1258 211 q 1246 40 1249 86 q 1215 -119 1239 -58 q 1156 -213 1190 -179 q 1078 -259 1121 -247 q 989 -271 1035 -271 q 908 -263 949 -271 q 833 -240 867 -256 q 779 -201 800 -225 q 758 -146 758 -178 q 778 -93 758 -112 q 826 -64 799 -74 q 878 -51 853 -54 q 917 -49 904 -49 q 924 -56 921 -49 q 933 -73 928 -64 q 946 -90 938 -82 q 969 -97 954 -97 q 995 -84 986 -97 q 1010 -40 1004 -71 q 1019 41 1015 -10 q 1028 168 1024 92 l 1064 743 m 1050 928 q 1090 1015 1050 983 q 1199 1047 1131 1047 q 1285 1023 1258 1047 q 1313 958 1313 999 q 1274 873 1313 907 q 1163 839 1236 839 q 1050 928 1050 839 z "},"ǌ":{"ha":1258,"x_min":57,"x_max":1218,"o":"m 531 122 q 535 202 531 153 q 545 306 540 251 q 555 413 550 361 q 560 499 560 464 q 542 563 560 535 q 475 592 525 592 q 394 568 426 592 q 341 482 363 544 q 306 310 319 419 q 279 28 292 200 q 272 6 278 11 q 249 0 267 0 l 199 0 q 128 9 156 0 q 85 35 101 18 q 63 76 69 51 q 57 132 57 100 q 59 191 57 153 q 67 297 61 229 q 80 467 72 364 q 99 724 88 571 q 106 760 100 754 q 128 764 110 764 l 182 764 q 251 754 224 764 q 294 728 278 744 q 318 691 311 713 q 326 647 325 669 q 425 749 369 721 q 564 778 481 778 q 665 765 622 778 q 737 723 708 753 q 779 645 765 693 q 793 526 793 597 q 790 463 793 504 q 783 372 788 421 q 774 269 779 322 q 765 169 769 215 q 758 89 761 124 q 756 43 756 54 q 749 6 756 13 q 718 0 742 0 l 674 0 q 601 8 629 0 q 558 32 574 17 q 537 70 543 47 q 531 122 531 93 m 969 743 q 975 761 969 756 q 1000 764 978 764 l 1050 764 q 1112 755 1085 764 q 1158 733 1139 746 q 1186 703 1176 719 q 1196 669 1196 686 q 1194 624 1196 661 q 1188 533 1192 588 q 1178 412 1183 478 q 1169 278 1174 346 q 1159 149 1164 211 q 1151 40 1154 86 q 1120 -119 1144 -58 q 1061 -213 1096 -179 q 983 -259 1026 -247 q 894 -271 940 -271 q 813 -263 854 -271 q 739 -240 772 -256 q 685 -201 706 -225 q 664 -146 664 -178 q 684 -93 664 -112 q 731 -64 704 -74 q 784 -51 758 -54 q 822 -49 810 -49 q 830 -56 826 -49 q 838 -73 833 -64 q 851 -90 843 -82 q 875 -97 860 -97 q 901 -84 892 -97 q 915 -40 910 -71 q 925 41 921 -10 q 933 168 929 92 l 969 743 m 956 928 q 996 1015 956 983 q 1104 1047 1036 1047 q 1191 1023 1164 1047 q 1218 958 1218 999 q 1180 873 1218 907 q 1068 839 1142 839 q 956 928 956 839 z "},"…":{"ha":1004,"x_min":31,"x_max":931,"o":"m 167 247 q 250 219 225 247 q 275 139 275 190 q 269 91 275 118 q 249 41 264 64 q 208 2 235 18 q 139 -14 182 -14 q 53 19 75 -14 q 31 100 31 51 q 38 154 31 128 q 60 201 44 181 q 101 235 75 222 q 167 247 128 247 m 494 247 q 578 219 553 247 q 603 139 603 190 q 597 91 603 118 q 577 41 592 64 q 536 2 563 18 q 467 -14 510 -14 q 381 19 403 -14 q 358 100 358 51 q 365 154 358 128 q 388 201 372 181 q 429 235 403 222 q 494 247 456 247 m 822 247 q 906 219 881 247 q 931 139 931 190 q 925 91 931 118 q 905 41 919 64 q 864 2 890 18 q 794 -14 838 -14 q 708 19 731 -14 q 686 100 686 51 q 693 154 686 128 q 715 201 700 181 q 757 235 731 222 q 822 247 783 247 z "},"¨":{"ha":536,"x_min":0,"x_max":536,"o":"m 0 940 q 33 1019 0 990 q 124 1049 67 1049 q 197 1026 174 1049 q 219 968 219 1004 q 188 891 219 922 q 94 860 156 860 q 0 940 0 860 m 317 940 q 350 1019 317 990 q 440 1049 383 1049 q 513 1026 490 1049 q 536 968 536 1004 q 504 891 536 922 q 411 860 472 860 q 317 940 317 860 z "},"ü":{"ha":833,"x_min":61,"x_max":768,"o":"m 322 646 q 317 564 322 617 q 308 454 313 511 q 298 347 303 397 q 293 275 293 297 q 317 199 293 226 q 385 172 342 172 q 448 202 422 172 q 490 280 474 232 q 515 389 506 328 q 530 513 525 450 q 538 634 535 575 q 546 736 542 693 q 554 756 547 747 q 576 764 561 764 l 626 764 q 697 755 669 764 q 740 729 724 746 q 762 688 756 713 q 768 632 768 664 q 766 573 768 611 q 758 467 764 535 q 745 297 753 400 q 726 40 738 193 q 720 6 724 11 q 697 0 717 0 l 643 0 q 574 10 601 0 q 531 35 547 19 q 507 71 514 50 q 499 114 500 92 q 452 53 478 78 q 399 13 426 28 q 342 -8 371 -1 q 285 -14 313 -14 q 190 3 232 -14 q 120 50 149 21 q 76 119 92 79 q 61 206 61 160 q 63 265 61 224 q 69 357 65 306 q 76 466 72 408 q 84 575 81 524 q 91 665 88 626 q 96 721 94 704 q 107 755 99 746 q 135 764 115 764 l 179 764 q 250 756 222 764 q 294 732 278 747 q 316 695 310 717 q 322 646 322 674 m 178 922 q 211 1001 178 972 q 301 1031 244 1031 q 374 1008 351 1031 q 397 950 397 986 q 365 873 397 904 q 272 842 333 842 q 178 922 178 842 m 494 922 q 528 1001 494 972 q 618 1031 561 1031 q 691 1008 668 1031 q 714 950 714 986 q 682 873 714 904 q 589 842 650 842 q 494 922 494 842 z "},"ö":{"ha":831,"x_min":40,"x_max":783,"o":"m 368 -14 q 209 13 272 -14 q 108 88 146 40 q 56 198 71 135 q 40 333 40 261 q 60 497 40 417 q 129 639 81 576 q 258 740 178 701 q 457 778 338 778 q 708 692 632 778 q 783 453 783 607 q 777 358 783 410 q 753 254 771 306 q 706 154 736 203 q 631 68 676 106 q 520 8 585 31 q 368 -14 456 -14 m 433 593 q 349 566 381 593 q 302 501 318 539 q 281 420 286 463 q 276 349 276 378 q 306 214 276 257 q 389 171 335 171 q 469 201 438 171 q 517 275 500 232 q 541 365 535 318 q 547 444 547 413 q 522 553 547 514 q 433 593 496 593 m 208 940 q 242 1019 208 990 q 332 1049 275 1049 q 405 1026 382 1049 q 428 968 428 1004 q 396 891 428 922 q 303 860 364 860 q 208 940 208 860 m 525 940 q 558 1019 525 990 q 649 1049 592 1049 q 722 1026 699 1049 q 744 968 744 1004 q 713 891 744 922 q 619 860 681 860 q 525 940 525 860 z "},"ÿ":{"ha":847,"x_min":44,"x_max":782,"o":"m 322 636 q 318 560 322 604 q 309 473 314 517 q 300 391 304 429 q 296 332 296 353 q 322 253 296 279 q 385 228 347 228 q 489 296 450 228 q 538 476 528 364 l 560 736 q 570 758 561 751 q 590 764 579 764 l 640 764 q 695 759 669 764 q 740 741 721 754 q 771 706 760 728 q 782 649 782 683 q 780 597 782 635 q 773 487 778 558 q 760 306 768 415 q 740 40 751 197 q 699 -112 733 -51 q 614 -208 665 -172 q 499 -257 563 -243 q 368 -271 435 -271 q 238 -258 297 -271 q 136 -224 179 -246 q 69 -172 93 -201 q 44 -110 44 -143 q 56 -64 44 -83 q 88 -32 68 -44 q 133 -13 107 -19 q 186 -7 158 -7 q 206 -21 200 -7 q 226 -52 213 -35 q 268 -83 239 -69 q 356 -97 297 -97 q 439 -72 407 -97 q 488 -8 471 -47 q 511 76 506 31 q 517 164 517 122 q 467 101 494 125 q 411 63 440 76 q 353 46 382 50 q 297 42 324 42 q 203 56 246 42 q 131 101 161 69 q 83 182 100 132 q 67 303 67 232 q 69 373 67 329 q 76 472 72 417 q 85 590 81 526 q 96 721 90 654 q 135 764 99 764 l 179 764 q 251 756 224 764 q 295 731 279 747 q 317 691 311 715 q 322 636 322 667 m 189 940 q 222 1019 189 990 q 313 1049 256 1049 q 385 1026 363 1049 q 408 968 408 1004 q 376 891 408 922 q 283 860 344 860 q 189 940 189 860 m 506 940 q 539 1019 506 990 q 629 1049 572 1049 q 702 1026 679 1049 q 725 968 725 1004 q 693 891 725 922 q 600 860 661 860 q 506 940 506 860 z "},"ë":{"ha":739,"x_min":39,"x_max":732,"o":"m 378 -14 q 256 1 317 -14 q 148 54 196 17 q 69 154 100 92 q 39 311 39 217 q 44 394 39 346 q 66 494 50 443 q 110 597 82 546 q 185 688 139 647 q 296 753 231 728 q 451 778 361 778 q 574 761 524 778 q 654 716 624 744 q 699 650 685 688 q 713 569 713 613 q 687 461 713 506 q 620 387 661 417 q 529 340 579 357 q 431 315 479 324 q 341 303 382 306 q 278 301 300 301 q 285 249 278 275 q 308 204 293 224 q 349 172 324 185 q 410 160 374 160 q 466 172 446 160 q 499 198 486 183 q 520 224 511 213 q 544 236 529 236 q 569 233 551 236 q 604 218 586 229 q 636 188 622 207 q 650 138 650 168 q 625 68 650 97 q 560 21 600 39 q 472 -6 521 3 q 378 -14 424 -14 m 404 593 q 352 576 374 593 q 316 532 331 558 q 294 474 301 506 q 282 413 286 442 q 422 442 368 414 q 475 521 475 469 q 458 571 475 549 q 404 593 440 593 m 196 940 q 229 1019 196 990 q 319 1049 263 1049 q 392 1026 369 1049 q 415 968 415 1004 q 383 891 415 922 q 290 860 351 860 q 196 940 196 860 m 513 940 q 546 1019 513 990 q 636 1049 579 1049 q 709 1026 686 1049 q 732 968 732 1004 q 700 891 732 922 q 607 860 668 860 q 513 940 513 860 z "},"ẅ":{"ha":1165,"x_min":22,"x_max":1150,"o":"m 801 149 q 833 326 819 250 q 855 457 846 401 q 870 553 864 513 q 881 624 876 593 q 890 680 886 656 q 897 731 893 704 q 912 754 900 746 q 957 763 924 763 q 1008 760 975 763 q 1072 750 1040 758 q 1127 724 1104 742 q 1150 676 1150 707 q 1138 610 1150 654 q 1106 510 1125 567 q 1061 388 1086 453 q 1010 260 1036 324 q 961 140 985 197 q 921 42 938 83 q 899 8 910 17 q 863 0 889 0 l 781 0 q 717 10 742 0 q 676 36 692 19 q 653 74 661 53 q 640 121 644 96 q 611 311 626 192 q 583 593 596 431 q 567 511 576 563 q 548 400 558 460 q 526 278 538 340 q 506 162 515 215 q 488 70 496 108 q 474 21 479 32 q 456 3 467 7 q 426 0 446 0 l 329 0 q 267 10 293 0 q 223 38 242 21 q 192 76 204 54 q 175 121 181 97 q 60 569 99 418 q 22 732 22 721 q 35 754 22 744 q 67 764 47 764 q 169 759 126 764 q 241 742 213 754 q 285 707 269 729 q 304 649 300 685 q 310 569 306 629 q 319 434 314 510 q 328 281 324 358 q 338 149 333 203 q 365 286 354 235 q 382 372 375 338 q 394 433 389 407 q 406 496 399 460 q 422 586 413 532 q 447 731 431 640 q 521 764 453 764 q 601 761 564 764 q 668 748 639 758 q 718 717 697 738 q 747 663 739 697 q 752 643 750 653 q 757 615 754 633 q 763 565 760 597 q 772 479 767 533 q 783 344 776 425 q 801 149 790 264 m 340 940 q 374 1019 340 990 q 464 1049 407 1049 q 537 1026 514 1049 q 560 968 560 1004 q 528 891 560 922 q 435 860 496 860 q 340 940 340 860 m 657 940 q 690 1019 657 990 q 781 1049 724 1049 q 853 1026 831 1049 q 876 968 876 1004 q 844 891 876 922 q 751 860 813 860 q 657 940 657 860 z "},"ä":{"ha":782,"x_min":15,"x_max":754,"o":"m 15 171 q 128 367 15 296 q 460 443 240 438 q 462 469 461 458 q 463 494 463 479 q 446 565 463 539 q 376 592 429 592 q 329 583 347 592 q 300 560 311 575 q 282 525 289 546 q 269 479 275 504 q 257 463 267 467 q 226 460 247 460 q 85 567 85 460 q 105 649 85 610 q 165 716 125 688 q 264 761 204 744 q 403 778 324 778 q 626 714 557 778 q 696 533 696 650 q 692 478 696 518 q 684 395 689 439 q 676 313 679 351 q 672 258 672 274 q 685 209 672 224 q 713 189 697 194 q 742 181 729 183 q 754 167 754 178 q 746 104 754 136 q 719 46 738 72 q 667 3 700 19 q 588 -14 635 -14 q 488 18 521 -14 q 443 107 454 50 q 356 22 410 58 q 217 -14 303 -14 q 138 -4 175 -14 q 74 28 101 6 q 31 85 47 50 q 15 171 15 121 m 447 329 q 376 324 411 329 q 315 306 342 318 q 271 275 288 294 q 254 228 254 256 q 274 183 254 196 q 318 171 294 171 q 363 181 340 171 q 402 210 385 190 q 432 260 419 231 q 447 329 444 289 m 167 940 q 200 1019 167 990 q 290 1049 233 1049 q 363 1026 340 1049 q 386 968 386 1004 q 354 891 386 922 q 261 860 322 860 q 167 940 167 860 m 483 940 q 517 1019 483 990 q 607 1049 550 1049 q 680 1026 657 1049 q 703 968 703 1004 q 671 891 703 922 q 578 860 639 860 q 483 940 483 860 z "},"´":{"ha":357,"x_min":14,"x_max":343,"o":"m 85 854 q 63 861 75 854 q 40 878 51 868 q 22 901 29 889 q 14 921 14 913 q 28 944 14 924 q 63 996 42 965 q 108 1063 83 1026 q 156 1131 133 1099 q 169 1147 164 1143 q 188 1151 175 1151 q 231 1143 204 1151 q 282 1122 257 1135 q 325 1095 307 1110 q 343 1068 343 1081 q 327 1039 343 1058 q 286 996 311 1019 q 231 947 261 972 q 171 901 200 922 q 119 867 142 881 q 85 854 96 854 z "},"ú":{"ha":833,"x_min":61,"x_max":768,"o":"m 322 646 q 317 564 322 617 q 308 454 313 511 q 298 347 303 397 q 293 275 293 297 q 317 199 293 226 q 385 172 342 172 q 448 202 422 172 q 490 280 474 232 q 515 389 506 328 q 530 513 525 450 q 538 634 535 575 q 546 736 542 693 q 554 756 547 747 q 576 764 561 764 l 626 764 q 697 755 669 764 q 740 729 724 746 q 762 688 756 713 q 768 632 768 664 q 766 573 768 611 q 758 467 764 535 q 745 297 753 400 q 726 40 738 193 q 720 6 724 11 q 697 0 717 0 l 643 0 q 574 10 601 0 q 531 35 547 19 q 507 71 514 50 q 499 114 500 92 q 452 53 478 78 q 399 13 426 28 q 342 -8 371 -1 q 285 -14 313 -14 q 190 3 232 -14 q 120 50 149 21 q 76 119 92 79 q 61 206 61 160 q 63 265 61 224 q 69 357 65 306 q 76 466 72 408 q 84 575 81 524 q 91 665 88 626 q 96 721 94 704 q 107 755 99 746 q 135 764 115 764 l 179 764 q 250 756 222 764 q 294 732 278 747 q 316 695 310 717 q 322 646 322 674 m 439 854 q 417 861 429 854 q 394 878 406 868 q 376 901 383 889 q 368 921 368 913 q 382 944 368 924 q 417 996 396 965 q 463 1063 438 1026 q 510 1131 488 1099 q 524 1147 518 1143 q 542 1151 529 1151 q 585 1143 558 1151 q 636 1122 611 1135 q 679 1095 661 1110 q 697 1068 697 1081 q 681 1039 697 1058 q 640 996 665 1019 q 585 947 615 972 q 525 901 554 922 q 473 867 496 881 q 439 854 450 854 z "},"ó":{"ha":831,"x_min":40,"x_max":783,"o":"m 368 -14 q 209 13 272 -14 q 108 88 146 40 q 56 198 71 135 q 40 333 40 261 q 60 497 40 417 q 129 639 81 576 q 258 740 178 701 q 457 778 338 778 q 708 692 632 778 q 783 453 783 607 q 777 358 783 410 q 753 254 771 306 q 706 154 736 203 q 631 68 676 106 q 520 8 585 31 q 368 -14 456 -14 m 433 593 q 349 566 381 593 q 302 501 318 539 q 281 420 286 463 q 276 349 276 378 q 306 214 276 257 q 389 171 335 171 q 469 201 438 171 q 517 275 500 232 q 541 365 535 318 q 547 444 547 413 q 522 553 547 514 q 433 593 496 593 m 471 854 q 449 861 461 854 q 426 878 438 868 q 408 901 415 889 q 400 921 400 913 q 414 944 400 924 q 449 996 428 965 q 494 1063 469 1026 q 542 1131 519 1099 q 556 1147 550 1143 q 574 1151 561 1151 q 617 1143 590 1151 q 668 1122 643 1135 q 711 1095 693 1110 q 729 1068 729 1081 q 713 1039 729 1058 q 672 996 697 1019 q 617 947 647 972 q 557 901 586 922 q 505 867 528 881 q 471 854 482 854 z "},"ŕ":{"ha":665,"x_min":58,"x_max":665,"o":"m 506 432 q 487 433 497 432 q 467 435 476 433 q 450 441 457 438 q 443 450 443 444 q 444 483 443 468 q 446 515 446 499 q 438 565 446 546 q 404 585 429 585 q 340 534 365 585 q 307 382 314 483 q 299 281 304 338 q 290 173 294 225 q 283 81 286 121 q 281 28 281 40 q 271 7 281 14 q 250 0 261 0 l 200 0 q 130 9 157 0 q 87 35 103 18 q 65 76 71 51 q 58 132 58 100 q 60 191 58 153 q 68 297 63 229 q 81 467 74 364 q 100 724 89 571 q 129 764 103 764 l 183 764 q 249 756 222 764 q 292 733 275 747 q 316 699 308 718 q 326 658 324 679 q 366 713 343 690 q 414 751 389 736 q 465 772 439 765 q 514 778 492 778 q 567 768 540 778 q 617 739 594 758 q 652 689 639 719 q 665 617 665 658 q 654 546 665 579 q 622 487 643 513 q 572 447 601 461 q 506 432 542 432 m 379 854 q 358 861 369 854 q 335 878 346 868 q 316 901 324 889 q 308 921 308 913 q 322 944 308 924 q 357 996 336 965 q 403 1063 378 1026 q 450 1131 428 1099 q 464 1147 458 1143 q 482 1151 469 1151 q 525 1143 499 1151 q 576 1122 551 1135 q 619 1095 601 1110 q 638 1068 638 1081 q 622 1039 638 1058 q 581 996 606 1019 q 525 947 556 972 q 465 901 494 922 q 413 867 436 881 q 379 854 390 854 z "},"ý":{"ha":847,"x_min":44,"x_max":782,"o":"m 322 636 q 318 560 322 604 q 309 473 314 517 q 300 391 304 429 q 296 332 296 353 q 322 253 296 279 q 385 228 347 228 q 489 296 450 228 q 538 476 528 364 l 560 736 q 570 758 561 751 q 590 764 579 764 l 640 764 q 695 759 669 764 q 740 741 721 754 q 771 706 760 728 q 782 649 782 683 q 780 597 782 635 q 773 487 778 558 q 760 306 768 415 q 740 40 751 197 q 699 -112 733 -51 q 614 -208 665 -172 q 499 -257 563 -243 q 368 -271 435 -271 q 238 -258 297 -271 q 136 -224 179 -246 q 69 -172 93 -201 q 44 -110 44 -143 q 56 -64 44 -83 q 88 -32 68 -44 q 133 -13 107 -19 q 186 -7 158 -7 q 206 -21 200 -7 q 226 -52 213 -35 q 268 -83 239 -69 q 356 -97 297 -97 q 439 -72 407 -97 q 488 -8 471 -47 q 511 76 506 31 q 517 164 517 122 q 467 101 494 125 q 411 63 440 76 q 353 46 382 50 q 297 42 324 42 q 203 56 246 42 q 131 101 161 69 q 83 182 100 132 q 67 303 67 232 q 69 373 67 329 q 76 472 72 417 q 85 590 81 526 q 96 721 90 654 q 135 764 99 764 l 179 764 q 251 756 224 764 q 295 731 279 747 q 317 691 311 715 q 322 636 322 667 m 444 854 q 423 861 435 854 q 400 878 411 868 q 381 901 389 889 q 374 921 374 913 q 388 944 374 924 q 422 996 401 965 q 468 1063 443 1026 q 515 1131 493 1099 q 529 1147 524 1143 q 547 1151 535 1151 q 590 1143 564 1151 q 642 1122 617 1135 q 685 1095 667 1110 q 703 1068 703 1081 q 687 1039 703 1058 q 646 996 671 1019 q 590 947 621 972 q 531 901 560 922 q 478 867 501 881 q 444 854 456 854 z "},"ć":{"ha":706,"x_min":40,"x_max":697,"o":"m 407 171 q 477 182 447 171 q 529 207 507 193 q 567 232 551 221 q 594 243 582 243 q 626 201 626 243 q 622 174 626 192 q 611 138 618 157 q 597 103 604 119 q 582 78 589 86 q 558 56 575 71 q 511 25 540 40 q 443 -2 482 10 q 357 -14 404 -14 q 248 2 304 -14 q 146 58 192 18 q 70 165 100 97 q 40 333 40 232 q 45 416 40 369 q 65 512 50 463 q 106 609 81 561 q 175 694 132 657 q 278 755 218 732 q 422 778 339 778 q 540 762 490 778 q 621 719 589 746 q 669 656 653 692 q 685 578 685 619 q 638 467 685 503 q 504 432 590 432 q 476 435 483 432 q 468 451 468 439 q 467 511 468 485 q 459 556 465 538 q 440 583 453 574 q 404 593 428 593 q 335 565 361 593 q 297 498 310 538 q 280 417 283 458 q 276 347 276 375 q 308 210 276 249 q 407 171 339 171 m 439 854 q 417 861 429 854 q 394 878 406 868 q 376 901 383 889 q 368 921 368 913 q 382 944 368 924 q 417 996 396 965 q 463 1063 438 1026 q 510 1131 488 1099 q 524 1147 518 1143 q 542 1151 529 1151 q 585 1143 558 1151 q 636 1122 611 1135 q 679 1095 661 1110 q 697 1068 697 1081 q 681 1039 697 1058 q 640 996 665 1019 q 585 947 615 972 q 525 901 554 922 q 473 867 496 881 q 439 854 450 854 z "},"ń":{"ha":860,"x_min":57,"x_max":793,"o":"m 531 122 q 535 202 531 153 q 545 306 540 251 q 555 413 550 361 q 560 499 560 464 q 542 563 560 535 q 475 592 525 592 q 394 568 426 592 q 341 482 363 544 q 306 310 319 419 q 279 28 292 200 q 272 6 278 11 q 249 0 267 0 l 199 0 q 128 9 156 0 q 85 35 101 18 q 63 76 69 51 q 57 132 57 100 q 59 191 57 153 q 67 297 61 229 q 80 467 72 364 q 99 724 88 571 q 106 760 100 754 q 128 764 110 764 l 182 764 q 251 754 224 764 q 294 728 278 744 q 318 691 311 713 q 326 647 325 669 q 425 749 369 721 q 564 778 481 778 q 665 765 622 778 q 737 723 708 753 q 779 645 765 693 q 793 526 793 597 q 790 463 793 504 q 783 372 788 421 q 774 269 779 322 q 765 169 769 215 q 758 89 761 124 q 756 43 756 54 q 749 6 756 13 q 718 0 742 0 l 674 0 q 601 8 629 0 q 558 32 574 17 q 537 70 543 47 q 531 122 531 93 m 489 854 q 467 861 479 854 q 444 878 456 868 q 426 901 433 889 q 418 921 418 913 q 432 944 418 924 q 467 996 446 965 q 513 1063 488 1026 q 560 1131 538 1099 q 574 1147 568 1143 q 592 1151 579 1151 q 635 1143 608 1151 q 686 1122 661 1135 q 729 1095 711 1110 q 747 1068 747 1081 q 731 1039 747 1058 q 690 996 715 1019 q 635 947 665 972 q 575 901 604 922 q 523 867 546 881 q 489 854 500 854 z "},"é":{"ha":739,"x_min":39,"x_max":724,"o":"m 378 -14 q 256 1 317 -14 q 148 54 196 17 q 69 154 100 92 q 39 311 39 217 q 44 394 39 346 q 66 494 50 443 q 110 597 82 546 q 185 688 139 647 q 296 753 231 728 q 451 778 361 778 q 574 761 524 778 q 654 716 624 744 q 699 650 685 688 q 713 569 713 613 q 687 461 713 506 q 620 387 661 417 q 529 340 579 357 q 431 315 479 324 q 341 303 382 306 q 278 301 300 301 q 285 249 278 275 q 308 204 293 224 q 349 172 324 185 q 410 160 374 160 q 466 172 446 160 q 499 198 486 183 q 520 224 511 213 q 544 236 529 236 q 569 233 551 236 q 604 218 586 229 q 636 188 622 207 q 650 138 650 168 q 625 68 650 97 q 560 21 600 39 q 472 -6 521 3 q 378 -14 424 -14 m 404 593 q 352 576 374 593 q 316 532 331 558 q 294 474 301 506 q 282 413 286 442 q 422 442 368 414 q 475 521 475 469 q 458 571 475 549 q 404 593 440 593 m 465 854 q 444 861 456 854 q 421 878 432 868 q 402 901 410 889 q 394 921 394 913 q 408 944 394 924 q 443 996 422 965 q 489 1063 464 1026 q 536 1131 514 1099 q 550 1147 544 1143 q 568 1151 556 1151 q 611 1143 585 1151 q 663 1122 638 1135 q 706 1095 688 1110 q 724 1068 724 1081 q 708 1039 724 1058 q 667 996 692 1019 q 611 947 642 972 q 551 901 581 922 q 499 867 522 881 q 465 854 476 854 z "},"ś":{"ha":653,"x_min":14,"x_max":654,"o":"m 381 778 q 554 731 499 778 q 610 613 610 685 q 572 519 610 551 q 461 488 533 488 q 435 492 442 488 q 428 507 428 496 q 426 535 428 519 q 416 566 424 551 q 392 590 408 581 q 347 600 376 600 q 285 581 308 600 q 261 535 261 563 q 285 488 261 506 q 347 456 310 471 q 426 424 383 440 q 506 382 469 408 q 567 316 543 356 q 592 214 592 276 q 521 50 592 114 q 308 -14 450 -14 q 219 -8 269 -14 q 122 12 168 -1 q 45 47 76 25 q 14 103 14 69 q 19 133 14 115 q 34 168 24 151 q 59 197 44 185 q 94 208 74 208 q 125 200 111 208 q 158 183 139 192 q 204 165 176 174 q 278 157 232 157 q 340 165 313 157 q 367 203 367 174 q 344 245 367 229 q 288 275 322 261 q 215 305 254 289 q 141 347 175 321 q 85 415 107 374 q 63 521 63 456 q 91 641 63 592 q 165 721 119 690 q 267 765 210 751 q 381 778 324 778 m 396 854 q 374 861 386 854 q 351 878 363 868 q 333 901 340 889 q 325 921 325 913 q 339 944 325 924 q 374 996 353 965 q 419 1063 394 1026 q 467 1131 444 1099 q 481 1147 475 1143 q 499 1151 486 1151 q 542 1143 515 1151 q 593 1122 568 1135 q 636 1095 618 1110 q 654 1068 654 1081 q 638 1039 654 1058 q 597 996 622 1019 q 542 947 572 972 q 482 901 511 922 q 430 867 453 881 q 396 854 407 854 z "},"ẃ":{"ha":1165,"x_min":22,"x_max":1150,"o":"m 801 149 q 833 326 819 250 q 855 457 846 401 q 870 553 864 513 q 881 624 876 593 q 890 680 886 656 q 897 731 893 704 q 912 754 900 746 q 957 763 924 763 q 1008 760 975 763 q 1072 750 1040 758 q 1127 724 1104 742 q 1150 676 1150 707 q 1138 610 1150 654 q 1106 510 1125 567 q 1061 388 1086 453 q 1010 260 1036 324 q 961 140 985 197 q 921 42 938 83 q 899 8 910 17 q 863 0 889 0 l 781 0 q 717 10 742 0 q 676 36 692 19 q 653 74 661 53 q 640 121 644 96 q 611 311 626 192 q 583 593 596 431 q 567 511 576 563 q 548 400 558 460 q 526 278 538 340 q 506 162 515 215 q 488 70 496 108 q 474 21 479 32 q 456 3 467 7 q 426 0 446 0 l 329 0 q 267 10 293 0 q 223 38 242 21 q 192 76 204 54 q 175 121 181 97 q 60 569 99 418 q 22 732 22 721 q 35 754 22 744 q 67 764 47 764 q 169 759 126 764 q 241 742 213 754 q 285 707 269 729 q 304 649 300 685 q 310 569 306 629 q 319 434 314 510 q 328 281 324 358 q 338 149 333 203 q 365 286 354 235 q 382 372 375 338 q 394 433 389 407 q 406 496 399 460 q 422 586 413 532 q 447 731 431 640 q 521 764 453 764 q 601 761 564 764 q 668 748 639 758 q 718 717 697 738 q 747 663 739 697 q 752 643 750 653 q 757 615 754 633 q 763 565 760 597 q 772 479 767 533 q 783 344 776 425 q 801 149 790 264 m 594 854 q 573 861 585 854 q 550 878 561 868 q 531 901 539 889 q 524 921 524 913 q 538 944 524 924 q 572 996 551 965 q 618 1063 593 1026 q 665 1131 643 1099 q 679 1147 674 1143 q 697 1151 685 1151 q 740 1143 714 1151 q 792 1122 767 1135 q 835 1095 817 1110 q 853 1068 853 1081 q 837 1039 853 1058 q 796 996 821 1019 q 740 947 771 972 q 681 901 710 922 q 628 867 651 881 q 594 854 606 854 z "},"á":{"ha":782,"x_min":15,"x_max":754,"o":"m 15 171 q 128 367 15 296 q 460 443 240 438 q 462 469 461 458 q 463 494 463 479 q 446 565 463 539 q 376 592 429 592 q 329 583 347 592 q 300 560 311 575 q 282 525 289 546 q 269 479 275 504 q 257 463 267 467 q 226 460 247 460 q 85 567 85 460 q 105 649 85 610 q 165 716 125 688 q 264 761 204 744 q 403 778 324 778 q 626 714 557 778 q 696 533 696 650 q 692 478 696 518 q 684 395 689 439 q 676 313 679 351 q 672 258 672 274 q 685 209 672 224 q 713 189 697 194 q 742 181 729 183 q 754 167 754 178 q 746 104 754 136 q 719 46 738 72 q 667 3 700 19 q 588 -14 635 -14 q 488 18 521 -14 q 443 107 454 50 q 356 22 410 58 q 217 -14 303 -14 q 138 -4 175 -14 q 74 28 101 6 q 31 85 47 50 q 15 171 15 121 m 447 329 q 376 324 411 329 q 315 306 342 318 q 271 275 288 294 q 254 228 254 256 q 274 183 254 196 q 318 171 294 171 q 363 181 340 171 q 402 210 385 190 q 432 260 419 231 q 447 329 444 289 m 415 854 q 394 861 406 854 q 371 878 382 868 q 352 901 360 889 q 344 921 344 913 q 358 944 344 924 q 393 996 372 965 q 439 1063 414 1026 q 486 1131 464 1099 q 500 1147 494 1143 q 518 1151 506 1151 q 561 1143 535 1151 q 613 1122 588 1135 q 656 1095 638 1110 q 674 1068 674 1081 q 658 1039 674 1058 q 617 996 642 1019 q 561 947 592 972 q 501 901 531 922 q 449 867 472 881 q 415 854 426 854 z "},"ź":{"ha":713,"x_min":3,"x_max":688,"o":"m 18 0 q 3 15 3 0 l 7 90 q 33 163 8 128 q 101 249 57 197 q 211 378 146 300 q 363 583 276 457 l 101 583 q 88 588 90 583 q 86 603 86 593 l 90 667 q 95 702 92 685 q 109 733 99 719 q 139 756 119 747 q 190 764 158 764 l 665 764 q 681 760 674 764 q 688 744 688 756 l 682 669 q 654 596 681 635 q 618 551 650 589 q 540 456 586 514 q 437 327 493 399 q 326 181 381 256 l 624 181 q 639 176 632 181 q 646 161 646 172 l 640 93 q 617 26 638 51 q 535 0 597 0 l 18 0 m 400 854 q 378 861 390 854 q 356 878 367 868 q 337 901 344 889 q 329 921 329 913 q 343 944 329 924 q 378 996 357 965 q 424 1063 399 1026 q 471 1131 449 1099 q 485 1147 479 1143 q 503 1151 490 1151 q 546 1143 519 1151 q 597 1122 572 1135 q 640 1095 622 1110 q 658 1068 658 1081 q 642 1039 658 1058 q 601 996 626 1019 q 546 947 576 972 q 486 901 515 922 q 434 867 457 881 q 400 854 411 854 z "},"`":{"ha":293,"x_min":14,"x_max":279,"o":"m 200 854 q 153 881 183 854 q 91 944 122 908 q 37 1016 60 981 q 14 1067 14 1051 q 31 1094 14 1079 q 73 1121 49 1108 q 124 1142 97 1133 q 167 1151 150 1151 q 184 1148 178 1151 q 196 1131 190 1144 q 224 1059 210 1094 q 251 994 239 1024 q 272 945 264 965 q 279 921 279 925 q 270 901 279 913 q 249 878 261 889 q 222 861 236 868 q 200 854 208 854 z "},"ù":{"ha":833,"x_min":61,"x_max":768,"o":"m 322 646 q 317 564 322 617 q 308 454 313 511 q 298 347 303 397 q 293 275 293 297 q 317 199 293 226 q 385 172 342 172 q 448 202 422 172 q 490 280 474 232 q 515 389 506 328 q 530 513 525 450 q 538 634 535 575 q 546 736 542 693 q 554 756 547 747 q 576 764 561 764 l 626 764 q 697 755 669 764 q 740 729 724 746 q 762 688 756 713 q 768 632 768 664 q 766 573 768 611 q 758 467 764 535 q 745 297 753 400 q 726 40 738 193 q 720 6 724 11 q 697 0 717 0 l 643 0 q 574 10 601 0 q 531 35 547 19 q 507 71 514 50 q 499 114 500 92 q 452 53 478 78 q 399 13 426 28 q 342 -8 371 -1 q 285 -14 313 -14 q 190 3 232 -14 q 120 50 149 21 q 76 119 92 79 q 61 206 61 160 q 63 265 61 224 q 69 357 65 306 q 76 466 72 408 q 84 575 81 524 q 91 665 88 626 q 96 721 94 704 q 107 755 99 746 q 135 764 115 764 l 179 764 q 250 756 222 764 q 294 732 278 747 q 316 695 310 717 q 322 646 322 674 m 439 854 q 392 881 422 854 q 330 944 361 908 q 276 1016 299 981 q 253 1067 253 1051 q 270 1094 253 1079 q 312 1121 288 1108 q 363 1142 336 1133 q 406 1151 389 1151 q 423 1148 417 1151 q 435 1131 429 1144 q 463 1059 449 1094 q 490 994 478 1024 q 510 945 503 965 q 518 921 518 925 q 509 901 518 913 q 488 878 500 889 q 461 861 475 868 q 439 854 447 854 z "},"ò":{"ha":831,"x_min":40,"x_max":783,"o":"m 368 -14 q 209 13 272 -14 q 108 88 146 40 q 56 198 71 135 q 40 333 40 261 q 60 497 40 417 q 129 639 81 576 q 258 740 178 701 q 457 778 338 778 q 708 692 632 778 q 783 453 783 607 q 777 358 783 410 q 753 254 771 306 q 706 154 736 203 q 631 68 676 106 q 520 8 585 31 q 368 -14 456 -14 m 433 593 q 349 566 381 593 q 302 501 318 539 q 281 420 286 463 q 276 349 276 378 q 306 214 276 257 q 389 171 335 171 q 469 201 438 171 q 517 275 500 232 q 541 365 535 318 q 547 444 547 413 q 522 553 547 514 q 433 593 496 593 m 471 854 q 424 881 454 854 q 362 944 393 908 q 308 1016 331 981 q 285 1067 285 1051 q 302 1094 285 1079 q 344 1121 319 1108 q 394 1142 368 1133 q 438 1151 421 1151 q 455 1148 449 1151 q 467 1131 461 1144 q 495 1059 481 1094 q 522 994 510 1024 q 542 945 535 965 q 550 921 550 925 q 541 901 550 913 q 519 878 532 889 q 493 861 507 868 q 471 854 479 854 z "},"ỳ":{"ha":847,"x_min":44,"x_max":782,"o":"m 322 636 q 318 560 322 604 q 309 473 314 517 q 300 391 304 429 q 296 332 296 353 q 322 253 296 279 q 385 228 347 228 q 489 296 450 228 q 538 476 528 364 l 560 736 q 570 758 561 751 q 590 764 579 764 l 640 764 q 695 759 669 764 q 740 741 721 754 q 771 706 760 728 q 782 649 782 683 q 780 597 782 635 q 773 487 778 558 q 760 306 768 415 q 740 40 751 197 q 699 -112 733 -51 q 614 -208 665 -172 q 499 -257 563 -243 q 368 -271 435 -271 q 238 -258 297 -271 q 136 -224 179 -246 q 69 -172 93 -201 q 44 -110 44 -143 q 56 -64 44 -83 q 88 -32 68 -44 q 133 -13 107 -19 q 186 -7 158 -7 q 206 -21 200 -7 q 226 -52 213 -35 q 268 -83 239 -69 q 356 -97 297 -97 q 439 -72 407 -97 q 488 -8 471 -47 q 511 76 506 31 q 517 164 517 122 q 467 101 494 125 q 411 63 440 76 q 353 46 382 50 q 297 42 324 42 q 203 56 246 42 q 131 101 161 69 q 83 182 100 132 q 67 303 67 232 q 69 373 67 329 q 76 472 72 417 q 85 590 81 526 q 96 721 90 654 q 135 764 99 764 l 179 764 q 251 756 224 764 q 295 731 279 747 q 317 691 311 715 q 322 636 322 667 m 444 854 q 397 881 428 854 q 335 944 367 908 q 281 1016 304 981 q 258 1067 258 1051 q 276 1094 258 1079 q 317 1121 293 1108 q 368 1142 342 1133 q 411 1151 394 1151 q 428 1148 422 1151 q 440 1131 435 1144 q 469 1059 454 1094 q 496 994 483 1024 q 516 945 508 965 q 524 921 524 925 q 515 901 524 913 q 493 878 506 889 q 467 861 481 868 q 444 854 453 854 z "},"è":{"ha":739,"x_min":39,"x_max":713,"o":"m 378 -14 q 256 1 317 -14 q 148 54 196 17 q 69 154 100 92 q 39 311 39 217 q 44 394 39 346 q 66 494 50 443 q 110 597 82 546 q 185 688 139 647 q 296 753 231 728 q 451 778 361 778 q 574 761 524 778 q 654 716 624 744 q 699 650 685 688 q 713 569 713 613 q 687 461 713 506 q 620 387 661 417 q 529 340 579 357 q 431 315 479 324 q 341 303 382 306 q 278 301 300 301 q 285 249 278 275 q 308 204 293 224 q 349 172 324 185 q 410 160 374 160 q 466 172 446 160 q 499 198 486 183 q 520 224 511 213 q 544 236 529 236 q 569 233 551 236 q 604 218 586 229 q 636 188 622 207 q 650 138 650 168 q 625 68 650 97 q 560 21 600 39 q 472 -6 521 3 q 378 -14 424 -14 m 404 593 q 352 576 374 593 q 316 532 331 558 q 294 474 301 506 q 282 413 286 442 q 422 442 368 414 q 475 521 475 469 q 458 571 475 549 q 404 593 440 593 m 451 854 q 404 881 435 854 q 342 944 374 908 q 288 1016 311 981 q 265 1067 265 1051 q 283 1094 265 1079 q 324 1121 300 1108 q 375 1142 349 1133 q 418 1151 401 1151 q 435 1148 429 1151 q 447 1131 442 1144 q 476 1059 461 1094 q 503 994 490 1024 q 523 945 515 965 q 531 921 531 925 q 522 901 531 913 q 500 878 513 889 q 474 861 488 868 q 451 854 460 854 z "},"ẁ":{"ha":1165,"x_min":22,"x_max":1150,"o":"m 801 149 q 833 326 819 250 q 855 457 846 401 q 870 553 864 513 q 881 624 876 593 q 890 680 886 656 q 897 731 893 704 q 912 754 900 746 q 957 763 924 763 q 1008 760 975 763 q 1072 750 1040 758 q 1127 724 1104 742 q 1150 676 1150 707 q 1138 610 1150 654 q 1106 510 1125 567 q 1061 388 1086 453 q 1010 260 1036 324 q 961 140 985 197 q 921 42 938 83 q 899 8 910 17 q 863 0 889 0 l 781 0 q 717 10 742 0 q 676 36 692 19 q 653 74 661 53 q 640 121 644 96 q 611 311 626 192 q 583 593 596 431 q 567 511 576 563 q 548 400 558 460 q 526 278 538 340 q 506 162 515 215 q 488 70 496 108 q 474 21 479 32 q 456 3 467 7 q 426 0 446 0 l 329 0 q 267 10 293 0 q 223 38 242 21 q 192 76 204 54 q 175 121 181 97 q 60 569 99 418 q 22 732 22 721 q 35 754 22 744 q 67 764 47 764 q 169 759 126 764 q 241 742 213 754 q 285 707 269 729 q 304 649 300 685 q 310 569 306 629 q 319 434 314 510 q 328 281 324 358 q 338 149 333 203 q 365 286 354 235 q 382 372 375 338 q 394 433 389 407 q 406 496 399 460 q 422 586 413 532 q 447 731 431 640 q 521 764 453 764 q 601 761 564 764 q 668 748 639 758 q 718 717 697 738 q 747 663 739 697 q 752 643 750 653 q 757 615 754 633 q 763 565 760 597 q 772 479 767 533 q 783 344 776 425 q 801 149 790 264 m 594 854 q 547 881 578 854 q 485 944 517 908 q 431 1016 454 981 q 408 1067 408 1051 q 426 1094 408 1079 q 467 1121 443 1108 q 518 1142 492 1133 q 561 1151 544 1151 q 578 1148 572 1151 q 590 1131 585 1144 q 619 1059 604 1094 q 646 994 633 1024 q 666 945 658 965 q 674 921 674 925 q 665 901 674 913 q 643 878 656 889 q 617 861 631 868 q 594 854 603 854 z "},"à":{"ha":782,"x_min":15,"x_max":754,"o":"m 15 171 q 128 367 15 296 q 460 443 240 438 q 462 469 461 458 q 463 494 463 479 q 446 565 463 539 q 376 592 429 592 q 329 583 347 592 q 300 560 311 575 q 282 525 289 546 q 269 479 275 504 q 257 463 267 467 q 226 460 247 460 q 85 567 85 460 q 105 649 85 610 q 165 716 125 688 q 264 761 204 744 q 403 778 324 778 q 626 714 557 778 q 696 533 696 650 q 692 478 696 518 q 684 395 689 439 q 676 313 679 351 q 672 258 672 274 q 685 209 672 224 q 713 189 697 194 q 742 181 729 183 q 754 167 754 178 q 746 104 754 136 q 719 46 738 72 q 667 3 700 19 q 588 -14 635 -14 q 488 18 521 -14 q 443 107 454 50 q 356 22 410 58 q 217 -14 303 -14 q 138 -4 175 -14 q 74 28 101 6 q 31 85 47 50 q 15 171 15 121 m 447 329 q 376 324 411 329 q 315 306 342 318 q 271 275 288 294 q 254 228 254 256 q 274 183 254 196 q 318 171 294 171 q 363 181 340 171 q 402 210 385 190 q 432 260 419 231 q 447 329 444 289 m 415 854 q 368 881 399 854 q 306 944 338 908 q 252 1016 275 981 q 229 1067 229 1051 q 247 1094 229 1079 q 288 1121 264 1108 q 339 1142 313 1133 q 382 1151 365 1151 q 399 1148 393 1151 q 411 1131 406 1144 q 440 1059 425 1094 q 467 994 454 1024 q 487 945 479 965 q 494 921 494 925 q 485 901 494 913 q 464 878 476 889 q 438 861 451 868 q 415 854 424 854 z "},"˝":{"ha":714,"x_min":14,"x_max":700,"o":"m 85 854 q 63 861 75 854 q 40 878 51 868 q 22 901 29 889 q 14 921 14 913 q 28 944 14 924 q 63 996 42 965 q 108 1063 83 1026 q 156 1131 133 1099 q 169 1147 164 1143 q 188 1151 175 1151 q 231 1143 204 1151 q 282 1122 257 1135 q 325 1095 307 1110 q 343 1068 343 1081 q 327 1039 343 1058 q 286 996 311 1019 q 231 947 261 972 q 171 901 200 922 q 119 867 142 881 q 85 854 96 854 m 442 854 q 420 861 432 854 q 397 878 408 868 q 378 901 386 889 q 371 921 371 913 q 385 944 371 924 q 419 996 399 965 q 465 1063 440 1026 q 513 1131 490 1099 q 526 1147 521 1143 q 544 1151 532 1151 q 588 1143 561 1151 q 639 1122 614 1135 q 682 1095 664 1110 q 700 1068 700 1081 q 684 1039 700 1058 q 643 996 668 1019 q 588 947 618 972 q 528 901 557 922 q 476 867 499 881 q 442 854 453 854 z "},"ű":{"ha":833,"x_min":61,"x_max":872,"o":"m 322 646 q 317 564 322 617 q 308 454 313 511 q 298 347 303 397 q 293 275 293 297 q 317 199 293 226 q 385 172 342 172 q 448 202 422 172 q 490 280 474 232 q 515 389 506 328 q 530 513 525 450 q 538 634 535 575 q 546 736 542 693 q 554 756 547 747 q 576 764 561 764 l 626 764 q 697 755 669 764 q 740 729 724 746 q 762 688 756 713 q 768 632 768 664 q 766 573 768 611 q 758 467 764 535 q 745 297 753 400 q 726 40 738 193 q 720 6 724 11 q 697 0 717 0 l 643 0 q 574 10 601 0 q 531 35 547 19 q 507 71 514 50 q 499 114 500 92 q 452 53 478 78 q 399 13 426 28 q 342 -8 371 -1 q 285 -14 313 -14 q 190 3 232 -14 q 120 50 149 21 q 76 119 92 79 q 61 206 61 160 q 63 265 61 224 q 69 357 65 306 q 76 466 72 408 q 84 575 81 524 q 91 665 88 626 q 96 721 94 704 q 107 755 99 746 q 135 764 115 764 l 179 764 q 250 756 222 764 q 294 732 278 747 q 316 695 310 717 q 322 646 322 674 m 257 854 q 235 861 247 854 q 213 878 224 868 q 194 901 201 889 q 186 921 186 913 q 200 944 186 924 q 235 996 214 965 q 281 1063 256 1026 q 328 1131 306 1099 q 342 1147 336 1143 q 360 1151 347 1151 q 403 1143 376 1151 q 454 1122 429 1135 q 497 1095 479 1110 q 515 1068 515 1081 q 499 1039 515 1058 q 458 996 483 1019 q 403 947 433 972 q 343 901 372 922 q 291 867 314 881 q 257 854 268 854 m 614 854 q 592 861 604 854 q 569 878 581 868 q 551 901 558 889 q 543 921 543 913 q 557 944 543 924 q 592 996 571 965 q 638 1063 613 1026 q 685 1131 663 1099 q 699 1147 693 1143 q 717 1151 704 1151 q 760 1143 733 1151 q 811 1122 786 1135 q 854 1095 836 1110 q 872 1068 872 1081 q 856 1039 872 1058 q 815 996 840 1019 q 760 947 790 972 q 700 901 729 922 q 648 867 671 881 q 614 854 625 854 z "},"ő":{"ha":831,"x_min":40,"x_max":904,"o":"m 368 -14 q 209 13 272 -14 q 108 88 146 40 q 56 198 71 135 q 40 333 40 261 q 60 497 40 417 q 129 639 81 576 q 258 740 178 701 q 457 778 338 778 q 708 692 632 778 q 783 453 783 607 q 777 358 783 410 q 753 254 771 306 q 706 154 736 203 q 631 68 676 106 q 520 8 585 31 q 368 -14 456 -14 m 433 593 q 349 566 381 593 q 302 501 318 539 q 281 420 286 463 q 276 349 276 378 q 306 214 276 257 q 389 171 335 171 q 469 201 438 171 q 517 275 500 232 q 541 365 535 318 q 547 444 547 413 q 522 553 547 514 q 433 593 496 593 m 289 854 q 267 861 279 854 q 244 878 256 868 q 226 901 233 889 q 218 921 218 913 q 232 944 218 924 q 267 996 246 965 q 313 1063 288 1026 q 360 1131 338 1099 q 374 1147 368 1143 q 392 1151 379 1151 q 435 1143 408 1151 q 486 1122 461 1135 q 529 1095 511 1110 q 547 1068 547 1081 q 531 1039 547 1058 q 490 996 515 1019 q 435 947 465 972 q 375 901 404 922 q 323 867 346 881 q 289 854 300 854 m 646 854 q 624 861 636 854 q 601 878 613 868 q 583 901 590 889 q 575 921 575 913 q 589 944 575 924 q 624 996 603 965 q 669 1063 644 1026 q 717 1131 694 1099 q 731 1147 725 1143 q 749 1151 736 1151 q 792 1143 765 1151 q 843 1122 818 1135 q 886 1095 868 1110 q 904 1068 904 1081 q 888 1039 904 1058 q 847 996 872 1019 q 792 947 822 972 q 732 901 761 922 q 680 867 703 881 q 646 854 657 854 z "},"ˆ":{"ha":501,"x_min":14,"x_max":488,"o":"m 411 854 q 383 866 400 854 q 348 898 367 878 q 309 943 329 918 q 271 996 289 968 q 215 943 243 968 q 160 898 186 918 q 115 866 135 878 q 83 854 94 854 q 62 862 74 854 q 40 880 50 869 q 22 900 29 890 q 14 914 14 910 q 31 942 14 919 q 76 995 49 964 q 135 1062 103 1026 q 197 1131 168 1097 q 234 1146 206 1140 q 289 1151 263 1151 q 331 1147 307 1151 q 363 1131 356 1143 q 407 1056 385 1093 q 447 989 429 1019 q 476 938 465 958 q 488 914 488 917 q 479 901 488 911 q 459 881 471 892 q 434 863 447 871 q 411 854 421 854 z "},"ˇ":{"ha":501,"x_min":14,"x_max":488,"o":"m 90 1138 q 118 1126 101 1138 q 153 1098 135 1115 q 192 1058 172 1081 q 231 1010 211 1035 q 287 1058 258 1035 q 341 1098 315 1081 q 387 1126 367 1115 q 418 1138 407 1138 q 440 1130 428 1138 q 462 1112 451 1122 q 480 1092 472 1101 q 488 1078 488 1082 q 470 1053 488 1074 q 426 1003 453 1032 q 366 940 399 974 q 304 875 333 906 q 267 860 296 865 q 213 854 239 854 q 169 858 193 854 q 139 875 146 863 q 94 944 117 910 q 54 1006 72 978 q 25 1054 36 1035 q 14 1078 14 1074 q 22 1092 14 1082 q 42 1112 31 1101 q 67 1130 54 1122 q 90 1138 81 1138 z "},"û":{"ha":833,"x_min":61,"x_max":768,"o":"m 322 646 q 317 564 322 617 q 308 454 313 511 q 298 347 303 397 q 293 275 293 297 q 317 199 293 226 q 385 172 342 172 q 448 202 422 172 q 490 280 474 232 q 515 389 506 328 q 530 513 525 450 q 538 634 535 575 q 546 736 542 693 q 554 756 547 747 q 576 764 561 764 l 626 764 q 697 755 669 764 q 740 729 724 746 q 762 688 756 713 q 768 632 768 664 q 766 573 768 611 q 758 467 764 535 q 745 297 753 400 q 726 40 738 193 q 720 6 724 11 q 697 0 717 0 l 643 0 q 574 10 601 0 q 531 35 547 19 q 507 71 514 50 q 499 114 500 92 q 452 53 478 78 q 399 13 426 28 q 342 -8 371 -1 q 285 -14 313 -14 q 190 3 232 -14 q 120 50 149 21 q 76 119 92 79 q 61 206 61 160 q 63 265 61 224 q 69 357 65 306 q 76 466 72 408 q 84 575 81 524 q 91 665 88 626 q 96 721 94 704 q 107 755 99 746 q 135 764 115 764 l 179 764 q 250 756 222 764 q 294 732 278 747 q 316 695 310 717 q 322 646 322 674 m 596 854 q 568 866 585 854 q 533 898 551 878 q 494 943 514 918 q 456 996 474 968 q 399 943 428 968 q 345 898 371 918 q 299 866 319 878 q 268 854 279 854 q 247 862 258 854 q 224 880 235 869 q 206 900 214 890 q 199 914 199 910 q 216 942 199 919 q 260 995 233 964 q 320 1062 288 1026 q 382 1131 353 1097 q 419 1146 390 1140 q 474 1151 447 1151 q 516 1147 492 1151 q 547 1131 540 1143 q 592 1056 569 1093 q 632 989 614 1019 q 661 938 650 958 q 672 914 672 917 q 664 901 672 911 q 644 881 656 892 q 619 863 632 871 q 596 854 606 854 z "},"ô":{"ha":831,"x_min":40,"x_max":783,"o":"m 368 -14 q 209 13 272 -14 q 108 88 146 40 q 56 198 71 135 q 40 333 40 261 q 60 497 40 417 q 129 639 81 576 q 258 740 178 701 q 457 778 338 778 q 708 692 632 778 q 783 453 783 607 q 777 358 783 410 q 753 254 771 306 q 706 154 736 203 q 631 68 676 106 q 520 8 585 31 q 368 -14 456 -14 m 433 593 q 349 566 381 593 q 302 501 318 539 q 281 420 286 463 q 276 349 276 378 q 306 214 276 257 q 389 171 335 171 q 469 201 438 171 q 517 275 500 232 q 541 365 535 318 q 547 444 547 413 q 522 553 547 514 q 433 593 496 593 m 636 854 q 608 866 625 854 q 573 898 592 878 q 534 943 554 918 q 496 996 514 968 q 440 943 468 968 q 385 898 411 918 q 340 866 360 878 q 308 854 319 854 q 287 862 299 854 q 265 880 275 869 q 247 900 254 890 q 239 914 239 910 q 256 942 239 919 q 301 995 274 964 q 360 1062 328 1026 q 422 1131 393 1097 q 459 1146 431 1140 q 514 1151 488 1151 q 556 1147 532 1151 q 588 1131 581 1143 q 632 1056 610 1093 q 672 989 654 1019 q 701 938 690 958 q 713 914 713 917 q 704 901 713 911 q 684 881 696 892 q 659 863 672 871 q 636 854 646 854 z "},"ŷ":{"ha":847,"x_min":44,"x_max":782,"o":"m 322 636 q 318 560 322 604 q 309 473 314 517 q 300 391 304 429 q 296 332 296 353 q 322 253 296 279 q 385 228 347 228 q 489 296 450 228 q 538 476 528 364 l 560 736 q 570 758 561 751 q 590 764 579 764 l 640 764 q 695 759 669 764 q 740 741 721 754 q 771 706 760 728 q 782 649 782 683 q 780 597 782 635 q 773 487 778 558 q 760 306 768 415 q 740 40 751 197 q 699 -112 733 -51 q 614 -208 665 -172 q 499 -257 563 -243 q 368 -271 435 -271 q 238 -258 297 -271 q 136 -224 179 -246 q 69 -172 93 -201 q 44 -110 44 -143 q 56 -64 44 -83 q 88 -32 68 -44 q 133 -13 107 -19 q 186 -7 158 -7 q 206 -21 200 -7 q 226 -52 213 -35 q 268 -83 239 -69 q 356 -97 297 -97 q 439 -72 407 -97 q 488 -8 471 -47 q 511 76 506 31 q 517 164 517 122 q 467 101 494 125 q 411 63 440 76 q 353 46 382 50 q 297 42 324 42 q 203 56 246 42 q 131 101 161 69 q 83 182 100 132 q 67 303 67 232 q 69 373 67 329 q 76 472 72 417 q 85 590 81 526 q 96 721 90 654 q 135 764 99 764 l 179 764 q 251 756 224 764 q 295 731 279 747 q 317 691 311 715 q 322 636 322 667 m 601 854 q 574 866 590 854 q 538 898 557 878 q 499 943 519 918 q 461 996 479 968 q 405 943 433 968 q 351 898 376 918 q 305 866 325 878 q 274 854 285 854 q 252 862 264 854 q 230 880 240 869 q 212 900 219 890 q 204 914 204 910 q 222 942 204 919 q 266 995 239 964 q 326 1062 293 1026 q 388 1131 358 1097 q 424 1146 396 1140 q 479 1151 453 1151 q 522 1147 497 1151 q 553 1131 546 1143 q 597 1056 575 1093 q 638 989 619 1019 q 667 938 656 958 q 678 914 678 917 q 669 901 678 911 q 649 881 661 892 q 624 863 638 871 q 601 854 611 854 z "},"ĉ":{"ha":706,"x_min":40,"x_max":685,"o":"m 407 171 q 477 182 447 171 q 529 207 507 193 q 567 232 551 221 q 594 243 582 243 q 626 201 626 243 q 622 174 626 192 q 611 138 618 157 q 597 103 604 119 q 582 78 589 86 q 558 56 575 71 q 511 25 540 40 q 443 -2 482 10 q 357 -14 404 -14 q 248 2 304 -14 q 146 58 192 18 q 70 165 100 97 q 40 333 40 232 q 45 416 40 369 q 65 512 50 463 q 106 609 81 561 q 175 694 132 657 q 278 755 218 732 q 422 778 339 778 q 540 762 490 778 q 621 719 589 746 q 669 656 653 692 q 685 578 685 619 q 638 467 685 503 q 504 432 590 432 q 476 435 483 432 q 468 451 468 439 q 467 511 468 485 q 459 556 465 538 q 440 583 453 574 q 404 593 428 593 q 335 565 361 593 q 297 498 310 538 q 280 417 283 458 q 276 347 276 375 q 308 210 276 249 q 407 171 339 171 m 603 854 q 575 866 592 854 q 540 898 558 878 q 501 943 521 918 q 463 996 481 968 q 406 943 435 968 q 352 898 378 918 q 306 866 326 878 q 275 854 286 854 q 253 862 265 854 q 231 880 242 869 q 213 900 221 890 q 206 914 206 910 q 223 942 206 919 q 267 995 240 964 q 327 1062 294 1026 q 389 1131 360 1097 q 426 1146 397 1140 q 481 1151 454 1151 q 523 1147 499 1151 q 554 1131 547 1143 q 599 1056 576 1093 q 639 989 621 1019 q 668 938 657 958 q 679 914 679 917 q 671 901 679 911 q 651 881 663 892 q 626 863 639 871 q 603 854 613 854 z "},"ê":{"ha":739,"x_min":39,"x_max":713,"o":"m 378 -14 q 256 1 317 -14 q 148 54 196 17 q 69 154 100 92 q 39 311 39 217 q 44 394 39 346 q 66 494 50 443 q 110 597 82 546 q 185 688 139 647 q 296 753 231 728 q 451 778 361 778 q 574 761 524 778 q 654 716 624 744 q 699 650 685 688 q 713 569 713 613 q 687 461 713 506 q 620 387 661 417 q 529 340 579 357 q 431 315 479 324 q 341 303 382 306 q 278 301 300 301 q 285 249 278 275 q 308 204 293 224 q 349 172 324 185 q 410 160 374 160 q 466 172 446 160 q 499 198 486 183 q 520 224 511 213 q 544 236 529 236 q 569 233 551 236 q 604 218 586 229 q 636 188 622 207 q 650 138 650 168 q 625 68 650 97 q 560 21 600 39 q 472 -6 521 3 q 378 -14 424 -14 m 404 593 q 352 576 374 593 q 316 532 331 558 q 294 474 301 506 q 282 413 286 442 q 422 442 368 414 q 475 521 475 469 q 458 571 475 549 q 404 593 440 593 m 622 854 q 594 866 611 854 q 559 898 578 878 q 520 943 540 918 q 482 996 500 968 q 426 943 454 968 q 372 898 397 918 q 326 866 346 878 q 294 854 306 854 q 273 862 285 854 q 251 880 261 869 q 233 900 240 890 q 225 914 225 910 q 242 942 225 919 q 287 995 260 964 q 347 1062 314 1026 q 408 1131 379 1097 q 445 1146 417 1140 q 500 1151 474 1151 q 542 1147 518 1151 q 574 1131 567 1143 q 618 1056 596 1093 q 658 989 640 1019 q 688 938 676 958 q 699 914 699 917 q 690 901 699 911 q 670 881 682 892 q 645 863 658 871 q 622 854 632 854 z "},"ŝ":{"ha":653,"x_min":14,"x_max":629,"o":"m 381 778 q 554 731 499 778 q 610 613 610 685 q 572 519 610 551 q 461 488 533 488 q 435 492 442 488 q 428 507 428 496 q 426 535 428 519 q 416 566 424 551 q 392 590 408 581 q 347 600 376 600 q 285 581 308 600 q 261 535 261 563 q 285 488 261 506 q 347 456 310 471 q 426 424 383 440 q 506 382 469 408 q 567 316 543 356 q 592 214 592 276 q 521 50 592 114 q 308 -14 450 -14 q 219 -8 269 -14 q 122 12 168 -1 q 45 47 76 25 q 14 103 14 69 q 19 133 14 115 q 34 168 24 151 q 59 197 44 185 q 94 208 74 208 q 125 200 111 208 q 158 183 139 192 q 204 165 176 174 q 278 157 232 157 q 340 165 313 157 q 367 203 367 174 q 344 245 367 229 q 288 275 322 261 q 215 305 254 289 q 141 347 175 321 q 85 415 107 374 q 63 521 63 456 q 91 641 63 592 q 165 721 119 690 q 267 765 210 751 q 381 778 324 778 m 553 854 q 525 866 542 854 q 490 898 508 878 q 451 943 471 918 q 413 996 431 968 q 356 943 385 968 q 302 898 328 918 q 256 866 276 878 q 225 854 236 854 q 203 862 215 854 q 181 880 192 869 q 163 900 171 890 q 156 914 156 910 q 173 942 156 919 q 217 995 190 964 q 277 1062 244 1026 q 339 1131 310 1097 q 376 1146 347 1140 q 431 1151 404 1151 q 473 1147 449 1151 q 504 1131 497 1143 q 549 1056 526 1093 q 589 989 571 1019 q 618 938 607 958 q 629 914 629 917 q 621 901 629 911 q 601 881 613 892 q 576 863 589 871 q 553 854 563 854 z "},"ŵ":{"ha":1165,"x_min":22,"x_max":1150,"o":"m 801 149 q 833 326 819 250 q 855 457 846 401 q 870 553 864 513 q 881 624 876 593 q 890 680 886 656 q 897 731 893 704 q 912 754 900 746 q 957 763 924 763 q 1008 760 975 763 q 1072 750 1040 758 q 1127 724 1104 742 q 1150 676 1150 707 q 1138 610 1150 654 q 1106 510 1125 567 q 1061 388 1086 453 q 1010 260 1036 324 q 961 140 985 197 q 921 42 938 83 q 899 8 910 17 q 863 0 889 0 l 781 0 q 717 10 742 0 q 676 36 692 19 q 653 74 661 53 q 640 121 644 96 q 611 311 626 192 q 583 593 596 431 q 567 511 576 563 q 548 400 558 460 q 526 278 538 340 q 506 162 515 215 q 488 70 496 108 q 474 21 479 32 q 456 3 467 7 q 426 0 446 0 l 329 0 q 267 10 293 0 q 223 38 242 21 q 192 76 204 54 q 175 121 181 97 q 60 569 99 418 q 22 732 22 721 q 35 754 22 744 q 67 764 47 764 q 169 759 126 764 q 241 742 213 754 q 285 707 269 729 q 304 649 300 685 q 310 569 306 629 q 319 434 314 510 q 328 281 324 358 q 338 149 333 203 q 365 286 354 235 q 382 372 375 338 q 394 433 389 407 q 406 496 399 460 q 422 586 413 532 q 447 731 431 640 q 521 764 453 764 q 601 761 564 764 q 668 748 639 758 q 718 717 697 738 q 747 663 739 697 q 752 643 750 653 q 757 615 754 633 q 763 565 760 597 q 772 479 767 533 q 783 344 776 425 q 801 149 790 264 m 751 854 q 724 866 740 854 q 688 898 707 878 q 649 943 669 918 q 611 996 629 968 q 555 943 583 968 q 501 898 526 918 q 455 866 475 878 q 424 854 435 854 q 402 862 414 854 q 380 880 390 869 q 362 900 369 890 q 354 914 354 910 q 372 942 354 919 q 416 995 389 964 q 476 1062 443 1026 q 538 1131 508 1097 q 574 1146 546 1140 q 629 1151 603 1151 q 672 1147 647 1151 q 703 1131 696 1143 q 747 1056 725 1093 q 788 989 769 1019 q 817 938 806 958 q 828 914 828 917 q 819 901 828 911 q 799 881 811 892 q 774 863 788 871 q 751 854 761 854 z "},"â":{"ha":782,"x_min":15,"x_max":754,"o":"m 15 171 q 128 367 15 296 q 460 443 240 438 q 462 469 461 458 q 463 494 463 479 q 446 565 463 539 q 376 592 429 592 q 329 583 347 592 q 300 560 311 575 q 282 525 289 546 q 269 479 275 504 q 257 463 267 467 q 226 460 247 460 q 85 567 85 460 q 105 649 85 610 q 165 716 125 688 q 264 761 204 744 q 403 778 324 778 q 626 714 557 778 q 696 533 696 650 q 692 478 696 518 q 684 395 689 439 q 676 313 679 351 q 672 258 672 274 q 685 209 672 224 q 713 189 697 194 q 742 181 729 183 q 754 167 754 178 q 746 104 754 136 q 719 46 738 72 q 667 3 700 19 q 588 -14 635 -14 q 488 18 521 -14 q 443 107 454 50 q 356 22 410 58 q 217 -14 303 -14 q 138 -4 175 -14 q 74 28 101 6 q 31 85 47 50 q 15 171 15 121 m 447 329 q 376 324 411 329 q 315 306 342 318 q 271 275 288 294 q 254 228 254 256 q 274 183 254 196 q 318 171 294 171 q 363 181 340 171 q 402 210 385 190 q 432 260 419 231 q 447 329 444 289 m 592 854 q 564 866 581 854 q 528 898 547 878 q 490 943 510 918 q 451 996 469 968 q 395 943 424 968 q 341 898 367 918 q 295 866 315 878 q 264 854 275 854 q 242 862 254 854 q 220 880 231 869 q 202 900 210 890 q 194 914 194 910 q 212 942 194 919 q 256 995 229 964 q 316 1062 283 1026 q 378 1131 349 1097 q 415 1146 386 1140 q 469 1151 443 1151 q 512 1147 488 1151 q 543 1131 536 1143 q 588 1056 565 1093 q 628 989 610 1019 q 657 938 646 958 q 668 914 668 917 q 660 901 668 911 q 640 881 651 892 q 615 863 628 871 q 592 854 601 854 z "},"ř":{"ha":665,"x_min":58,"x_max":665,"o":"m 506 432 q 487 433 497 432 q 467 435 476 433 q 450 441 457 438 q 443 450 443 444 q 444 483 443 468 q 446 515 446 499 q 438 565 446 546 q 404 585 429 585 q 340 534 365 585 q 307 382 314 483 q 299 281 304 338 q 290 173 294 225 q 283 81 286 121 q 281 28 281 40 q 271 7 281 14 q 250 0 261 0 l 200 0 q 130 9 157 0 q 87 35 103 18 q 65 76 71 51 q 58 132 58 100 q 60 191 58 153 q 68 297 63 229 q 81 467 74 364 q 100 724 89 571 q 129 764 103 764 l 183 764 q 249 756 222 764 q 292 733 275 747 q 316 699 308 718 q 326 658 324 679 q 366 713 343 690 q 414 751 389 736 q 465 772 439 765 q 514 778 492 778 q 567 768 540 778 q 617 739 594 758 q 652 689 639 719 q 665 617 665 658 q 654 546 665 579 q 622 487 643 513 q 572 447 601 461 q 506 432 542 432 m 235 1138 q 263 1126 246 1138 q 298 1098 279 1115 q 336 1058 317 1081 q 375 1010 356 1035 q 431 1058 403 1035 q 485 1098 460 1081 q 531 1126 511 1115 q 563 1138 551 1138 q 584 1130 572 1138 q 606 1112 596 1122 q 624 1092 617 1101 q 632 1078 632 1082 q 615 1053 632 1074 q 570 1003 597 1032 q 510 940 543 974 q 449 875 478 906 q 412 860 440 865 q 357 854 383 854 q 314 858 338 854 q 283 875 290 863 q 239 944 261 910 q 199 1006 217 978 q 169 1054 181 1035 q 158 1078 158 1074 q 167 1092 158 1082 q 187 1112 175 1101 q 212 1130 199 1122 q 235 1138 225 1138 z "},"ľ":{"ha":492,"x_min":57,"x_max":604,"o":"m 468 863 q 412 883 428 863 q 396 936 396 904 q 406 983 396 963 q 433 1016 417 1003 q 471 1035 450 1029 q 514 1042 492 1042 q 585 1010 565 1042 q 604 932 604 979 q 592 854 604 892 q 560 788 581 817 q 511 741 539 758 q 453 724 483 724 q 410 741 421 724 q 400 782 400 758 q 410 793 400 786 q 434 810 421 800 q 458 833 447 821 q 468 863 468 846 m 218 -12 q 94 33 132 -12 q 57 185 57 79 q 59 226 57 201 q 65 291 61 251 q 74 389 68 331 q 85 531 79 447 q 99 726 92 614 q 115 988 107 839 q 122 1024 117 1018 q 144 1028 126 1028 l 199 1028 q 268 1018 240 1028 q 313 992 296 1008 q 336 953 329 975 q 343 908 343 932 q 340 828 343 881 q 331 711 336 776 q 319 575 325 646 q 308 440 314 504 q 299 324 303 375 q 296 246 296 272 q 309 194 296 210 q 338 173 322 179 q 366 165 353 167 q 379 156 379 163 q 372 95 379 125 q 347 41 365 65 q 298 2 329 17 q 218 -12 267 -12 z "},"č":{"ha":706,"x_min":40,"x_max":703,"o":"m 407 171 q 477 182 447 171 q 529 207 507 193 q 567 232 551 221 q 594 243 582 243 q 626 201 626 243 q 622 174 626 192 q 611 138 618 157 q 597 103 604 119 q 582 78 589 86 q 558 56 575 71 q 511 25 540 40 q 443 -2 482 10 q 357 -14 404 -14 q 248 2 304 -14 q 146 58 192 18 q 70 165 100 97 q 40 333 40 232 q 45 416 40 369 q 65 512 50 463 q 106 609 81 561 q 175 694 132 657 q 278 755 218 732 q 422 778 339 778 q 540 762 490 778 q 621 719 589 746 q 669 656 653 692 q 685 578 685 619 q 638 467 685 503 q 504 432 590 432 q 476 435 483 432 q 468 451 468 439 q 467 511 468 485 q 459 556 465 538 q 440 583 453 574 q 404 593 428 593 q 335 565 361 593 q 297 498 310 538 q 280 417 283 458 q 276 347 276 375 q 308 210 276 249 q 407 171 339 171 m 306 1138 q 333 1126 317 1138 q 369 1098 350 1115 q 407 1058 388 1081 q 446 1010 426 1035 q 502 1058 474 1035 q 556 1098 531 1081 q 602 1126 582 1115 q 633 1138 622 1138 q 655 1130 643 1138 q 677 1112 667 1122 q 695 1092 688 1101 q 703 1078 703 1082 q 685 1053 703 1074 q 641 1003 668 1032 q 581 940 614 974 q 519 875 549 906 q 483 860 511 865 q 428 854 454 854 q 385 858 408 854 q 354 875 361 863 q 310 944 332 910 q 269 1006 288 978 q 240 1054 251 1035 q 229 1078 229 1074 q 238 1092 229 1082 q 258 1112 246 1101 q 283 1130 269 1122 q 306 1138 296 1138 z "},"ň":{"ha":860,"x_min":57,"x_max":793,"o":"m 531 122 q 535 202 531 153 q 545 306 540 251 q 555 413 550 361 q 560 499 560 464 q 542 563 560 535 q 475 592 525 592 q 394 568 426 592 q 341 482 363 544 q 306 310 319 419 q 279 28 292 200 q 272 6 278 11 q 249 0 267 0 l 199 0 q 128 9 156 0 q 85 35 101 18 q 63 76 69 51 q 57 132 57 100 q 59 191 57 153 q 67 297 61 229 q 80 467 72 364 q 99 724 88 571 q 106 760 100 754 q 128 764 110 764 l 182 764 q 251 754 224 764 q 294 728 278 744 q 318 691 311 713 q 326 647 325 669 q 425 749 369 721 q 564 778 481 778 q 665 765 622 778 q 737 723 708 753 q 779 645 765 693 q 793 526 793 597 q 790 463 793 504 q 783 372 788 421 q 774 269 779 322 q 765 169 769 215 q 758 89 761 124 q 756 43 756 54 q 749 6 756 13 q 718 0 742 0 l 674 0 q 601 8 629 0 q 558 32 574 17 q 537 70 543 47 q 531 122 531 93 m 325 1138 q 353 1126 336 1138 q 388 1098 369 1115 q 426 1058 407 1081 q 465 1010 446 1035 q 522 1058 493 1035 q 576 1098 550 1081 q 622 1126 601 1115 q 653 1138 642 1138 q 674 1130 663 1138 q 697 1112 686 1122 q 715 1092 707 1101 q 722 1078 722 1082 q 705 1053 722 1074 q 660 1003 688 1032 q 601 940 633 974 q 539 875 568 906 q 502 860 531 865 q 447 854 474 854 q 404 858 428 854 q 374 875 381 863 q 329 944 351 910 q 289 1006 307 978 q 260 1054 271 1035 q 249 1078 249 1074 q 257 1092 249 1082 q 277 1112 265 1101 q 302 1130 289 1122 q 325 1138 315 1138 z "},"ě":{"ha":739,"x_min":39,"x_max":726,"o":"m 378 -14 q 256 1 317 -14 q 148 54 196 17 q 69 154 100 92 q 39 311 39 217 q 44 394 39 346 q 66 494 50 443 q 110 597 82 546 q 185 688 139 647 q 296 753 231 728 q 451 778 361 778 q 574 761 524 778 q 654 716 624 744 q 699 650 685 688 q 713 569 713 613 q 687 461 713 506 q 620 387 661 417 q 529 340 579 357 q 431 315 479 324 q 341 303 382 306 q 278 301 300 301 q 285 249 278 275 q 308 204 293 224 q 349 172 324 185 q 410 160 374 160 q 466 172 446 160 q 499 198 486 183 q 520 224 511 213 q 544 236 529 236 q 569 233 551 236 q 604 218 586 229 q 636 188 622 207 q 650 138 650 168 q 625 68 650 97 q 560 21 600 39 q 472 -6 521 3 q 378 -14 424 -14 m 404 593 q 352 576 374 593 q 316 532 331 558 q 294 474 301 506 q 282 413 286 442 q 422 442 368 414 q 475 521 475 469 q 458 571 475 549 q 404 593 440 593 m 329 1138 q 357 1126 340 1138 q 392 1098 374 1115 q 431 1058 411 1081 q 469 1010 450 1035 q 526 1058 497 1035 q 580 1098 554 1081 q 626 1126 606 1115 q 657 1138 646 1138 q 678 1130 667 1138 q 701 1112 690 1122 q 719 1092 711 1101 q 726 1078 726 1082 q 709 1053 726 1074 q 665 1003 692 1032 q 605 940 638 974 q 543 875 572 906 q 506 860 535 865 q 451 854 478 854 q 408 858 432 854 q 378 875 385 863 q 333 944 356 910 q 293 1006 311 978 q 264 1054 275 1035 q 253 1078 253 1074 q 261 1092 253 1082 q 281 1112 269 1101 q 306 1130 293 1122 q 329 1138 319 1138 z "},"š":{"ha":653,"x_min":14,"x_max":658,"o":"m 381 778 q 554 731 499 778 q 610 613 610 685 q 572 519 610 551 q 461 488 533 488 q 435 492 442 488 q 428 507 428 496 q 426 535 428 519 q 416 566 424 551 q 392 590 408 581 q 347 600 376 600 q 285 581 308 600 q 261 535 261 563 q 285 488 261 506 q 347 456 310 471 q 426 424 383 440 q 506 382 469 408 q 567 316 543 356 q 592 214 592 276 q 521 50 592 114 q 308 -14 450 -14 q 219 -8 269 -14 q 122 12 168 -1 q 45 47 76 25 q 14 103 14 69 q 19 133 14 115 q 34 168 24 151 q 59 197 44 185 q 94 208 74 208 q 125 200 111 208 q 158 183 139 192 q 204 165 176 174 q 278 157 232 157 q 340 165 313 157 q 367 203 367 174 q 344 245 367 229 q 288 275 322 261 q 215 305 254 289 q 141 347 175 321 q 85 415 107 374 q 63 521 63 456 q 91 641 63 592 q 165 721 119 690 q 267 765 210 751 q 381 778 324 778 m 261 1138 q 289 1126 272 1138 q 324 1098 306 1115 q 363 1058 343 1081 q 401 1010 382 1035 q 458 1058 429 1035 q 512 1098 486 1081 q 558 1126 538 1115 q 589 1138 578 1138 q 610 1130 599 1138 q 633 1112 622 1122 q 651 1092 643 1101 q 658 1078 658 1082 q 641 1053 658 1074 q 597 1003 624 1032 q 537 940 569 974 q 475 875 504 906 q 438 860 467 865 q 383 854 410 854 q 340 858 364 854 q 310 875 317 863 q 265 944 288 910 q 225 1006 243 978 q 196 1054 207 1035 q 185 1078 185 1074 q 193 1092 185 1082 q 213 1112 201 1101 q 238 1130 225 1122 q 261 1138 251 1138 z "},"ž":{"ha":713,"x_min":3,"x_max":688,"o":"m 18 0 q 3 15 3 0 l 7 90 q 33 163 8 128 q 101 249 57 197 q 211 378 146 300 q 363 583 276 457 l 101 583 q 88 588 90 583 q 86 603 86 593 l 90 667 q 95 702 92 685 q 109 733 99 719 q 139 756 119 747 q 190 764 158 764 l 665 764 q 681 760 674 764 q 688 744 688 756 l 682 669 q 654 596 681 635 q 618 551 650 589 q 540 456 586 514 q 437 327 493 399 q 326 181 381 256 l 624 181 q 639 176 632 181 q 646 161 646 172 l 640 93 q 617 26 638 51 q 535 0 597 0 l 18 0 m 283 1138 q 311 1126 294 1138 q 347 1098 328 1115 q 385 1058 365 1081 q 424 1010 404 1035 q 480 1058 451 1035 q 534 1098 508 1081 q 580 1126 560 1115 q 611 1138 600 1138 q 633 1130 621 1138 q 655 1112 644 1122 q 673 1092 665 1101 q 681 1078 681 1082 q 663 1053 681 1074 q 619 1003 646 1032 q 559 940 592 974 q 497 875 526 906 q 460 860 489 865 q 406 854 432 854 q 363 858 386 854 q 332 875 339 863 q 288 944 310 910 q 247 1006 265 978 q 218 1054 229 1035 q 207 1078 207 1074 q 215 1092 207 1082 q 235 1112 224 1101 q 260 1130 247 1122 q 283 1138 274 1138 z "},"ĝ":{"ha":843,"x_min":46,"x_max":778,"o":"m 511 164 q 426 72 476 101 q 301 42 376 42 q 197 60 244 42 q 117 117 150 78 q 65 215 83 156 q 46 356 46 274 q 60 497 46 422 q 110 633 74 571 q 211 737 147 696 q 375 778 275 778 q 447 769 417 778 q 498 744 476 760 q 533 708 519 729 q 553 664 546 688 q 553 674 553 663 q 556 701 554 686 q 558 731 557 717 q 558 750 558 746 q 576 764 560 764 l 640 764 q 745 734 713 764 q 778 621 778 704 q 776 570 778 610 q 772 475 775 531 q 763 352 768 419 q 750 217 757 285 q 735 86 743 149 q 717 -24 726 24 q 683 -115 707 -71 q 617 -194 660 -160 q 506 -250 574 -229 q 342 -271 439 -271 q 213 -257 268 -271 q 122 -220 158 -243 q 67 -168 86 -197 q 49 -110 49 -139 q 60 -64 49 -83 q 89 -32 71 -44 q 128 -13 107 -19 q 169 -7 150 -7 q 204 -21 193 -7 q 229 -52 215 -35 q 268 -83 243 -69 q 346 -97 293 -97 q 474 -30 438 -97 q 511 164 511 38 m 394 226 q 473 250 444 226 q 517 307 501 274 q 536 376 532 340 q 540 439 540 413 q 515 558 540 522 q 438 593 489 593 q 357 565 386 593 q 313 499 328 538 q 294 423 299 461 q 290 364 290 385 q 314 260 290 294 q 394 226 338 226 m 643 854 q 615 866 632 854 q 580 898 599 878 q 541 943 561 918 q 503 996 521 968 q 447 943 475 968 q 392 898 418 918 q 347 866 367 878 q 315 854 326 854 q 294 862 306 854 q 272 880 282 869 q 253 900 261 890 q 246 914 246 910 q 263 942 246 919 q 308 995 281 964 q 367 1062 335 1026 q 429 1131 400 1097 q 466 1146 438 1140 q 521 1151 494 1151 q 563 1147 539 1151 q 594 1131 588 1143 q 639 1056 617 1093 q 679 989 661 1019 q 708 938 697 958 q 719 914 719 917 q 711 901 719 911 q 691 881 703 892 q 666 863 679 871 q 643 854 653 854 z "},"ĥ":{"ha":844,"x_min":56,"x_max":778,"o":"m 518 172 q 527 268 522 218 q 535 364 532 318 q 542 446 539 410 q 544 499 544 482 q 527 563 544 535 q 460 592 510 592 q 352 529 393 592 q 304 363 311 467 q 297 281 301 333 q 289 176 293 229 q 281 80 285 122 q 278 28 278 38 q 272 6 278 11 q 247 0 265 0 l 197 0 q 127 9 154 0 q 84 35 100 18 q 62 76 68 51 q 56 132 56 100 q 60 217 56 163 q 74 369 65 272 q 93 615 82 465 q 117 988 104 765 q 124 1024 118 1018 q 146 1028 128 1028 l 200 1028 q 269 1018 242 1028 q 314 992 297 1008 q 338 953 331 975 q 344 908 344 932 q 340 815 344 883 q 328 656 335 747 q 420 751 369 725 q 549 778 471 778 q 650 765 607 778 q 722 723 693 753 q 764 645 750 693 q 778 526 778 597 q 774 450 778 504 q 763 326 769 396 q 751 181 757 257 q 740 43 744 106 q 738 19 739 28 q 733 7 736 11 q 722 1 729 3 q 703 0 715 0 l 658 0 q 586 8 614 0 q 543 32 558 17 q 522 70 528 47 q 515 122 515 93 q 516 149 515 136 q 518 172 517 161 m 489 1083 q 458 1093 476 1083 q 420 1119 440 1103 q 378 1155 400 1135 q 335 1197 356 1175 q 274 1155 306 1175 q 216 1119 243 1135 q 167 1093 189 1103 q 133 1083 146 1083 q 112 1091 124 1083 q 90 1109 100 1099 q 72 1129 79 1119 q 64 1143 64 1139 q 81 1165 64 1147 q 126 1207 99 1182 q 185 1261 153 1232 q 247 1318 218 1290 q 290 1333 258 1328 q 353 1339 321 1339 q 395 1335 371 1339 q 426 1318 419 1331 q 476 1259 451 1289 q 521 1204 501 1229 q 553 1163 540 1179 q 565 1143 565 1146 q 557 1131 565 1140 q 537 1110 549 1121 q 512 1092 525 1100 q 489 1083 499 1083 z "},"ʼ":{"ha":629,"x_min":232,"x_max":464,"o":"m 321 847 q 288 856 301 847 q 265 876 274 864 q 253 905 257 889 q 249 936 249 921 q 259 983 249 963 q 288 1016 269 1003 q 328 1035 306 1029 q 374 1042 350 1042 q 444 1010 425 1042 q 464 932 464 979 q 450 838 464 883 q 412 758 436 793 q 355 703 388 724 q 285 682 322 682 q 242 699 253 682 q 232 740 232 715 q 246 756 232 746 q 276 781 260 767 q 307 813 293 796 q 321 847 321 829 z "},"ç":{"ha":707,"x_min":42,"x_max":686,"o":"m 408 171 q 478 182 449 171 q 531 207 508 193 q 568 232 553 221 q 596 243 583 243 q 628 201 628 243 q 624 174 628 192 q 613 138 619 157 q 598 103 606 119 q 583 78 590 86 q 563 58 578 71 q 524 31 547 44 q 469 6 501 18 q 399 -11 438 -7 l 393 -56 q 491 -76 456 -56 q 526 -146 526 -96 q 479 -241 526 -204 q 357 -278 432 -278 q 320 -276 342 -278 q 280 -266 299 -274 q 248 -245 261 -258 q 235 -210 235 -232 q 242 -172 235 -192 q 261 -151 250 -151 q 273 -157 267 -151 q 288 -170 279 -162 q 310 -183 297 -178 q 342 -189 324 -189 q 375 -182 361 -189 q 389 -160 389 -175 q 373 -133 389 -143 q 337 -117 357 -124 q 301 -106 317 -111 q 285 -97 285 -101 q 290 -58 285 -83 q 303 -10 296 -33 q 208 18 254 -3 q 124 79 161 39 q 65 182 88 119 q 42 333 42 244 q 47 416 42 369 q 67 512 51 463 q 108 609 82 561 q 176 694 133 657 q 280 755 219 732 q 424 778 340 778 q 541 762 492 778 q 622 719 590 746 q 670 656 654 692 q 686 578 686 619 q 639 467 686 503 q 506 432 592 432 q 477 435 485 432 q 469 451 469 439 q 468 511 469 485 q 460 556 467 538 q 442 583 454 574 q 406 593 429 593 q 337 565 363 593 q 298 498 311 538 q 281 417 285 458 q 278 347 278 375 q 309 210 278 249 q 408 171 340 171 z "},"ş":{"ha":654,"x_min":15,"x_max":611,"o":"m 382 778 q 556 731 500 778 q 611 613 611 685 q 573 519 611 551 q 463 488 535 488 q 436 492 443 488 q 429 507 429 496 q 427 535 429 519 q 417 566 425 551 q 394 590 410 581 q 349 600 378 600 q 286 581 310 600 q 263 535 263 563 q 287 488 263 506 q 348 456 311 471 q 428 424 385 440 q 508 382 471 408 q 569 316 544 356 q 593 214 593 276 q 533 59 593 121 q 350 -12 472 -3 l 344 -56 q 442 -76 407 -56 q 478 -146 478 -96 q 431 -241 478 -204 q 308 -278 383 -278 q 272 -276 293 -278 q 231 -266 250 -274 q 199 -245 213 -258 q 186 -210 186 -232 q 194 -172 186 -192 q 213 -151 201 -151 q 224 -157 218 -151 q 240 -170 231 -162 q 262 -183 249 -178 q 293 -189 275 -189 q 326 -182 313 -189 q 340 -160 340 -175 q 324 -133 340 -143 q 288 -117 308 -124 q 252 -106 268 -111 q 236 -97 236 -101 q 242 -59 236 -83 q 254 -11 247 -35 q 173 0 215 -8 q 96 22 131 8 q 38 55 61 35 q 15 103 15 75 q 20 133 15 115 q 35 168 25 151 q 60 197 46 185 q 96 208 75 208 q 126 200 113 208 q 159 183 140 192 q 206 165 178 174 q 279 157 233 157 q 341 165 314 157 q 368 203 368 174 q 346 245 368 229 q 290 275 324 261 q 216 305 256 289 q 142 347 176 321 q 86 415 108 374 q 64 521 64 456 q 92 641 64 592 q 166 721 121 690 q 268 765 211 751 q 382 778 325 778 z "},"ų":{"ha":833,"x_min":61,"x_max":768,"o":"m 322 646 q 317 564 322 617 q 308 454 313 511 q 298 347 303 397 q 293 275 293 297 q 317 199 293 226 q 385 172 342 172 q 448 202 422 172 q 490 280 474 232 q 515 389 506 328 q 530 513 525 450 q 538 634 535 575 q 546 736 542 693 q 554 756 547 747 q 576 764 561 764 l 626 764 q 697 755 669 764 q 740 729 724 746 q 762 688 756 713 q 768 632 768 664 q 766 573 768 611 q 758 467 764 535 q 745 297 753 400 q 726 40 738 193 q 724 17 725 25 q 718 6 722 10 q 704 1 714 1 q 678 0 694 0 q 626 -101 626 -56 q 638 -140 626 -125 q 663 -166 649 -156 q 688 -184 676 -176 q 699 -200 699 -192 q 688 -219 699 -207 q 660 -243 678 -232 q 617 -262 642 -254 q 561 -271 592 -271 q 478 -242 504 -271 q 451 -174 451 -214 q 481 -85 451 -131 q 581 7 510 -40 q 518 49 535 19 q 499 114 501 78 q 452 53 478 78 q 399 13 426 28 q 342 -8 371 -1 q 285 -14 313 -14 q 190 3 232 -14 q 120 50 149 21 q 76 119 92 79 q 61 206 61 160 q 63 265 61 224 q 69 357 65 306 q 76 466 72 408 q 84 575 81 524 q 91 665 88 626 q 96 721 94 704 q 107 755 99 746 q 135 764 115 764 l 179 764 q 250 756 222 764 q 294 732 278 747 q 316 695 310 717 q 322 646 322 674 z "},"ǫ":{"ha":833,"x_min":42,"x_max":785,"o":"m 785 453 q 770 313 785 390 q 715 165 756 235 q 600 46 674 96 q 410 -12 526 -4 q 380 -58 390 -36 q 369 -101 369 -81 q 381 -140 369 -125 q 406 -166 392 -156 q 431 -184 419 -176 q 442 -200 442 -192 q 431 -219 442 -207 q 403 -243 421 -232 q 360 -262 385 -254 q 304 -271 335 -271 q 221 -242 247 -271 q 194 -174 194 -214 q 219 -94 194 -135 q 300 -10 243 -53 q 176 31 225 0 q 97 106 126 61 q 54 210 67 151 q 42 333 42 268 q 62 497 42 417 q 131 639 82 576 q 259 740 179 701 q 458 778 339 778 q 709 692 633 778 q 785 453 785 607 m 435 593 q 351 566 382 593 q 303 501 319 539 q 283 420 288 463 q 278 349 278 378 q 307 214 278 257 q 390 171 336 171 q 470 201 439 171 q 519 275 501 232 q 542 365 536 318 q 549 444 549 413 q 523 553 549 514 q 435 593 497 593 z "},"ę":{"ha":740,"x_min":39,"x_max":713,"o":"m 650 138 q 630 74 650 101 q 577 29 610 47 q 503 1 544 11 q 419 -12 463 -8 q 390 -58 400 -36 q 379 -101 379 -81 q 390 -140 379 -125 q 415 -166 401 -156 q 440 -184 429 -176 q 451 -200 451 -192 q 441 -219 451 -207 q 413 -243 431 -232 q 369 -262 394 -254 q 314 -271 344 -271 q 231 -242 257 -271 q 204 -174 204 -214 q 228 -94 204 -135 q 310 -10 253 -53 q 208 17 257 -3 q 122 76 160 38 q 62 172 85 114 q 39 311 39 229 q 44 394 39 346 q 66 494 50 443 q 110 597 82 546 q 185 688 139 647 q 296 753 231 728 q 451 778 361 778 q 574 761 524 778 q 654 716 624 744 q 699 650 685 688 q 713 569 713 613 q 687 461 713 506 q 620 387 661 417 q 529 340 579 357 q 431 315 479 324 q 341 303 382 306 q 278 301 300 301 q 285 249 278 275 q 308 204 293 224 q 349 172 324 185 q 410 160 374 160 q 466 172 446 160 q 499 198 486 183 q 520 224 511 213 q 544 236 529 236 q 569 233 551 236 q 604 218 586 229 q 636 188 622 207 q 650 138 650 168 m 404 593 q 352 576 374 593 q 316 532 331 558 q 294 474 301 506 q 282 413 286 442 q 422 442 368 414 q 475 521 475 469 q 458 571 475 549 q 404 593 440 593 z "},"ą":{"ha":782,"x_min":15,"x_max":754,"o":"m 15 171 q 128 367 15 296 q 460 443 240 438 q 462 469 461 458 q 463 494 463 479 q 446 565 463 539 q 376 592 429 592 q 329 583 347 592 q 300 560 311 575 q 282 525 289 546 q 269 479 275 504 q 257 463 267 467 q 226 460 247 460 q 85 567 85 460 q 105 649 85 610 q 165 716 125 688 q 264 761 204 744 q 403 778 324 778 q 626 714 557 778 q 696 533 696 650 q 692 478 696 518 q 684 395 689 439 q 676 313 679 351 q 672 258 672 274 q 685 209 672 224 q 713 189 697 194 q 742 181 729 183 q 754 167 754 178 q 742 92 754 129 q 701 26 731 54 q 644 -40 665 -8 q 624 -101 624 -72 q 635 -140 624 -125 q 660 -166 646 -156 q 685 -184 674 -176 q 696 -200 696 -192 q 685 -219 696 -207 q 657 -243 675 -232 q 614 -262 639 -254 q 558 -271 589 -271 q 475 -242 501 -271 q 449 -174 449 -214 q 472 -94 449 -135 q 551 -11 496 -54 q 477 28 503 -3 q 443 107 451 58 q 356 22 410 58 q 217 -14 303 -14 q 138 -4 175 -14 q 74 28 101 6 q 31 85 47 50 q 15 171 15 121 m 447 329 q 376 324 411 329 q 315 306 342 318 q 271 275 288 294 q 254 228 254 256 q 274 183 254 196 q 318 171 294 171 q 363 181 340 171 q 402 210 385 190 q 432 260 419 231 q 447 329 444 289 z "},"˚":{"ha":282,"x_min":14,"x_max":268,"o":"m 149 1050 q 238 1024 208 1050 q 268 960 268 999 q 263 924 268 944 q 242 884 257 903 q 200 853 226 865 q 132 840 174 840 q 40 869 67 840 q 14 935 14 899 q 22 976 14 956 q 46 1013 29 997 q 88 1040 63 1029 q 149 1050 113 1050 m 143 982 q 115 969 124 982 q 107 942 107 957 q 114 917 107 928 q 138 907 121 907 q 167 923 160 907 q 174 950 174 939 q 166 973 174 964 q 143 982 158 982 z "},"ů":{"ha":833,"x_min":61,"x_max":768,"o":"m 322 646 q 317 564 322 617 q 308 454 313 511 q 298 347 303 397 q 293 275 293 297 q 317 199 293 226 q 385 172 342 172 q 448 202 422 172 q 490 280 474 232 q 515 389 506 328 q 530 513 525 450 q 538 634 535 575 q 546 736 542 693 q 554 756 547 747 q 576 764 561 764 l 626 764 q 697 755 669 764 q 740 729 724 746 q 762 688 756 713 q 768 632 768 664 q 766 573 768 611 q 758 467 764 535 q 745 297 753 400 q 726 40 738 193 q 720 6 724 11 q 697 0 717 0 l 643 0 q 574 10 601 0 q 531 35 547 19 q 507 71 514 50 q 499 114 500 92 q 452 53 478 78 q 399 13 426 28 q 342 -8 371 -1 q 285 -14 313 -14 q 190 3 232 -14 q 120 50 149 21 q 76 119 92 79 q 61 206 61 160 q 63 265 61 224 q 69 357 65 306 q 76 466 72 408 q 84 575 81 524 q 91 665 88 626 q 96 721 94 704 q 107 755 99 746 q 135 764 115 764 l 179 764 q 250 756 222 764 q 294 732 278 747 q 316 695 310 717 q 322 646 322 674 m 457 1050 q 547 1024 517 1050 q 576 960 576 999 q 571 924 576 944 q 550 884 565 903 q 508 853 535 865 q 440 840 482 840 q 349 869 375 840 q 322 935 322 899 q 330 976 322 956 q 354 1013 338 997 q 396 1040 371 1029 q 457 1050 421 1050 m 451 982 q 424 969 432 982 q 415 942 415 957 q 422 917 415 928 q 446 907 429 907 q 475 923 468 907 q 482 950 482 939 q 474 973 482 964 q 451 982 467 982 z "},"å":{"ha":782,"x_min":15,"x_max":754,"o":"m 15 171 q 128 367 15 296 q 460 443 240 438 q 462 469 461 458 q 463 494 463 479 q 446 565 463 539 q 376 592 429 592 q 329 583 347 592 q 300 560 311 575 q 282 525 289 546 q 269 479 275 504 q 257 463 267 467 q 226 460 247 460 q 85 567 85 460 q 105 649 85 610 q 165 716 125 688 q 264 761 204 744 q 403 778 324 778 q 626 714 557 778 q 696 533 696 650 q 692 478 696 518 q 684 395 689 439 q 676 313 679 351 q 672 258 672 274 q 685 209 672 224 q 713 189 697 194 q 742 181 729 183 q 754 167 754 178 q 746 104 754 136 q 719 46 738 72 q 667 3 700 19 q 588 -14 635 -14 q 488 18 521 -14 q 443 107 454 50 q 356 22 410 58 q 217 -14 303 -14 q 138 -4 175 -14 q 74 28 101 6 q 31 85 47 50 q 15 171 15 121 m 447 329 q 376 324 411 329 q 315 306 342 318 q 271 275 288 294 q 254 228 254 256 q 274 183 254 196 q 318 171 294 171 q 363 181 340 171 q 402 210 385 190 q 432 260 419 231 q 447 329 444 289 m 433 1050 q 523 1024 493 1050 q 553 960 553 999 q 547 924 553 944 q 526 884 542 903 q 485 853 511 865 q 417 840 458 840 q 325 869 351 840 q 299 935 299 899 q 306 976 299 956 q 331 1013 314 997 q 372 1040 347 1029 q 433 1050 397 1050 m 428 982 q 400 969 408 982 q 392 942 392 957 q 399 917 392 928 q 422 907 406 907 q 451 923 444 907 q 458 950 458 939 q 451 973 458 964 q 428 982 443 982 z "},"ŗ":{"ha":665,"x_min":58,"x_max":665,"o":"m 506 432 q 487 433 497 432 q 467 435 476 433 q 450 441 457 438 q 443 450 443 444 q 444 483 443 468 q 446 515 446 499 q 438 565 446 546 q 404 585 429 585 q 340 534 365 585 q 307 382 314 483 q 299 281 304 338 q 290 173 294 225 q 283 81 286 121 q 281 28 281 40 q 271 7 281 14 q 250 0 261 0 l 200 0 q 130 9 157 0 q 87 35 103 18 q 65 76 71 51 q 58 132 58 100 q 60 191 58 153 q 68 297 63 229 q 81 467 74 364 q 100 724 89 571 q 129 764 103 764 l 183 764 q 249 756 222 764 q 292 733 275 747 q 316 699 308 718 q 326 658 324 679 q 366 713 343 690 q 414 751 389 736 q 465 772 439 765 q 514 778 492 778 q 567 768 540 778 q 617 739 594 758 q 652 689 639 719 q 665 617 665 658 q 654 546 665 579 q 622 487 643 513 q 572 447 601 461 q 506 432 542 432 m 150 -182 q 106 -167 118 -182 q 94 -128 94 -151 q 116 -74 94 -92 q 176 -56 138 -56 q 235 -78 221 -56 q 250 -133 250 -101 q 242 -187 250 -161 q 222 -234 235 -214 q 189 -266 208 -254 q 147 -278 169 -278 q 113 -264 119 -278 q 106 -233 106 -250 q 113 -226 106 -232 q 128 -214 119 -221 q 143 -199 136 -207 q 150 -182 150 -190 z "},"ļ":{"ha":419,"x_min":57,"x_max":379,"o":"m 218 -12 q 94 33 132 -12 q 57 185 57 79 q 59 226 57 201 q 65 291 61 251 q 74 389 68 331 q 85 531 79 447 q 99 726 92 614 q 115 988 107 839 q 122 1024 117 1018 q 144 1028 126 1028 l 199 1028 q 268 1018 240 1028 q 313 992 296 1008 q 336 953 329 975 q 343 908 343 932 q 340 828 343 881 q 331 711 336 776 q 319 575 325 646 q 308 440 314 504 q 299 324 303 375 q 296 246 296 272 q 309 194 296 210 q 338 173 322 179 q 366 165 353 167 q 379 156 379 163 q 372 95 379 125 q 347 41 365 65 q 298 2 329 17 q 218 -12 267 -12 m 182 -182 q 138 -167 150 -182 q 126 -128 126 -151 q 148 -74 126 -92 q 208 -56 169 -56 q 267 -78 253 -56 q 282 -133 282 -101 q 274 -187 282 -161 q 253 -234 267 -214 q 221 -266 240 -254 q 179 -278 201 -278 q 144 -264 151 -278 q 138 -233 138 -250 q 144 -226 138 -232 q 160 -214 151 -221 q 175 -199 168 -207 q 182 -182 182 -190 z "},"ķ":{"ha":749,"x_min":56,"x_max":717,"o":"m 717 113 q 710 85 717 106 q 688 42 703 64 q 649 3 672 19 q 594 -14 626 -14 q 520 11 557 -14 q 447 79 483 36 q 374 181 411 122 q 300 310 338 240 q 289 165 294 236 q 278 28 283 94 q 271 6 276 11 q 247 0 265 0 l 197 0 q 126 9 154 0 q 83 35 99 18 q 62 77 68 51 q 56 136 56 103 q 57 171 56 153 q 61 222 58 189 q 69 310 64 256 q 81 453 74 364 q 97 672 88 542 q 117 988 106 801 q 124 1024 118 1018 q 146 1028 128 1028 l 200 1028 q 271 1018 243 1028 q 315 992 299 1008 q 338 953 332 975 q 344 907 344 931 q 342 860 344 893 q 338 781 340 828 q 330 676 335 735 q 321 554 325 618 l 543 757 q 566 772 556 768 q 582 776 576 776 q 615 757 597 776 q 649 712 633 738 q 676 659 665 686 q 686 615 686 632 q 622 531 686 575 q 426 431 557 486 q 538 311 485 365 q 630 215 590 257 q 693 147 669 174 q 717 113 717 121 m 333 -182 q 290 -167 301 -182 q 278 -128 278 -151 q 299 -74 278 -92 q 360 -56 321 -56 q 419 -78 404 -56 q 433 -133 433 -101 q 426 -187 433 -161 q 405 -234 418 -214 q 372 -266 392 -254 q 331 -278 353 -278 q 296 -264 303 -278 q 289 -233 289 -250 q 296 -226 289 -232 q 311 -214 303 -221 q 326 -199 319 -207 q 333 -182 333 -190 z "},"ņ":{"ha":860,"x_min":57,"x_max":793,"o":"m 531 122 q 535 202 531 153 q 545 306 540 251 q 555 413 550 361 q 560 499 560 464 q 542 563 560 535 q 475 592 525 592 q 394 568 426 592 q 341 482 363 544 q 306 310 319 419 q 279 28 292 200 q 272 6 278 11 q 249 0 267 0 l 199 0 q 128 9 156 0 q 85 35 101 18 q 63 76 69 51 q 57 132 57 100 q 59 191 57 153 q 67 297 61 229 q 80 467 72 364 q 99 724 88 571 q 106 760 100 754 q 128 764 110 764 l 182 764 q 251 754 224 764 q 294 728 278 744 q 318 691 311 713 q 326 647 325 669 q 425 749 369 721 q 564 778 481 778 q 665 765 622 778 q 737 723 708 753 q 779 645 765 693 q 793 526 793 597 q 790 463 793 504 q 783 372 788 421 q 774 269 779 322 q 765 169 769 215 q 758 89 761 124 q 756 43 756 54 q 749 6 756 13 q 718 0 742 0 l 674 0 q 601 8 629 0 q 558 32 574 17 q 537 70 543 47 q 531 122 531 93 m 383 -182 q 340 -167 351 -182 q 328 -128 328 -151 q 349 -74 328 -92 q 410 -56 371 -56 q 469 -78 454 -56 q 483 -133 483 -101 q 476 -187 483 -161 q 455 -234 468 -214 q 422 -266 442 -254 q 381 -278 403 -278 q 346 -264 353 -278 q 339 -233 339 -250 q 346 -226 339 -232 q 361 -214 353 -221 q 376 -199 369 -207 q 383 -182 383 -190 z "},"ţ":{"ha":556,"x_min":36,"x_max":540,"o":"m 356 576 q 347 472 351 524 q 338 375 342 421 q 331 293 333 329 q 329 238 329 257 q 338 190 329 201 q 365 178 346 178 q 392 183 381 178 q 413 196 403 189 q 430 208 422 203 q 447 214 438 214 q 465 203 457 214 q 474 151 474 192 q 433 33 474 76 q 294 -14 393 -11 l 289 -56 q 387 -76 351 -56 q 422 -146 422 -96 q 375 -241 422 -204 q 253 -278 328 -278 q 216 -276 238 -278 q 176 -266 194 -274 q 144 -245 157 -258 q 131 -210 131 -232 q 138 -172 131 -192 q 157 -151 146 -151 q 169 -157 163 -151 q 184 -170 175 -162 q 206 -183 193 -178 q 238 -189 219 -189 q 271 -182 257 -189 q 285 -160 285 -175 q 269 -133 285 -143 q 233 -117 253 -124 q 197 -106 213 -111 q 181 -97 181 -101 q 187 -55 181 -82 q 201 -1 193 -28 q 93 175 93 32 q 95 224 93 196 q 101 299 97 253 q 112 411 106 344 q 125 576 118 478 l 51 576 q 38 581 40 576 q 36 596 36 586 l 40 667 q 45 702 42 685 q 59 733 49 719 q 89 756 69 747 q 140 764 108 764 q 163 824 150 789 q 188 891 175 858 q 212 946 200 924 q 233 968 224 968 l 274 968 q 354 932 332 968 q 376 846 376 896 q 372 764 376 818 l 518 764 q 540 744 540 764 l 535 669 q 512 602 532 628 q 429 576 492 576 l 356 576 z "},"ș":{"ha":653,"x_min":14,"x_max":610,"o":"m 381 778 q 554 731 499 778 q 610 613 610 685 q 572 519 610 551 q 461 488 533 488 q 435 492 442 488 q 428 507 428 496 q 426 535 428 519 q 416 566 424 551 q 392 590 408 581 q 347 600 376 600 q 285 581 308 600 q 261 535 261 563 q 285 488 261 506 q 347 456 310 471 q 426 424 383 440 q 506 382 469 408 q 567 316 543 356 q 592 214 592 276 q 521 50 592 114 q 308 -14 450 -14 q 219 -8 269 -14 q 122 12 168 -1 q 45 47 76 25 q 14 103 14 69 q 19 133 14 115 q 34 168 24 151 q 59 197 44 185 q 94 208 74 208 q 125 200 111 208 q 158 183 139 192 q 204 165 176 174 q 278 157 232 157 q 340 165 313 157 q 367 203 367 174 q 344 245 367 229 q 288 275 322 261 q 215 305 254 289 q 141 347 175 321 q 85 415 107 374 q 63 521 63 456 q 91 641 63 592 q 165 721 119 690 q 267 765 210 751 q 381 778 324 778 m 258 -182 q 215 -167 226 -182 q 203 -128 203 -151 q 224 -74 203 -92 q 285 -56 246 -56 q 344 -78 329 -56 q 358 -133 358 -101 q 351 -187 358 -161 q 330 -234 343 -214 q 297 -266 317 -254 q 256 -278 278 -278 q 221 -264 228 -278 q 214 -233 214 -250 q 221 -226 214 -232 q 236 -214 228 -221 q 251 -199 244 -207 q 258 -182 258 -190 z "},"ț":{"ha":554,"x_min":36,"x_max":540,"o":"m 356 576 q 347 472 351 524 q 338 375 342 421 q 331 293 333 329 q 329 238 329 257 q 338 190 329 201 q 365 178 346 178 q 392 183 381 178 q 413 196 403 189 q 430 208 422 203 q 447 214 438 214 q 465 203 457 214 q 474 151 474 192 q 432 31 474 75 q 289 -14 390 -14 q 141 33 189 -14 q 93 175 93 79 q 95 224 93 196 q 101 299 97 253 q 112 411 106 344 q 125 576 118 478 l 51 576 q 38 581 40 576 q 36 596 36 586 l 40 667 q 45 702 42 685 q 59 733 49 719 q 89 756 69 747 q 140 764 108 764 q 163 824 150 789 q 188 891 175 858 q 212 946 200 924 q 233 968 224 968 l 274 968 q 354 932 332 968 q 376 846 376 896 q 372 764 376 818 l 518 764 q 540 744 540 764 l 535 669 q 512 602 532 628 q 429 576 492 576 l 356 576 m 254 -182 q 210 -167 222 -182 q 199 -128 199 -151 q 220 -74 199 -92 q 281 -56 242 -56 q 340 -78 325 -56 q 354 -133 354 -101 q 347 -187 354 -161 q 326 -234 339 -214 q 293 -266 313 -254 q 251 -278 274 -278 q 217 -264 224 -278 q 210 -233 210 -250 q 217 -226 210 -232 q 232 -214 224 -221 q 247 -199 240 -207 q 254 -182 254 -190 z "},"ụ":{"ha":833,"x_min":61,"x_max":768,"o":"m 322 646 q 317 564 322 617 q 308 454 313 511 q 298 347 303 397 q 293 275 293 297 q 317 199 293 226 q 385 172 342 172 q 448 202 422 172 q 490 280 474 232 q 515 389 506 328 q 530 513 525 450 q 538 634 535 575 q 546 736 542 693 q 554 756 547 747 q 576 764 561 764 l 626 764 q 697 755 669 764 q 740 729 724 746 q 762 688 756 713 q 768 632 768 664 q 766 573 768 611 q 758 467 764 535 q 745 297 753 400 q 726 40 738 193 q 720 6 724 11 q 697 0 717 0 l 643 0 q 574 10 601 0 q 531 35 547 19 q 507 71 514 50 q 499 114 500 92 q 452 53 478 78 q 399 13 426 28 q 342 -8 371 -1 q 285 -14 313 -14 q 190 3 232 -14 q 120 50 149 21 q 76 119 92 79 q 61 206 61 160 q 63 265 61 224 q 69 357 65 306 q 76 466 72 408 q 84 575 81 524 q 91 665 88 626 q 96 721 94 704 q 107 755 99 746 q 135 764 115 764 l 179 764 q 250 756 222 764 q 294 732 278 747 q 316 695 310 717 q 322 646 322 674 m 256 -181 q 289 -103 256 -132 q 381 -75 322 -75 q 451 -97 429 -75 q 474 -154 474 -118 q 442 -228 474 -199 q 347 -258 410 -258 q 256 -181 256 -258 z "},"ḥ":{"ha":844,"x_min":56,"x_max":778,"o":"m 518 172 q 527 268 522 218 q 535 364 532 318 q 542 446 539 410 q 544 499 544 482 q 527 563 544 535 q 460 592 510 592 q 352 529 393 592 q 304 363 311 467 q 297 281 301 333 q 289 176 293 229 q 281 80 285 122 q 278 28 278 38 q 272 6 278 11 q 247 0 265 0 l 197 0 q 127 9 154 0 q 84 35 100 18 q 62 76 68 51 q 56 132 56 100 q 60 217 56 163 q 74 369 65 272 q 93 615 82 465 q 117 988 104 765 q 124 1024 118 1018 q 146 1028 128 1028 l 200 1028 q 269 1018 242 1028 q 314 992 297 1008 q 338 953 331 975 q 344 908 344 932 q 340 815 344 883 q 328 656 335 747 q 420 751 369 725 q 549 778 471 778 q 650 765 607 778 q 722 723 693 753 q 764 645 750 693 q 778 526 778 597 q 774 450 778 504 q 763 326 769 396 q 751 181 757 257 q 740 43 744 106 q 738 19 739 28 q 733 7 736 11 q 722 1 729 3 q 703 0 715 0 l 658 0 q 586 8 614 0 q 543 32 558 17 q 522 70 528 47 q 515 122 515 93 q 516 149 515 136 q 518 172 517 161 m 276 -181 q 310 -103 276 -132 q 401 -75 343 -75 q 472 -97 450 -75 q 494 -154 494 -118 q 463 -228 494 -199 q 368 -258 431 -258 q 276 -181 276 -258 z "},"ọ":{"ha":831,"x_min":40,"x_max":783,"o":"m 368 -14 q 209 13 272 -14 q 108 88 146 40 q 56 198 71 135 q 40 333 40 261 q 60 497 40 417 q 129 639 81 576 q 258 740 178 701 q 457 778 338 778 q 708 692 632 778 q 783 453 783 607 q 777 358 783 410 q 753 254 771 306 q 706 154 736 203 q 631 68 676 106 q 520 8 585 31 q 368 -14 456 -14 m 433 593 q 349 566 381 593 q 302 501 318 539 q 281 420 286 463 q 276 349 276 378 q 306 214 276 257 q 389 171 335 171 q 469 201 438 171 q 517 275 500 232 q 541 365 535 318 q 547 444 547 413 q 522 553 547 514 q 433 593 496 593 m 246 -181 q 279 -103 246 -132 q 371 -75 313 -75 q 442 -97 419 -75 q 464 -154 464 -118 q 432 -228 464 -199 q 338 -258 400 -258 q 246 -181 246 -258 z "},"ṛ":{"ha":665,"x_min":51,"x_max":665,"o":"m 506 432 q 487 433 497 432 q 467 435 476 433 q 450 441 457 438 q 443 450 443 444 q 444 483 443 468 q 446 515 446 499 q 438 565 446 546 q 404 585 429 585 q 340 534 365 585 q 307 382 314 483 q 299 281 304 338 q 290 173 294 225 q 283 81 286 121 q 281 28 281 40 q 271 7 281 14 q 250 0 261 0 l 200 0 q 130 9 157 0 q 87 35 103 18 q 65 76 71 51 q 58 132 58 100 q 60 191 58 153 q 68 297 63 229 q 81 467 74 364 q 100 724 89 571 q 129 764 103 764 l 183 764 q 249 756 222 764 q 292 733 275 747 q 316 699 308 718 q 326 658 324 679 q 366 713 343 690 q 414 751 389 736 q 465 772 439 765 q 514 778 492 778 q 567 768 540 778 q 617 739 594 758 q 652 689 639 719 q 665 617 665 658 q 654 546 665 579 q 622 487 643 513 q 572 447 601 461 q 506 432 542 432 m 51 -181 q 85 -103 51 -132 q 176 -75 118 -75 q 247 -97 225 -75 q 269 -154 269 -118 q 238 -228 269 -199 q 143 -258 206 -258 q 51 -181 51 -258 z "},"ṭ":{"ha":554,"x_min":36,"x_max":540,"o":"m 356 576 q 347 472 351 524 q 338 375 342 421 q 331 293 333 329 q 329 238 329 257 q 338 190 329 201 q 365 178 346 178 q 392 183 381 178 q 413 196 403 189 q 430 208 422 203 q 447 214 438 214 q 465 203 457 214 q 474 151 474 192 q 432 31 474 75 q 289 -14 390 -14 q 141 33 189 -14 q 93 175 93 79 q 95 224 93 196 q 101 299 97 253 q 112 411 106 344 q 125 576 118 478 l 51 576 q 38 581 40 576 q 36 596 36 586 l 40 667 q 45 702 42 685 q 59 733 49 719 q 89 756 69 747 q 140 764 108 764 q 163 824 150 789 q 188 891 175 858 q 212 946 200 924 q 233 968 224 968 l 274 968 q 354 932 332 968 q 376 846 376 896 q 372 764 376 818 l 518 764 q 540 744 540 764 l 535 669 q 512 602 532 628 q 429 576 492 576 l 356 576 m 154 -181 q 188 -103 154 -132 q 279 -75 221 -75 q 350 -97 328 -75 q 372 -154 372 -118 q 340 -228 372 -199 q 246 -258 308 -258 q 154 -181 154 -258 z "},"ḍ":{"ha":844,"x_min":42,"x_max":800,"o":"m 311 -14 q 208 6 257 -14 q 122 67 158 25 q 63 172 85 108 q 42 326 42 236 q 47 416 42 367 q 67 515 53 465 q 106 613 81 565 q 169 697 131 660 q 260 756 207 733 q 386 778 314 778 q 498 753 456 778 q 551 669 540 729 q 557 764 554 724 q 562 839 560 804 q 567 908 564 874 q 572 988 569 943 q 579 1024 574 1018 q 586 1027 582 1026 q 601 1028 590 1028 l 656 1028 q 725 1018 697 1028 q 769 992 753 1008 q 793 953 786 975 q 800 908 800 932 q 797 874 800 908 q 790 781 794 839 q 781 650 786 724 q 769 498 775 576 q 758 342 764 419 q 747 201 753 265 q 738 90 742 136 q 733 28 735 43 q 726 6 731 11 q 703 0 722 0 l 653 0 q 598 5 624 0 q 553 22 572 10 q 524 53 535 33 q 514 106 514 74 q 438 19 489 53 q 311 -14 388 -14 m 432 593 q 327 531 361 593 q 293 365 293 469 q 298 294 293 329 q 315 232 303 260 q 349 188 328 204 q 404 171 371 171 q 504 229 464 171 q 544 413 544 288 q 540 480 544 447 q 524 538 536 513 q 489 578 511 563 q 432 593 467 593 m 211 -181 q 244 -103 211 -132 q 336 -75 278 -75 q 407 -97 385 -75 q 429 -154 429 -118 q 397 -228 429 -199 q 303 -258 365 -258 q 211 -181 211 -258 z "},"ẹ":{"ha":739,"x_min":39,"x_max":713,"o":"m 378 -14 q 256 1 317 -14 q 148 54 196 17 q 69 154 100 92 q 39 311 39 217 q 44 394 39 346 q 66 494 50 443 q 110 597 82 546 q 185 688 139 647 q 296 753 231 728 q 451 778 361 778 q 574 761 524 778 q 654 716 624 744 q 699 650 685 688 q 713 569 713 613 q 687 461 713 506 q 620 387 661 417 q 529 340 579 357 q 431 315 479 324 q 341 303 382 306 q 278 301 300 301 q 285 249 278 275 q 308 204 293 224 q 349 172 324 185 q 410 160 374 160 q 466 172 446 160 q 499 198 486 183 q 520 224 511 213 q 544 236 529 236 q 569 233 551 236 q 604 218 586 229 q 636 188 622 207 q 650 138 650 168 q 625 68 650 97 q 560 21 600 39 q 472 -6 521 3 q 378 -14 424 -14 m 404 593 q 352 576 374 593 q 316 532 331 558 q 294 474 301 506 q 282 413 286 442 q 422 442 368 414 q 475 521 475 469 q 458 571 475 549 q 404 593 440 593 m 219 -181 q 253 -103 219 -132 q 344 -75 286 -75 q 415 -97 393 -75 q 438 -154 438 -118 q 406 -228 438 -199 q 311 -258 374 -258 q 219 -181 219 -258 z "},"ṣ":{"ha":653,"x_min":14,"x_max":610,"o":"m 381 778 q 554 731 499 778 q 610 613 610 685 q 572 519 610 551 q 461 488 533 488 q 435 492 442 488 q 428 507 428 496 q 426 535 428 519 q 416 566 424 551 q 392 590 408 581 q 347 600 376 600 q 285 581 308 600 q 261 535 261 563 q 285 488 261 506 q 347 456 310 471 q 426 424 383 440 q 506 382 469 408 q 567 316 543 356 q 592 214 592 276 q 521 50 592 114 q 308 -14 450 -14 q 219 -8 269 -14 q 122 12 168 -1 q 45 47 76 25 q 14 103 14 69 q 19 133 14 115 q 34 168 24 151 q 59 197 44 185 q 94 208 74 208 q 125 200 111 208 q 158 183 139 192 q 204 165 176 174 q 278 157 232 157 q 340 165 313 157 q 367 203 367 174 q 344 245 367 229 q 288 275 322 261 q 215 305 254 289 q 141 347 175 321 q 85 415 107 374 q 63 521 63 456 q 91 641 63 592 q 165 721 119 690 q 267 765 210 751 q 381 778 324 778 m 157 -181 q 190 -103 157 -132 q 282 -75 224 -75 q 353 -97 331 -75 q 375 -154 375 -118 q 343 -228 375 -199 q 249 -258 311 -258 q 157 -181 157 -258 z "},"ẓ":{"ha":713,"x_min":3,"x_max":688,"o":"m 18 0 q 3 15 3 0 l 7 90 q 33 163 8 128 q 101 249 57 197 q 211 378 146 300 q 363 583 276 457 l 101 583 q 88 588 90 583 q 86 603 86 593 l 90 667 q 95 702 92 685 q 109 733 99 719 q 139 756 119 747 q 190 764 158 764 l 665 764 q 681 760 674 764 q 688 744 688 756 l 682 669 q 654 596 681 635 q 618 551 650 589 q 540 456 586 514 q 437 327 493 399 q 326 181 381 256 l 624 181 q 639 176 632 181 q 646 161 646 172 l 640 93 q 617 26 638 51 q 535 0 597 0 l 18 0 m 179 -181 q 213 -103 179 -132 q 304 -75 246 -75 q 375 -97 353 -75 q 397 -154 397 -118 q 365 -228 397 -199 q 271 -258 333 -258 q 179 -181 179 -258 z "},"ﬀ":{"ha":1049,"x_min":36,"x_max":1144,"o":"m 765 481 q 758 390 763 439 q 750 292 754 342 q 742 196 746 243 q 736 113 739 149 q 731 53 733 76 q 729 28 729 29 q 722 6 728 11 q 699 0 717 0 l 649 0 q 544 35 574 0 q 514 142 514 71 q 516 183 514 150 q 522 263 518 217 q 529 367 525 310 q 538 481 533 424 l 344 481 q 338 390 342 439 q 329 292 333 342 q 322 196 325 243 q 315 113 318 149 q 310 53 313 76 q 308 28 308 29 q 301 6 307 11 q 278 0 296 0 l 228 0 q 165 6 190 0 q 123 26 139 11 q 100 69 107 42 q 93 142 93 97 q 101 253 96 196 q 109 361 104 301 q 118 481 114 421 l 51 481 q 36 496 36 481 l 40 571 q 45 605 42 588 q 58 635 49 622 q 85 658 67 649 q 133 668 103 667 q 135 683 133 679 q 174 835 143 774 q 251 935 204 897 q 358 990 297 974 q 485 1007 418 1007 q 585 999 542 1007 q 663 975 629 990 q 760 1026 704 1011 q 888 1042 817 1042 q 1006 1029 957 1042 q 1086 994 1056 1017 q 1131 942 1117 972 q 1144 876 1144 911 q 1099 774 1144 804 q 978 743 1054 743 q 949 747 957 743 q 942 763 942 750 q 933 835 942 808 q 888 861 925 861 q 840 844 860 861 q 808 801 821 828 q 790 739 796 774 q 779 668 783 704 l 939 668 q 961 649 961 668 l 956 574 q 933 506 953 532 q 850 481 913 481 l 765 481 m 485 821 q 434 809 456 821 q 398 776 413 797 q 375 728 383 756 q 361 668 367 700 l 553 668 l 558 724 q 543 794 558 768 q 485 821 528 821 z "},"ß":{"ha":881,"x_min":54,"x_max":844,"o":"m 776 892 q 754 797 776 843 q 705 710 732 751 q 656 634 678 669 q 633 569 633 599 q 649 529 633 546 q 688 497 665 513 q 739 463 711 481 q 790 420 767 446 q 828 357 813 394 q 844 265 844 319 q 826 158 844 208 q 772 69 807 107 q 685 8 736 31 q 567 -14 633 -14 q 481 -4 521 -14 q 412 20 442 6 q 365 52 382 35 q 349 83 349 69 q 359 178 349 149 q 392 208 369 208 q 419 200 406 208 q 449 183 433 192 q 485 165 465 174 q 532 157 506 157 q 593 174 567 157 q 619 232 619 192 q 605 283 619 261 q 567 325 590 306 q 519 363 544 344 q 470 405 493 382 q 433 458 447 428 q 418 529 418 488 q 440 624 418 582 q 488 699 463 665 q 536 761 514 733 q 558 814 558 789 q 539 849 558 836 q 490 861 519 861 q 419 835 449 861 q 371 771 390 810 q 340 686 351 732 q 322 600 328 640 q 308 481 315 553 q 295 331 301 410 q 283 172 289 251 q 274 28 278 92 q 267 6 272 11 q 243 0 261 0 l 186 0 q 122 3 147 0 q 82 23 97 7 q 60 71 67 39 q 54 160 54 103 q 58 267 54 204 q 68 401 61 331 q 85 543 75 471 q 110 681 96 615 q 158 838 129 769 q 234 954 188 907 q 349 1025 281 1001 q 517 1049 418 1049 q 715 1007 653 1049 q 776 892 776 965 z "},"ﬁ":{"ha":801,"x_min":36,"x_max":779,"o":"m 631 0 q 560 9 588 0 q 517 35 533 18 q 495 76 501 51 q 489 132 489 100 q 490 169 489 150 q 493 223 490 188 q 501 319 496 258 q 513 481 506 379 l 344 481 q 338 390 342 439 q 329 292 333 342 q 322 196 325 243 q 315 113 318 149 q 310 53 313 76 q 308 28 308 29 q 301 6 307 11 q 278 0 296 0 l 228 0 q 165 6 190 0 q 123 26 139 11 q 100 69 107 42 q 93 142 93 97 q 101 250 97 193 q 108 359 104 299 q 118 481 113 419 l 51 481 q 36 496 36 481 l 40 571 q 45 605 42 588 q 58 635 49 622 q 85 658 67 649 q 132 668 103 667 l 138 724 q 174 876 146 814 q 248 976 203 938 q 355 1031 293 1014 q 494 1047 417 1047 q 625 1034 571 1047 q 714 997 679 1021 q 764 942 749 974 q 779 876 779 911 q 734 774 779 804 q 613 743 689 743 q 584 747 592 743 q 576 763 576 750 q 574 803 576 785 q 564 835 572 822 q 539 854 556 847 q 494 861 522 861 q 436 844 460 861 q 397 801 413 828 q 374 739 382 774 q 360 668 365 704 l 611 668 q 679 659 653 668 q 721 633 706 650 q 742 594 736 617 q 749 542 749 571 q 747 494 749 521 q 742 414 746 468 q 731 269 738 360 q 711 28 724 178 q 704 6 710 11 q 681 0 699 0 l 631 0 z "},"¯":{"ha":529,"x_min":14,"x_max":515,"o":"m 29 858 q 14 874 14 858 q 16 922 14 899 q 27 965 18 946 q 57 995 36 983 q 115 1007 78 1007 l 493 1007 q 508 1002 501 1007 q 515 988 515 997 q 512 935 515 958 q 497 894 508 911 q 465 868 486 878 q 407 858 443 858 l 29 858 z "},"ū":{"ha":833,"x_min":61,"x_max":768,"o":"m 322 646 q 317 564 322 617 q 308 454 313 511 q 298 347 303 397 q 293 275 293 297 q 317 199 293 226 q 385 172 342 172 q 448 202 422 172 q 490 280 474 232 q 515 389 506 328 q 530 513 525 450 q 538 634 535 575 q 546 736 542 693 q 554 756 547 747 q 576 764 561 764 l 626 764 q 697 755 669 764 q 740 729 724 746 q 762 688 756 713 q 768 632 768 664 q 766 573 768 611 q 758 467 764 535 q 745 297 753 400 q 726 40 738 193 q 720 6 724 11 q 697 0 717 0 l 643 0 q 574 10 601 0 q 531 35 547 19 q 507 71 514 50 q 499 114 500 92 q 452 53 478 78 q 399 13 426 28 q 342 -8 371 -1 q 285 -14 313 -14 q 190 3 232 -14 q 120 50 149 21 q 76 119 92 79 q 61 206 61 160 q 63 265 61 224 q 69 357 65 306 q 76 466 72 408 q 84 575 81 524 q 91 665 88 626 q 96 721 94 704 q 107 755 99 746 q 135 764 115 764 l 179 764 q 250 756 222 764 q 294 732 278 747 q 316 695 310 717 q 322 646 322 674 m 219 858 q 204 874 204 858 q 206 922 204 899 q 217 965 208 946 q 247 995 226 983 q 306 1007 268 1007 l 683 1007 q 699 1002 692 1007 q 706 988 706 997 q 702 935 706 958 q 688 894 699 911 q 655 868 676 878 q 597 858 633 858 l 219 858 z "},"ō":{"ha":831,"x_min":40,"x_max":783,"o":"m 368 -14 q 209 13 272 -14 q 108 88 146 40 q 56 198 71 135 q 40 333 40 261 q 60 497 40 417 q 129 639 81 576 q 258 740 178 701 q 457 778 338 778 q 708 692 632 778 q 783 453 783 607 q 777 358 783 410 q 753 254 771 306 q 706 154 736 203 q 631 68 676 106 q 520 8 585 31 q 368 -14 456 -14 m 433 593 q 349 566 381 593 q 302 501 318 539 q 281 420 286 463 q 276 349 276 378 q 306 214 276 257 q 389 171 335 171 q 469 201 438 171 q 517 275 500 232 q 541 365 535 318 q 547 444 547 413 q 522 553 547 514 q 433 593 496 593 m 236 858 q 221 874 221 858 q 223 922 221 899 q 234 965 225 946 q 264 995 243 983 q 322 1007 285 1007 l 700 1007 q 715 1002 708 1007 q 722 988 722 997 q 719 935 722 958 q 704 894 715 911 q 672 868 693 878 q 614 858 650 858 l 236 858 z "},"ē":{"ha":739,"x_min":39,"x_max":713,"o":"m 378 -14 q 256 1 317 -14 q 148 54 196 17 q 69 154 100 92 q 39 311 39 217 q 44 394 39 346 q 66 494 50 443 q 110 597 82 546 q 185 688 139 647 q 296 753 231 728 q 451 778 361 778 q 574 761 524 778 q 654 716 624 744 q 699 650 685 688 q 713 569 713 613 q 687 461 713 506 q 620 387 661 417 q 529 340 579 357 q 431 315 479 324 q 341 303 382 306 q 278 301 300 301 q 285 249 278 275 q 308 204 293 224 q 349 172 324 185 q 410 160 374 160 q 466 172 446 160 q 499 198 486 183 q 520 224 511 213 q 544 236 529 236 q 569 233 551 236 q 604 218 586 229 q 636 188 622 207 q 650 138 650 168 q 625 68 650 97 q 560 21 600 39 q 472 -6 521 3 q 378 -14 424 -14 m 404 593 q 352 576 374 593 q 316 532 331 558 q 294 474 301 506 q 282 413 286 442 q 422 442 368 414 q 475 521 475 469 q 458 571 475 549 q 404 593 440 593 m 214 858 q 199 874 199 858 q 201 922 199 899 q 212 965 203 946 q 242 995 221 983 q 300 1007 263 1007 l 678 1007 q 693 1002 686 1007 q 700 988 700 997 q 697 935 700 958 q 682 894 693 911 q 649 868 671 878 q 592 858 628 858 l 214 858 z "},"ā":{"ha":782,"x_min":15,"x_max":754,"o":"m 15 171 q 128 367 15 296 q 460 443 240 438 q 462 469 461 458 q 463 494 463 479 q 446 565 463 539 q 376 592 429 592 q 329 583 347 592 q 300 560 311 575 q 282 525 289 546 q 269 479 275 504 q 257 463 267 467 q 226 460 247 460 q 85 567 85 460 q 105 649 85 610 q 165 716 125 688 q 264 761 204 744 q 403 778 324 778 q 626 714 557 778 q 696 533 696 650 q 692 478 696 518 q 684 395 689 439 q 676 313 679 351 q 672 258 672 274 q 685 209 672 224 q 713 189 697 194 q 742 181 729 183 q 754 167 754 178 q 746 104 754 136 q 719 46 738 72 q 667 3 700 19 q 588 -14 635 -14 q 488 18 521 -14 q 443 107 454 50 q 356 22 410 58 q 217 -14 303 -14 q 138 -4 175 -14 q 74 28 101 6 q 31 85 47 50 q 15 171 15 121 m 447 329 q 376 324 411 329 q 315 306 342 318 q 271 275 288 294 q 254 228 254 256 q 274 183 254 196 q 318 171 294 171 q 363 181 340 171 q 402 210 385 190 q 432 260 419 231 q 447 329 444 289 m 190 858 q 175 874 175 858 q 177 922 175 899 q 188 965 179 946 q 218 995 197 983 q 276 1007 239 1007 l 654 1007 q 669 1002 663 1007 q 676 988 676 997 q 673 935 676 958 q 658 894 669 911 q 626 868 647 878 q 568 858 604 858 l 190 858 z "}}}
